<svg width="59" height="50" viewBox="0 0 59 50" fill="none" xmlns="http://www.w3.org/2000/svg">
<path d="M19.3718 4.33013C22.7752 2.36517 26.9684 2.36517 30.3718 4.33013L39.9114 9.83782C43.3148 11.8028 45.4114 15.4342 45.4114 19.3641V30.3795C45.4114 34.3094 43.3148 37.9408 39.9114 39.9058L30.3718 45.4135C26.9684 47.3784 22.7752 47.3784 19.3718 45.4135L9.8322 39.9058C6.42878 37.9408 4.33219 34.3094 4.33219 30.3795V19.3641C4.33219 15.4342 6.42878 11.8028 9.83219 9.83782L19.3718 4.33013Z" stroke="#4B566B" stroke-width="2"/>
<g clip-path="url(#clip0_9440_81148)">
<path d="M32.0397 23.7245C31.9049 23.742 31.7668 23.7525 31.6217 23.7525C30.7235 23.7525 29.9221 23.3537 29.3729 22.7382C28.8236 23.3537 28.0222 23.7525 27.1206 23.7525C26.219 23.7525 25.4176 23.3537 24.8683 22.7382C24.319 23.3537 23.5211 23.7525 22.616 23.7525C21.7179 23.7525 20.9165 23.3537 20.3672 22.7382C19.8179 23.3537 19.0165 23.7525 18.1135 23.7525C17.9733 23.7525 17.832 23.742 17.6949 23.7245C15.7839 23.4657 14.8797 21.1852 15.9017 19.5484L17.8821 16.3771C18.0583 16.092 18.373 15.9178 18.7091 15.9178H31.0344C31.3695 15.9178 31.6839 16.092 31.86 16.3771L33.8394 19.5484C34.8654 21.1887 33.9569 23.4657 32.0397 23.7245ZM32.1848 24.8332C32.3022 24.8157 32.4715 24.7878 32.6096 24.7528V31.5871C32.6096 32.8217 31.6182 33.8255 30.3988 33.8255H19.3447C18.1239 33.8255 17.1339 32.8217 17.1339 31.5871V24.7528C17.2676 24.7878 17.4054 24.8157 17.5474 24.8332H17.5515C17.7332 24.8577 17.9225 24.8717 18.1135 24.8717C18.5433 24.8717 18.9578 24.8052 19.3447 24.6828V29.3486H30.3988V24.6863C30.7857 24.8052 31.1968 24.8717 31.6217 24.8717C31.8151 24.8717 32.0017 24.8577 32.1848 24.8332Z" fill="#2B3445"/>
</g>
<rect x="36" y="1" width="22" height="22" rx="11" fill="#373F50" stroke="#2B3445" stroke-width="2"/>
<mask id="mask0_9440_81148" style="mask-type:alpha" maskUnits="userSpaceOnUse" x="43" y="6" width="9" height="12">
<path d="M43 6.99483C43 6.85397 43.0235 6.72484 43.0704 6.60746C43.1233 6.48421 43.1907 6.37856 43.2729 6.29052C43.361 6.19662 43.4637 6.12619 43.581 6.07923C43.6984 6.02641 43.8246 6 43.9596 6C44.1005 6 44.2267 6.02641 44.3382 6.07923C44.4556 6.12619 44.5553 6.19662 44.6375 6.29052C44.7255 6.37856 44.793 6.48421 44.84 6.60746C44.8869 6.72484 44.9104 6.85397 44.9104 6.99483V9.74161C45.245 9.52445 45.603 9.35717 45.9845 9.23979C46.3718 9.11654 46.7768 9.05491 47.1994 9.05491C47.7805 9.05491 48.3234 9.16642 48.8281 9.38945C49.3387 9.60661 49.7818 9.90594 50.1575 10.2874C50.539 10.6631 50.8383 11.1062 51.0555 11.6168C51.2785 12.1274 51.39 12.6733 51.39 13.2543C51.39 13.8295 51.2785 14.3724 51.0555 14.883C50.8383 15.3936 50.539 15.8397 50.1575 16.2212C49.7818 16.6027 49.3387 16.9049 48.8281 17.128C48.3234 17.3451 47.7805 17.4537 47.1994 17.4537C46.6242 17.4537 46.0813 17.3451 45.5707 17.128C45.0601 16.9049 44.614 16.6027 44.2325 16.2212C43.851 15.8397 43.5488 15.3936 43.3257 14.883C43.1086 14.3724 43 13.8295 43 13.2543V6.99483ZM44.9104 13.2543C44.9104 13.5654 44.9691 13.8618 45.0865 14.1435C45.2097 14.4193 45.3741 14.6629 45.5795 14.8742C45.7908 15.0796 46.0344 15.244 46.3102 15.3672C46.5861 15.4846 46.8825 15.5433 47.1994 15.5433C47.5163 15.5433 47.8127 15.4846 48.0886 15.3672C48.3644 15.244 48.6051 15.0796 48.8105 14.8742C49.0218 14.6629 49.1861 14.4193 49.3035 14.1435C49.4209 13.8618 49.4796 13.5654 49.4796 13.2543C49.4796 12.9374 49.4209 12.641 49.3035 12.3651C49.1861 12.0834 49.0218 11.8398 48.8105 11.6344C48.6051 11.429 48.3644 11.2676 48.0886 11.1502C47.8127 11.027 47.5163 10.9653 47.1994 10.9653C46.8825 10.9653 46.5861 11.027 46.3102 11.1502C46.0344 11.2676 45.7908 11.429 45.5795 11.6344C45.3741 11.8398 45.2097 12.0834 45.0865 12.3651C44.9691 12.641 44.9104 12.9374 44.9104 13.2543Z" fill="black"/>
</mask>
<g mask="url(#mask0_9440_81148)">
<rect x="42.5332" y="8.56787" width="9.25953" height="9.33734" fill="white"/>
<path d="M43.6967 13.1014C43.6967 11.1031 45.3166 9.48315 47.3149 9.48315H51.9446V16.7196H47.3149C45.3166 16.7196 43.6967 15.0997 43.6967 13.1014Z" fill="white"/>
<ellipse cx="47.1628" cy="13.1976" rx="2.21762" ry="2.21762" fill="white"/>
<path d="M42.5726 8.56782L51.7543 -0.613892V8.56782H42.5726Z" fill="white"/>
<path d="M51.7927 -0.613845L42.611 8.56787L42.611 -0.613846L51.7927 -0.613845Z" fill="white"/>
<path d="M48.3502 12.9662L39.1685 22.1479L39.1685 12.9662L48.3502 12.9662Z" fill="white"/>
<circle cx="47.1629" cy="13.1976" r="0.894828" fill="white"/>
<path d="M47.124 10.9799C47.4152 10.9799 47.7036 11.0373 47.9727 11.1487C48.2417 11.2602 48.4862 11.4235 48.6921 11.6295C48.898 11.8354 49.0614 12.0798 49.1728 12.3489C49.2843 12.618 49.3416 12.9063 49.3416 13.1975C49.3416 13.4888 49.2843 13.7771 49.1728 14.0462C49.0614 14.3152 48.898 14.5597 48.6921 14.7656C48.4862 14.9716 48.2417 15.1349 47.9727 15.2464C47.7036 15.3578 47.4152 15.4152 47.124 15.4152L47.124 13.1975L47.124 10.9799Z" fill="white"/>
</g>
<defs>
<clipPath id="clip0_9440_81148">
<rect width="19.8974" height="17.9077" fill="white" transform="translate(14.9231 15.9178)"/>
</clipPath>
</defs>
</svg>
