<svg width="120" height="34" viewBox="0 0 120 34" fill="none" xmlns="http://www.w3.org/2000/svg">
<path d="M72.7809 8.71191C73.1179 8.71191 73.4549 8.78774 73.7919 8.93939C74.1457 9.0742 74.449 9.25955 74.7018 9.49545C74.9883 9.76506 75.1989 10.0684 75.3337 10.4054C75.4685 10.7424 75.5359 11.0878 75.5359 11.4417C75.5527 11.7955 75.4938 12.141 75.359 12.478C75.2242 12.815 75.0304 13.1099 74.7776 13.3626L61.508 26.7333H73.2864C73.6739 26.7333 74.0362 26.8092 74.3732 26.9608C74.7102 27.1125 74.9967 27.3147 75.2326 27.5674C75.4853 27.8202 75.6791 28.1151 75.8139 28.4521C75.9656 28.7722 76.0414 29.1177 76.0414 29.4884C76.0414 29.8591 75.9656 30.2129 75.8139 30.55C75.6791 30.887 75.4853 31.1818 75.2326 31.4346C74.9967 31.6705 74.7102 31.8643 74.3732 32.0159C74.0362 32.1507 73.6739 32.2181 73.2864 32.2181H55.3408C54.869 32.2181 54.4393 32.117 54.0517 31.9148C53.6642 31.6958 53.3524 31.4093 53.1165 31.0555C52.6784 30.4657 52.4846 29.817 52.5352 29.1092C52.5857 28.5363 52.8216 28.0392 53.2429 27.618L66.4873 14.1967H55.543C55.1723 14.1967 54.8184 14.1209 54.4814 13.9692C54.1444 13.8176 53.8579 13.6154 53.622 13.3626C53.3861 13.1099 53.1924 12.815 53.0407 12.478C52.9059 12.1241 52.8385 11.7618 52.8385 11.3911C52.8385 11.0204 52.9059 10.675 53.0407 10.3548C53.1924 10.0178 53.3861 9.73136 53.622 9.49545C53.8579 9.25955 54.1444 9.0742 54.4814 8.93939C54.8184 8.78774 55.1723 8.71191 55.543 8.71191H72.7809Z" fill="white"/>
<path d="M109.965 29.5137C109.965 29.8844 109.898 30.2382 109.763 30.5752C109.628 30.9122 109.434 31.1987 109.182 31.4346C108.946 31.6705 108.668 31.8643 108.348 32.0159C108.027 32.1507 107.682 32.2181 107.311 32.2181C106.924 32.2181 106.553 32.1507 106.199 32.0159C105.862 31.8643 105.567 31.6705 105.315 31.4346C105.062 31.1987 104.86 30.9122 104.708 30.5752C104.556 30.2382 104.48 29.8844 104.48 29.5137V21.3497C104.48 19.6141 104.809 17.9796 105.466 16.4462C106.14 14.9128 107.05 13.5732 108.196 12.4274C109.342 11.2816 110.681 10.3801 112.215 9.72293C113.748 9.04892 115.374 8.71191 117.093 8.71191H117.144C118.053 8.71191 118.753 8.97309 119.241 9.49545C119.747 10.001 120 10.6497 120 11.4417C120 11.8292 119.924 12.1915 119.772 12.5285C119.62 12.8655 119.41 13.1604 119.14 13.4132C118.888 13.6491 118.584 13.8428 118.23 13.9945C117.893 14.1293 117.531 14.1967 117.144 14.1967H117.093C116.132 14.1967 115.214 14.3821 114.338 14.7528C113.479 15.1235 112.729 15.629 112.088 16.2693C111.448 16.9096 110.934 17.6594 110.547 18.5188C110.159 19.3782 109.965 20.2965 109.965 21.2738V29.5137Z" fill="white"/>
<path d="M26.2617 20.7683C26.2617 19.1001 26.5819 17.5415 27.2222 16.0924C27.8625 14.6264 28.7303 13.3458 29.8256 12.2505C30.9208 11.1552 32.193 10.2958 33.6422 9.67238C35.1081 9.03207 36.6668 8.71191 38.3181 8.71191C39.9863 8.71191 41.5534 9.03207 43.0194 9.67238C44.4854 10.2958 45.7576 11.1552 46.836 12.2505C47.9312 13.3458 48.7906 14.6264 49.4141 16.0924C50.0375 17.5415 50.3493 19.1001 50.3493 20.7683V29.7159C50.3493 30.1034 50.2735 30.4657 50.1218 30.8027C49.987 31.1397 49.7932 31.4346 49.5405 31.6873C49.2877 31.9401 48.9844 32.1423 48.6305 32.294C48.2935 32.4456 47.9312 32.5214 47.5437 32.5214C46.8865 32.5214 46.3305 32.3277 45.8755 31.9401C45.4206 31.5525 45.1172 31.0639 44.9656 30.4741C44.0051 31.1987 42.9604 31.7716 41.8314 32.1929C40.7193 32.6141 39.5482 32.8247 38.3181 32.8247C36.6668 32.8247 35.1081 32.513 33.6422 31.8896C32.193 31.2492 30.9208 30.3814 29.8256 29.2862C28.7303 28.1909 27.8625 26.9103 27.2222 25.4443C26.5819 23.9783 26.2617 22.4197 26.2617 20.7683ZM31.7465 20.7683C31.7465 21.6614 31.915 22.5123 32.252 23.3212C32.6059 24.1131 33.0777 24.8124 33.6674 25.419C34.2741 26.0088 34.9733 26.4806 35.7653 26.8344C36.5573 27.1715 37.4082 27.34 38.3181 27.34C39.2281 27.34 40.079 27.1715 40.871 26.8344C41.6798 26.4806 42.3791 26.0088 42.9688 25.419C43.5586 24.8124 44.022 24.1131 44.359 23.3212C44.696 22.5123 44.8645 21.6614 44.8645 20.7683C44.8645 19.8584 44.696 19.0075 44.359 18.2155C44.022 17.4067 43.5586 16.7074 42.9688 16.1176C42.3791 15.5279 41.6798 15.0645 40.871 14.7275C40.079 14.3736 39.2281 14.1967 38.3181 14.1967C37.4251 14.1967 36.5741 14.3736 35.7653 14.7275C34.9733 15.0645 34.2741 15.5279 33.6674 16.1176C33.0777 16.7074 32.6059 17.4067 32.252 18.2155C31.915 19.0075 31.7465 19.8584 31.7465 20.7683Z" fill="white"/>
<path d="M78.2188 20.7683C78.2188 19.1001 78.5389 17.5415 79.1792 16.0924C79.8195 14.6264 80.6873 13.3458 81.7826 12.2505C82.8779 11.1552 84.1501 10.2958 85.5992 9.67238C87.0652 9.03207 88.6238 8.71191 90.2752 8.71191C91.9433 8.71191 93.5104 9.03207 94.9764 9.67238C96.4424 10.2958 97.7146 11.1552 98.793 12.2505C99.8883 13.3458 100.748 14.6264 101.371 16.0924C101.995 17.5415 102.306 19.1001 102.306 20.7683V29.7159C102.306 30.1034 102.23 30.4657 102.079 30.8027C101.944 31.1397 101.75 31.4346 101.497 31.6873C101.245 31.9401 100.941 32.1423 100.588 32.294C100.251 32.4456 99.8883 32.5214 99.5007 32.5214C98.8436 32.5214 98.2875 32.3277 97.8325 31.9401C97.3776 31.5525 97.0743 31.0639 96.9226 30.4741C95.9622 31.1987 94.9174 31.7716 93.7885 32.1929C92.6763 32.6141 91.5052 32.8247 90.2752 32.8247C88.6238 32.8247 87.0652 32.513 85.5992 31.8896C84.1501 31.2492 82.8779 30.3814 81.7826 29.2862C80.6873 28.1909 79.8195 26.9103 79.1792 25.4443C78.5389 23.9783 78.2188 22.4197 78.2188 20.7683ZM83.7035 20.7683C83.7035 21.6614 83.872 22.5123 84.209 23.3212C84.5629 24.1131 85.0347 24.8124 85.6245 25.419C86.2311 26.0088 86.9304 26.4806 87.7223 26.8344C88.5143 27.1715 89.3652 27.34 90.2752 27.34C91.1851 27.34 92.036 27.1715 92.828 26.8344C93.6368 26.4806 94.3361 26.0088 94.9259 25.419C95.5156 24.8124 95.979 24.1131 96.316 23.3212C96.653 22.5123 96.8215 21.6614 96.8215 20.7683C96.8215 19.8584 96.653 19.0075 96.316 18.2155C95.979 17.4067 95.5156 16.7074 94.9259 16.1176C94.3361 15.5279 93.6368 15.0645 92.828 14.7275C92.036 14.3736 91.1851 14.1967 90.2752 14.1967C89.3821 14.1967 88.5312 14.3736 87.7223 14.7275C86.9304 15.0645 86.2311 15.5279 85.6245 16.1176C85.0347 16.7074 84.5629 17.4067 84.209 18.2155C83.872 19.0075 83.7035 19.8584 83.7035 20.7683Z" fill="white"/>
<mask id="mask0_6837_26654" style="mask-type:alpha" maskUnits="userSpaceOnUse" x="0" y="0" width="25" height="33">
<path d="M0 2.85613C0 2.45172 0.0674015 2.08102 0.202204 1.74401C0.353857 1.39015 0.547636 1.08685 0.78354 0.834091C1.0363 0.564486 1.33118 0.362281 1.66818 0.227478C2.00519 0.0758262 2.36747 0 2.75503 0C3.15944 0 3.52172 0.0758262 3.84188 0.227478C4.17888 0.362281 4.46534 0.564486 4.70124 0.834091C4.954 1.08685 5.14778 1.39015 5.28258 1.74401C5.41738 2.08102 5.48478 2.45172 5.48478 2.85613V10.7421C6.44525 10.1186 7.47312 9.63839 8.5684 9.30138C9.68052 8.94753 10.8432 8.7706 12.0564 8.7706C13.7246 8.7706 15.2833 9.09075 16.7324 9.73107C18.1984 10.3545 19.4706 11.2139 20.549 12.3092C21.6443 13.3876 22.5036 14.6598 23.1271 16.1258C23.7674 17.5917 24.0876 19.1588 24.0876 20.827C24.0876 22.4783 23.7674 24.037 23.1271 25.503C22.5036 26.969 21.6443 28.2496 20.549 29.3449C19.4706 30.4401 18.1984 31.3079 16.7324 31.9482C15.2833 32.5717 13.7246 32.8834 12.0564 32.8834C10.4051 32.8834 8.84643 32.5717 7.38045 31.9482C5.91447 31.3079 4.63384 30.4401 3.53857 29.3449C2.4433 28.2496 1.57551 26.969 0.935194 25.503C0.311732 24.037 0 22.4783 0 20.827V2.85613ZM5.48478 20.827C5.48478 21.7201 5.65329 22.571 5.99029 23.3798C6.34415 24.1718 6.81596 24.8711 7.40572 25.4777C8.01233 26.0675 8.71162 26.5393 9.50359 26.8931C10.2956 27.2301 11.1465 27.3986 12.0564 27.3986C12.9663 27.3986 13.8173 27.2301 14.6092 26.8931C15.4012 26.5393 16.0921 26.0675 16.6818 25.4777C17.2884 24.8711 17.7603 24.1718 18.0973 23.3798C18.4343 22.571 18.6028 21.7201 18.6028 20.827C18.6028 19.9171 18.4343 19.0662 18.0973 18.2742C17.7603 17.4654 17.2884 16.7661 16.6818 16.1763C16.0921 15.5866 15.4012 15.1232 14.6092 14.7862C13.8173 14.4323 12.9663 14.2554 12.0564 14.2554C11.1465 14.2554 10.2956 14.4323 9.50359 14.7862C8.71162 15.1232 8.01233 15.5866 7.40572 16.1763C6.81596 16.7661 6.34415 17.4654 5.99029 18.2742C5.65329 19.0662 5.48478 19.9171 5.48478 20.827Z" fill="black"/>
</mask>
<g mask="url(#mask0_6837_26654)">
<rect x="-1.33984" y="7.37207" width="26.584" height="26.8074" fill="white"/>
<path d="M2 20.3878C2 14.6508 6.6508 10 12.3878 10H25.6798V30.7757H12.3879C6.6508 30.7757 2 26.1249 2 20.3878Z" fill="white"/>
<circle cx="11.9527" cy="20.6646" r="6.36675" fill="white"/>
<path d="M-1.22656 7.37228L25.134 -18.9883V7.37228H-1.22656Z" fill="white"/>
<path d="M25.2422 -18.9885L-1.11837 7.37207L-1.11837 -18.9885L25.2422 -18.9885Z" fill="white"/>
<path d="M15.3594 20.0008L-11.0012 46.3613L-11.0012 20.0008L15.3594 20.0008Z" fill="white"/>
<circle cx="11.9518" cy="20.6647" r="2.56904" fill="white"/>
<path d="M11.8398 14.2978C12.6759 14.2978 13.5038 14.4624 14.2763 14.7824C15.0487 15.1024 15.7506 15.5713 16.3418 16.1625C16.933 16.7537 17.402 17.4556 17.7219 18.2281C18.0419 19.0005 18.2066 19.8284 18.2066 20.6645C18.2066 21.5006 18.0419 22.3285 17.7219 23.101C17.402 23.8734 16.933 24.5753 16.3418 25.1665C15.7506 25.7577 15.0487 26.2267 14.2763 26.5466C13.5038 26.8666 12.6759 27.0313 11.8398 27.0312L11.8398 20.6645L11.8398 14.2978Z" fill="white"/>
</g>
</svg>
