<?xml version="1.0" encoding="utf-8"?>
<!-- Generator: Adobe Illustrator 21.1.0, SVG Export Plug-In . SVG Version: 6.00 Build 0)  -->
<svg version="1.1" id="Layer_1" xmlns="http://www.w3.org/2000/svg" xmlns:xlink="http://www.w3.org/1999/xlink" x="0px" y="0px"
	 viewBox="0 0 250 250" style="enable-background:new 0 0 250 250;" xml:space="preserve">
<style type="text/css">
	.st0{fill:#00BFD6;}
	.st1{fill:#007B8A;}
	.st2{fill:#085156;}
</style>
<rect x="111.7" y="37.1" class="st0" width="11.2" height="5"/>
<g>
	<path class="st1" d="M161.4,189.5h40.9c0.5,0,1.1-0.7,1.1-1.5v-31.5c0-0.7-0.5-1.5-1.1-1.5h-41.1c-0.5,0-1.1,0.7-1.1,1.5v31.6
		C160.3,189,160.7,189.5,161.4,189.5z"/>
	<path class="st2" d="M220.6,14.7H71.2c-1.9,0-3.4,1.5-3.4,3.4v21.4H29.4c-1.9,0-3.4,1.5-3.4,3.4v87.6v13.8v87.6
		c0,1.9,1.5,3.4,3.4,3.4h149.4c1.9,0,3.4-1.5,3.4-3.4v-21.4h38.4c1.9,0,3.4-1.5,3.4-3.4v-87.6v-13.8V18.1
		C224,16.2,222.5,14.7,220.6,14.7z M173.9,226.4l-139.6,0.3v-82.3v-13.8V48.2h33.5v57.5v13.8v87.6c0,1.9,1.5,3.4,3.4,3.4h102.8
		V226.4z M215.7,105.7v13.8v82.3H76.1v-82.3v-13.8V23.4h139.6V105.7z"/>
	<path class="st0" d="M201.8,127.5H89.8c-1.1,0-2.1,0.7-2.1,1.4v7.6c0,0.7,1.1,1.4,2.1,1.4h111.9c1.1,0,2.1-0.7,2.1-1.4v-7.6
		C203.9,128,203.2,127.5,201.8,127.5z"/>
	<path class="st1" d="M201.8,104.2H89.8c-1.1,0-2.1,0.7-2.1,1.4v7.6c0,0.7,1.1,1.4,2.1,1.4h111.9c1.1,0,2.1-0.7,2.1-1.4v-7.6
		C203.9,104.7,203.2,104.2,201.8,104.2z"/>
	<path class="st1" d="M201.8,81.2H89.8c-1.1,0-2.1,0.7-2.1,1.4v7.6c0,0.7,1.1,1.4,2.1,1.4h111.9c1.1,0,2.1-0.7,2.1-1.4v-7.6
		C203.9,81.7,203.2,81.2,201.8,81.2z"/>
	<path class="st0" d="M201.8,58H89.8c-1.1,0-2.1,0.7-2.1,1.4V67c0,0.7,1.1,1.4,2.1,1.4h111.9c1.1,0,2.1-0.7,2.1-1.4v-7.6
		C203.9,58.5,203.2,58,201.8,58z"/>
	<path class="st0" d="M125,35H89.8c-1.1,0-2.1,0.7-2.1,1.4V44c0,0.7,1.1,1.4,2.1,1.4H125c1.1,0,2.1-0.7,2.1-1.4v-7.6
		C127.1,35.5,126.4,35,125,35z"/>
</g>
</svg>
