<svg width="14" height="14" viewBox="0 0 14 14" fill="none" xmlns="http://www.w3.org/2000/svg">
<path d="M12.1575 2.68926C11.8596 2.39117 11.5059 2.15472 11.1165 1.99339C10.7272 1.83206 10.3098 1.74902 9.88838 1.74902C9.46693 1.74902 9.04961 1.83206 8.66026 1.99339C8.27091 2.15472 7.91716 2.39117 7.61922 2.68926L7.00088 3.30759L6.38255 2.68926C5.78073 2.08743 4.96449 1.74934 4.11338 1.74934C3.26228 1.74934 2.44604 2.08743 1.84422 2.68926C1.2424 3.29108 0.904297 4.10732 0.904297 4.95842C0.904297 5.80952 1.2424 6.62577 1.84422 7.22759L2.46255 7.84592L7.00088 12.3843L11.5392 7.84592L12.1575 7.22759C12.4556 6.92965 12.6921 6.5759 12.8534 6.18655C13.0147 5.7972 13.0978 5.37987 13.0978 4.95842C13.0978 4.53697 13.0147 4.11965 12.8534 3.7303C12.6921 3.34095 12.4556 2.9872 12.1575 2.68926V2.68926Z" stroke="#879AB0" stroke-width="1.5" stroke-linecap="round" stroke-linejoin="round"/>
</svg>
