<svg width="12" height="14" viewBox="0 0 12 14" fill="none" xmlns="http://www.w3.org/2000/svg">
<path fill-rule="evenodd" clip-rule="evenodd" d="M9.39914 0.333008H12V1.66634H10.2531L8.75021 10.1181H8.74327V10.333H1.68701V10.1676L0.49655 3.72698L0.313336 2.99967H8.93042L9.24 1.25869L9.39914 0.333008ZM1.69414 4.33301H8.69333L7.86351 8.99968H2.55667L1.69414 4.33301Z" fill="#879AB0"/>
<path d="M7.1149 13.6663C6.51535 13.6663 6.02932 13.0694 6.02932 12.333C6.02932 11.5966 6.51535 10.9997 7.1149 10.9997C7.71445 10.9997 8.20048 11.5966 8.20048 12.333C8.20048 13.0694 7.71445 13.6663 7.1149 13.6663Z" fill="#879AB0"/>
<path d="M2.2298 12.333C2.2298 13.0694 2.71583 13.6663 3.31537 13.6663C3.91492 13.6663 4.40095 13.0694 4.40095 12.333C4.40095 11.5966 3.91492 10.9997 3.31537 10.9997C2.71583 10.9997 2.2298 11.5966 2.2298 12.333Z" fill="#879AB0"/>
</svg>
