<svg width="116" height="116" viewBox="0 0 116 116" fill="none" xmlns="http://www.w3.org/2000/svg">
<g clip-path="url(#clip0)">
<path d="M90.6795 78.6869L71.7321 89.9246L14.8801 105.902L12.4749 103.494L10.084 101.096L25.9375 44.475L38.8463 26.7644L63.9318 51.894L90.6795 78.6869Z" fill="#CE4963"/>
<path d="M90.6792 78.6866L71.7318 89.9243L14.8798 105.902L12.4746 103.493L63.9315 51.8938L90.6792 78.6866Z" fill="#AD1E55"/>
<path d="M100.288 81.8986L71.7321 89.9246L71.7319 79.5636H54.2227L54.0594 61.8548H53.9984L36.7133 62.0186L36.7117 44.475H25.9375L34.0421 15.5237L67.1345 48.6823L100.288 81.8986Z" fill="#FF6969"/>
<path d="M17.3957 113.014C13.4227 116.995 6.95955 116.995 2.98655 113.014L2.98337 113.011C1.06009 111.083 0 108.52 0 105.793C0 103.063 1.06009 100.497 2.98655 98.5685C6.95796 94.5894 13.4164 94.5878 17.3909 98.5638L17.3989 98.5717C19.3222 100.5 20.3822 103.063 20.3822 105.793C20.3822 108.52 19.3222 111.086 17.3957 113.014Z" fill="#FDE56F"/>
<path d="M62.9121 0L56.342 1.73502C56.3708 1.84467 59.1169 12.8024 50.0103 21.4063L54.6693 26.3649C66.6825 15.0145 63.0716 0.607641 62.9121 0Z" fill="#00874A"/>
<path d="M74.7065 8.97021H81.5005V15.7829H74.7065V8.97021Z" fill="#FDE56F"/>
<path d="M102.955 30.2886H109.748V37.1013H102.955V30.2886Z" fill="#FFD371"/>
<path d="M99.5576 62.386H106.352V69.199H99.5576V62.386Z" fill="#FFD371"/>
<path d="M116 47.3445C105.344 43.6975 96.774 45.6136 91.4618 47.8633C85.6609 50.3202 82.3565 53.72 82.2188 53.8634L87.1005 58.6015C87.1265 58.575 89.7597 55.9217 94.3707 54.029C100.443 51.5366 106.982 51.4571 113.806 53.7925L116 47.3445Z" fill="#006635"/>
<path d="M102.221 0.0681152C99.6669 11.3745 93.4371 20.8151 83.7051 28.1279C76.3194 33.6775 69.578 35.8548 69.5107 35.8761L70.53 39.1257L71.5432 42.3771C71.8552 42.2794 79.2779 39.9123 87.5653 33.7401C98.5887 25.5297 105.948 14.4068 108.847 1.5734L102.221 0.0681152Z" fill="#FF6969"/>
<path d="M20.3823 105.793C20.3823 108.52 19.3222 111.086 17.3957 113.015C13.4227 116.996 6.95957 116.996 2.98657 113.015L2.9834 113.011L17.391 98.5637L17.3989 98.5717C19.3222 100.5 20.3823 103.063 20.3823 105.793Z" fill="#FFD371"/>
<path d="M100.287 81.8985L71.7318 89.9244L71.7315 79.5635H54.2223L54.059 61.8547H53.998L67.1341 48.6821L100.287 81.8985Z" fill="#CE4963"/>
</g>
<defs>
<clipPath id="clip0">
<rect width="116" height="116" fill="white"/>
</clipPath>
</defs>
</svg>
