<svg width="18" height="32" viewBox="0 0 18 32" fill="none" xmlns="http://www.w3.org/2000/svg">
<path d="M5.04372 28C7.27568 28 9.08744 26.2077 9.08744 23.9997V19.9994H5.04372C2.81177 19.9994 1 21.7917 1 23.9997C1 26.2077 2.81177 28 5.04372 28Z" fill="#0ACF83"/>
<path d="M1 16C1 13.792 2.81177 11.9997 5.04372 11.9997H9.08744V19.9993H5.04372C2.81177 20.0003 1 18.208 1 16Z" fill="#A259FF"/>
<path d="M1 8.00032C1 5.79232 2.81177 4 5.04372 4H9.08744V11.9997H5.04372C2.81177 11.9997 1 10.2083 1 8.00032Z" fill="#F24E1E"/>
<path d="M9.08643 4H13.1301C15.3621 4 17.1739 5.79232 17.1739 8.00032C17.1739 10.2083 15.3621 11.9997 13.1301 11.9997H9.08643V4Z" fill="#FF7262"/>
<path d="M17.1739 16C17.1739 18.208 15.3621 20.0003 13.1301 20.0003C10.8982 20.0003 9.08643 18.208 9.08643 16C9.08643 13.792 10.8982 11.9997 13.1301 11.9997C15.3621 11.9997 17.1739 13.792 17.1739 16Z" fill="#1ABCFE"/>
</svg>
