<svg width="64" height="64" viewBox="0 0 64 64" fill="none" xmlns="http://www.w3.org/2000/svg">
<path d="M60.9032 0H3.09677C1.38942 0 0 1.38937 0 3.09667V48.5146C0 50.2219 1.38942 51.6112 3.09677 51.6112H30.9677V52.179C30.9677 53.2876 31.2279 54.3993 31.7213 55.3923L34.0645 60.1106V63.9515L52.6452 64V60.2128L54.2968 58.011C55.2289 56.7682 55.7419 55.2292 55.7419 53.6757V51.6112H60.9032C62.6106 51.6112 64 50.2219 64 48.5146V3.09667C64 1.38937 62.6106 0 60.9032 0ZM3.09677 2.06445H60.9032C61.472 2.06445 61.9355 2.52792 61.9355 3.09667V12.3867H2.06452V3.09667C2.06452 2.52792 2.528 2.06445 3.09677 2.06445ZM40.2581 24.7734C38.5507 24.7734 37.1613 26.1628 37.1613 27.8701V28.9023H24.7742V18.58H57.8064V28.9023H43.3548V27.8701C43.3548 26.1628 41.9654 24.7734 40.2581 24.7734ZM37.1613 41.5543C35.777 40.0978 33.8126 39.1812 31.6067 39.1812C30.1172 39.1812 28.9043 40.393 28.9032 41.8836C28.9032 42.3006 29.0023 42.7186 29.1881 43.0933L30.3515 45.4179H24.7742V35.0956H37.1613V41.5543ZM53.6774 53.6757C53.6774 54.7853 53.311 55.8857 52.6452 56.7724L50.5806 59.5253V61.9314L36.129 61.8922V59.6265L33.5701 54.4736C33.2181 53.7645 33.0323 52.9717 33.0323 52.179V47.9386C33.0323 46.7763 32.7577 45.613 32.2384 44.5746L31.0359 42.1695C30.9915 42.0817 30.9677 41.9816 30.9677 41.8836C30.9677 41.5316 31.2547 41.2456 31.7048 41.2456C34.7138 41.2456 37.1613 43.6941 37.1613 46.703V48.4712V50.5357H39.2258V48.4712V46.703V27.8701C39.2258 27.3013 39.6893 26.8378 40.2581 26.8378C40.8268 26.8378 41.2903 27.3013 41.2903 27.8701V40.2568V44.3857H43.3548V40.2568C43.3548 39.688 43.8183 39.2245 44.3871 39.2245C44.9559 39.2245 45.4194 39.688 45.4194 40.2568V44.3857H47.4839V40.2568C47.4839 39.688 47.9474 39.2245 48.5161 39.2245C49.0849 39.2245 49.5484 39.688 49.5484 40.2568V42.3212V44.3857H51.6129V42.3212C51.6129 41.7525 52.0764 41.289 52.6452 41.289C53.2139 41.289 53.6774 41.7525 53.6774 42.3212V53.6757ZM52.6452 39.2245C52.2374 39.2245 51.8503 39.3082 51.4932 39.4516C51.137 38.1355 49.9437 37.1601 48.5161 37.1601C47.7203 37.1601 47.0008 37.4708 46.4516 37.9652C45.9025 37.4698 45.183 37.1601 44.3871 37.1601C44.0237 37.1601 43.679 37.2344 43.3548 37.35V35.0956H57.8064V45.4179H55.7419V42.3212C55.7419 40.6139 54.3525 39.2245 52.6452 39.2245ZM60.9032 49.5468H55.7419V47.4823H59.871V33.0312H43.3548V30.9667H59.871V16.5156H22.7097V30.9667H37.1613V33.0312H22.7097V47.4823H30.9409C30.9543 47.6341 30.9677 47.7868 30.9677 47.9386V49.5468H3.09677C2.528 49.5468 2.06452 49.0833 2.06452 48.5146V14.4511H61.9355V48.5146C61.9355 49.0833 61.472 49.5468 60.9032 49.5468Z" fill="#0F3460"/>
<path d="M10.3225 4.12891H4.12891V10.3223H10.3225V4.12891ZM8.25794 8.25781H6.19342V6.19336H8.25794V8.25781Z" fill="#0F3460"/>
<path d="M18.5812 4.12891H12.3877V10.3223H18.5812V4.12891ZM16.5167 8.25781H14.4522V6.19336H16.5167V8.25781Z" fill="#0F3460"/>
<path d="M26.8386 4.12891H20.645V10.3223H26.8386V4.12891ZM24.7741 8.25781H22.7095V6.19336H24.7741V8.25781Z" fill="#0F3460"/>
<path d="M26.8389 20.6445H28.9034V22.709H26.8389V20.6445Z" fill="#0F3460"/>
<path d="M30.9678 20.6445H55.742V22.709H30.9678V20.6445Z" fill="#0F3460"/>
<path d="M45.4194 24.7733H55.742V26.8378H45.4194V24.7733Z" fill="#0F3460"/>
<path d="M26.8389 24.7733H35.0969V26.8378H26.8389V24.7733Z" fill="#0F3460"/>
<path d="M6.19385 30.9667H20.6455V16.5155H6.19385V30.9667ZM8.25836 18.58H18.5809V28.9022H8.25836V18.58Z" fill="#0F3460"/>
<path d="M12.3871 24.3461L11.0524 23.0115L9.59277 24.471L12.3871 27.2653L18.2782 21.3744L16.8186 19.9148L12.3871 24.3461Z" fill="#D23F57"/>
<path d="M6.19385 47.4824H20.6455V33.0312H6.19385V47.4824ZM8.25836 35.0957H18.5809V45.4179H8.25836V35.0957Z" fill="#0F3460"/>
<path d="M12.3871 40.8618L11.0524 39.5271L9.59277 40.9867L12.3871 43.7809L18.2782 37.89L16.8186 36.4304L12.3871 40.8618Z" fill="#D23F57"/>
</svg>
