<svg width="42" height="41" viewBox="0 0 42 41" fill="none" xmlns="http://www.w3.org/2000/svg">
<path d="M41.6056 22.2221C41.2314 18.4574 39.5495 14.9083 36.8697 12.2284C34.5795 9.9383 31.7764 8.46665 28.8269 7.81228V5.74358C30.0316 5.44388 30.927 4.35343 30.927 3.05732C30.927 1.53087 29.6852 0.289062 28.1588 0.289062H22.2966C20.7701 0.289062 19.5283 1.53087 19.5283 3.05732C19.5283 4.35335 20.4238 5.4438 21.6284 5.74358V7.81806C18.6879 8.4752 15.8941 9.94482 13.6104 12.2285C13.1107 12.7282 12.6499 13.2525 12.228 13.7973C12.2076 13.7958 12.1872 13.7942 12.1663 13.7942H6.3643C5.9147 13.7942 5.55011 14.1588 5.55011 14.6084C5.55011 15.0581 5.9147 15.4226 6.3643 15.4226H11.1202C10.5232 16.422 10.0418 17.4716 9.67546 18.5521H0.814193C0.364595 18.5521 0 18.9166 0 19.3662C0 19.8159 0.364595 20.1804 0.814193 20.1804H9.21536C8.98071 21.2105 8.84604 22.2587 8.81127 23.3099H5.21083C4.76124 23.3099 4.39664 23.6745 4.39664 24.1241C4.39664 24.5738 4.76124 24.9383 5.21083 24.9383H8.83725C8.90596 25.9922 9.0754 27.0406 9.34563 28.0678H4.07096C3.62137 28.0678 3.25677 28.4324 3.25677 28.882C3.25677 29.3317 3.62137 29.6962 4.07096 29.6962H9.86524C10.664 31.8091 11.9122 33.7895 13.6104 35.4877C16.2929 38.1702 19.8457 39.8525 23.6143 40.2248C24.1521 40.2779 24.6904 40.3042 25.2279 40.3042C28.4051 40.3042 31.5418 39.3847 34.2034 37.6515C34.5802 37.4061 34.6868 36.9017 34.4414 36.5249C34.196 36.1481 33.6916 36.0415 33.3148 36.2869C27.4887 40.0808 19.686 39.2605 14.7619 34.3363C8.98421 28.5586 8.98421 19.1577 14.7619 13.38C20.5395 7.60238 29.9404 7.60238 35.7181 13.38C40.6358 18.2977 41.4606 26.0937 37.6792 31.9169C37.4343 32.2941 37.5415 32.7984 37.9186 33.0432C38.2959 33.2881 38.8 33.1809 39.0448 32.8038C41.0652 29.6923 41.9746 25.9344 41.6056 22.2221ZM21.1567 3.0574C21.1567 2.42884 21.668 1.91753 22.2966 1.91753H28.1588C28.7873 1.91753 29.2986 2.42884 29.2986 3.0574C29.2986 3.68595 28.7873 4.19727 28.1588 4.19727H28.0127H22.4426H22.2966C21.668 4.19727 21.1567 3.68587 21.1567 3.0574ZM23.2568 7.53814V5.82565H27.1985V7.53521C25.8896 7.37954 24.5654 7.38052 23.2568 7.53814Z" fill="#2B3445"/>
<path d="M36.2942 34.0977C36.0793 34.0977 35.87 34.1848 35.7187 34.3362C35.5664 34.4876 35.48 34.6977 35.48 34.9118C35.48 35.126 35.5664 35.336 35.7187 35.4875C35.87 35.6397 36.0794 35.726 36.2942 35.726C36.5084 35.726 36.7176 35.6397 36.8698 35.4875C37.0213 35.336 37.1084 35.126 37.1084 34.9118C37.1084 34.6977 37.0214 34.4876 36.8698 34.3362C36.7176 34.1848 36.5083 34.0977 36.2942 34.0977Z" fill="#2B3445"/>
<path d="M25.24 11.2266C18.2756 11.2266 12.6096 16.8925 12.6096 23.857C12.6096 30.8216 18.2756 36.4875 25.24 36.4875C32.2045 36.4875 37.8705 30.8216 37.8705 23.857C37.8705 16.8925 32.2045 11.2266 25.24 11.2266ZM25.24 34.8591C19.1734 34.8591 14.2379 29.9236 14.2379 23.857C14.2379 17.7905 19.1734 12.8549 25.24 12.8549C31.3067 12.8549 36.2421 17.7905 36.2421 23.857C36.2421 29.9236 31.3067 34.8591 25.24 34.8591Z" fill="#2B3445"/>
<path d="M30.3903 17.5568L26.3576 21.5894C26.0203 21.4227 25.641 21.3285 25.24 21.3285C24.839 21.3285 24.4597 21.4227 24.1225 21.5894L22.3176 19.7846C21.9996 19.4667 21.4842 19.4667 21.1661 19.7846C20.8482 20.1026 20.8482 20.6181 21.1661 20.936L22.9709 22.7409C22.8041 23.0781 22.71 23.4574 22.71 23.8584C22.71 25.2535 23.8449 26.3884 25.24 26.3884C26.6351 26.3884 27.77 25.2535 27.77 23.8584C27.77 23.4574 27.6758 23.0781 27.5091 22.7409L31.4234 18.8265L31.5417 18.7082C31.8596 18.3903 31.8596 17.8748 31.5417 17.5568C31.2238 17.2389 30.7084 17.2389 30.3903 17.5568ZM25.24 24.7601C24.7429 24.7601 24.3384 24.3557 24.3384 23.8585C24.3384 23.3614 24.7429 22.9569 25.24 22.9569C25.7372 22.9569 26.1417 23.3614 26.1417 23.8585C26.1417 24.3557 25.7372 24.7601 25.24 24.7601Z" fill="#2B3445"/>
<path d="M33.9453 23.0527H33.1909C32.7414 23.0527 32.3768 23.4172 32.3768 23.8669C32.3768 24.3166 32.7414 24.6811 33.1909 24.6811H33.9453C34.3949 24.6811 34.7595 24.3166 34.7595 23.8669C34.7595 23.4172 34.3949 23.0527 33.9453 23.0527Z" fill="#2B3445"/>
<path d="M17.289 23.0332H16.5348C16.0852 23.0332 15.7206 23.3977 15.7206 23.8474C15.7206 24.2971 16.0852 24.6616 16.5348 24.6616H17.289C17.7386 24.6616 18.1032 24.2971 18.1032 23.8474C18.1032 23.3977 17.7386 23.0332 17.289 23.0332Z" fill="#2B3445"/>
<path d="M25.25 16.7205C25.6996 16.7205 26.0642 16.356 26.0642 15.9063V15.1521C26.0642 14.7024 25.6996 14.3379 25.25 14.3379C24.8004 14.3379 24.4358 14.7024 24.4358 15.1521V15.9063C24.4358 16.356 24.8004 16.7205 25.25 16.7205Z" fill="#2B3445"/>
<path d="M25.2301 30.9941C24.7805 30.9941 24.4159 31.3586 24.4159 31.8083V32.5626C24.4159 33.0122 24.7805 33.3768 25.2301 33.3768C25.6797 33.3768 26.0443 33.0122 26.0443 32.5626V31.8083C26.0443 31.3586 25.6797 30.9941 25.2301 30.9941Z" fill="#2B3445"/>
<path d="M0.81418 28.0684C0.60005 28.0684 0.389992 28.1555 0.238555 28.3069C0.0871172 28.4584 0 28.6684 0 28.8825C0 29.0975 0.0870358 29.3067 0.238555 29.4582C0.390074 29.6096 0.60005 29.6967 0.81418 29.6967C1.02831 29.6967 1.23837 29.6096 1.38972 29.4582C1.54116 29.3067 1.62836 29.0967 1.62836 28.8825C1.62836 28.6684 1.54124 28.4584 1.38972 28.3069C1.23837 28.1555 1.02831 28.0684 0.81418 28.0684Z" fill="#2B3445"/>
</svg>
