<svg width="24" height="24" viewBox="0 0 24 24" fill="none" xmlns="http://www.w3.org/2000/svg">
<path d="M19.0781 24H4.92188C2.20795 24 0 21.792 0 19.0781V4.92188C0 2.20795 2.20795 0 4.92188 0H19.0781C21.792 0 24 2.20795 24 4.92188V19.0781C24 21.792 21.792 24 19.0781 24Z" fill="#00C3FF"/>
<path d="M19.0781 0H12V24H19.0781C21.792 24 24 21.792 24 19.0781V4.92188C24 2.20795 21.792 0 19.0781 0Z" fill="#00AAF0"/>
<path d="M7.38978 18.4929C7.17299 18.8684 6.77825 19.0785 6.37292 19.0786C6.17422 19.0786 5.97303 19.0281 5.78895 18.9218C5.22936 18.5988 5.03694 17.8807 5.36 17.3211L5.59049 16.9219H8.29681L7.38978 18.4929Z" fill="white"/>
<path d="M5.17969 15.984C4.53352 15.984 4.00781 15.4583 4.00781 14.8122C4.00781 14.166 4.53352 13.6403 5.17969 13.6403H7.48491L10.6468 8.1637L9.78989 6.67945C9.46683 6.11985 9.6592 5.40173 10.2188 5.07862H10.2188C10.7784 4.75556 11.4966 4.94803 11.8196 5.50757L12 5.81999L12.1804 5.50762C12.5036 4.94798 13.2217 4.7556 13.7812 5.07867C14.0522 5.23518 14.2462 5.48788 14.3272 5.79023C14.4082 6.09257 14.3666 6.40842 14.2101 6.67949L10.1912 13.6403H12.7262L14.0794 15.984H5.17969Z" fill="white"/>
<path d="M18.8203 15.9844H17.8682L18.6399 17.3211C18.963 17.8806 18.7706 18.5988 18.2111 18.9219C18.0304 19.0261 17.83 19.0794 17.6269 19.0794C17.5251 19.0794 17.4228 19.066 17.3217 19.039C17.0194 18.9579 16.7667 18.764 16.6101 18.4929L12.5412 11.4453L13.8943 9.10156L16.5151 13.6407H18.8203C19.4665 13.6407 19.9922 14.1664 19.9922 14.8126C19.9922 15.4587 19.4665 15.9844 18.8203 15.9844Z" fill="#F2F2F2"/>
<path d="M12 13.6406V15.9844H14.0794L12.7262 13.6406H12Z" fill="#F2F2F2"/>
<path d="M14.3272 5.7907C14.2461 5.48836 14.0522 5.23561 13.7812 5.07914C13.2217 4.75608 12.5035 4.9484 12.1804 5.50809L12 5.82047V10.508L14.2101 6.67996C14.3666 6.40889 14.4082 6.09309 14.3272 5.7907Z" fill="#F2F2F2"/>
</svg>
