<svg width="20" height="20" viewBox="0 0 20 20" fill="none" xmlns="http://www.w3.org/2000/svg">
<g clip-path="url(#clip0)">
<path d="M14.0148 16.3684C13.8489 16.3684 13.699 16.2595 13.6452 16.1032C13.5944 15.9555 13.6402 15.787 13.7573 15.6842C13.885 15.5719 14.0766 15.5561 14.221 15.6459C14.3553 15.7294 14.4278 15.8919 14.3993 16.0476C14.3656 16.2307 14.2013 16.3684 14.0148 16.3684Z" fill="#D23F57"/>
<path d="M17.1568 7.19879C16.4244 6.21946 15.4338 5.52806 14.3676 5.25193C13.6585 5.06841 12.8013 5.08384 11.8194 5.29794L11.8193 5.29771C11.8149 5.29876 11.8057 5.30087 11.7908 5.30419C11.7652 5.30935 11.7399 5.31525 11.7151 5.32103C11.6535 5.33544 11.5585 5.35818 11.4567 5.38466C11.3233 5.41923 11.1876 5.44935 11.0523 5.4745C11.0503 5.37337 11.0465 5.26943 11.0405 5.16314C11.1562 3.8753 11.6789 2.76839 12.5989 1.86656C13.3951 1.08606 14.2075 0.757229 14.2149 0.7543C14.4156 0.675394 14.5145 0.448637 14.4356 0.247858C14.3566 0.0470385 14.1299 -0.0517109 13.9292 0.0271558C13.891 0.0421948 12.9842 0.404536 12.0767 1.28457C11.596 1.75078 11.0625 2.41866 10.6939 3.31506C10.4971 2.75722 10.2008 2.22327 9.76152 1.78449C7.99095 0.0158668 4.67269 0.566566 4.47718 0.600902C4.47702 0.600941 4.47687 0.600941 4.47671 0.60098C4.33359 0.623871 4.21335 0.72387 4.17097 0.862463C4.16472 0.882893 4.15972 0.901955 4.15687 0.917853C4.13441 1.04402 3.67957 3.70592 4.8255 5.54845C3.23969 6.30891 1.56372 8.19038 1.56372 11.3173C1.56372 12.4265 1.90169 13.7822 2.51543 15.1346C3.11672 16.4597 3.92882 17.6706 4.80206 18.544C5.7535 19.4965 6.73111 20 7.62911 20C8.15501 20 8.6968 19.9204 9.19617 19.7698C9.68804 19.6211 10.2105 19.6116 10.7072 19.7424C10.7089 19.7428 10.7107 19.7433 10.7124 19.7437C10.7431 19.7519 10.7737 19.7605 10.8044 19.7698C11.3035 19.9204 11.8453 20 12.3712 20C13.2304 20 14.167 19.5367 15.0793 18.6604C16.9619 16.8546 18.4366 13.6292 18.4366 11.3173C18.4364 9.74217 17.994 8.318 17.1568 7.19879ZM9.20926 2.33726C9.95605 3.08327 10.1997 4.22147 10.2557 5.1783C10.2419 5.35396 10.2346 6.12137 10.2346 6.12137L7.27173 3.16167C7.11908 3.00921 6.87173 3.00928 6.71931 3.16198C6.56685 3.3146 6.56697 3.56194 6.71959 3.71444L9.70304 6.69469C8.68274 6.74934 6.91736 6.67184 5.89311 5.64868C4.66288 4.41978 4.79811 2.12667 4.88811 1.3332C5.68229 1.24328 7.97868 1.10797 9.20926 2.33726ZM14.5382 18.0968C13.774 18.8307 13.0245 19.2188 12.371 19.2188C11.927 19.2188 11.4507 19.1488 11.03 19.022C10.991 19.0102 10.9519 18.9991 10.9126 18.9887C10.912 18.9886 10.9114 18.9884 10.9108 18.9882C10.2729 18.8193 9.60176 18.831 8.97016 19.0219C8.5493 19.1488 8.07298 19.2188 7.62892 19.2188C6.94279 19.2188 6.15635 18.7945 5.35448 17.9917C3.66679 16.3036 2.34481 13.3718 2.34481 11.3173C2.34481 8.44636 3.90953 6.78082 5.32104 6.18134C5.32764 6.18805 5.33432 6.19477 5.341 6.20145C6.41174 7.27102 8.05645 7.49086 9.22809 7.49082C9.97125 7.49082 10.525 7.40668 10.6191 7.38613C10.931 7.31785 10.9234 7.17242 10.9428 7.08266C10.943 7.08152 10.9433 7.08039 10.9435 7.07926C10.9438 7.07801 10.9441 7.07672 10.9443 7.07547C10.9446 7.07387 10.945 7.07227 10.9453 7.07063C10.9454 7.06992 10.9455 7.06926 10.9457 7.06856C10.953 7.02778 11.0057 6.722 11.0349 6.26454C11.0578 6.26469 11.081 6.26286 11.1043 6.25887C11.2873 6.22747 11.4717 6.18782 11.6529 6.14091C11.7226 6.12274 11.79 6.10622 11.846 6.0929C13.4575 6.65485 15.0511 8.46726 15.0511 11.3174C15.0511 12.1522 14.8357 13.1478 14.4283 14.1966C14.3502 14.3976 14.4499 14.624 14.6509 14.7021C14.6974 14.7201 14.7453 14.7287 14.7923 14.7287C14.9488 14.7287 15.0964 14.6341 15.1565 14.4794C15.5986 13.3414 15.8323 12.248 15.8323 11.3174C15.8323 8.7212 14.6384 6.87364 13.1972 5.90677C13.5558 5.89931 13.8815 5.93313 14.1718 6.00825C15.8496 6.44274 17.6553 8.28945 17.6553 11.3173C17.6552 13.4069 16.257 16.4481 14.5382 18.0968Z" fill="#D23F57"/>
</g>
<defs>
<clipPath id="clip0">
<rect width="20" height="20" fill="white"/>
</clipPath>
</defs>
</svg>
