<svg width="22" height="22" viewBox="0 0 22 22" fill="none" xmlns="http://www.w3.org/2000/svg">
<path fill-rule="evenodd" clip-rule="evenodd" d="M3.58333 11C3.58333 10.4477 4.03104 10 4.58333 10H17.4167C17.9689 10 18.4167 10.4477 18.4167 11C18.4167 11.5523 17.9689 12 17.4167 12H4.58333C4.03104 12 3.58333 11.5523 3.58333 11Z" fill="#0F3260"/>
<path fill-rule="evenodd" clip-rule="evenodd" d="M10.2929 3.87615C10.6834 3.48562 11.3166 3.48562 11.7071 3.87615L18.1238 10.2928C18.3113 10.4803 18.4167 10.7347 18.4167 10.9999C18.4167 11.2651 18.3113 11.5195 18.1238 11.707L11.7071 18.1237C11.3166 18.5142 10.6834 18.5142 10.2929 18.1237C9.90237 17.7332 9.90237 17.1 10.2929 16.7095L16.0025 10.9999L10.2929 5.29036C9.90237 4.89983 9.90237 4.26667 10.2929 3.87615Z" fill="#0F3260"/>
</svg>
