<svg width="22" height="22" viewBox="0 0 22 22" fill="none" xmlns="http://www.w3.org/2000/svg">
<path fill-rule="evenodd" clip-rule="evenodd" d="M18.4166 11C18.4166 10.4477 17.9689 10 17.4166 10H4.58329C4.03101 10 3.58329 10.4477 3.58329 11C3.58329 11.5523 4.03101 12 4.58329 12H17.4166C17.9689 12 18.4166 11.5523 18.4166 11Z" fill="#0F3260"/>
<path fill-rule="evenodd" clip-rule="evenodd" d="M11.7071 3.87615C11.3166 3.48562 10.6834 3.48562 10.2929 3.87615L3.87622 10.2928C3.68869 10.4803 3.58333 10.7347 3.58333 10.9999C3.58333 11.2651 3.68869 11.5195 3.87622 11.707L10.2929 18.1237C10.6834 18.5142 11.3166 18.5142 11.7071 18.1237C12.0976 17.7332 12.0976 17.1 11.7071 16.7095L5.99755 10.9999L11.7071 5.29036C12.0976 4.89983 12.0976 4.26667 11.7071 3.87615Z" fill="#0F3260"/>
</svg>
