<svg width="28" height="29" viewBox="0 0 28 29" fill="none" xmlns="http://www.w3.org/2000/svg">
<path d="M15.375 9.00225C15.3753 8.90158 15.3474 8.80283 15.2945 8.7172C15.2416 8.63156 15.1657 8.56247 15.0755 8.51776L14.7905 8.37524C14.6379 8.2991 14.5132 8.17681 14.434 8.02573C14.3548 7.87466 14.3253 7.70249 14.3496 7.53367V7.53367L14.412 7.09675C14.4256 7.00189 14.4186 6.90523 14.3915 6.8133C14.3645 6.72137 14.318 6.63633 14.2552 6.56394C14.1925 6.49154 14.1149 6.43349 14.0277 6.3937C13.9405 6.35391 13.8458 6.33331 13.75 6.33331C13.6542 6.33331 13.5595 6.35391 13.4723 6.3937C13.3851 6.43349 13.3075 6.49154 13.2447 6.56394C13.182 6.63633 13.1355 6.72137 13.1084 6.8133C13.0814 6.90523 13.0744 7.00189 13.088 7.09675L13.1504 7.53367C13.1747 7.70249 13.1451 7.87466 13.066 8.02573C12.9868 8.17681 12.8621 8.2991 12.7095 8.37524L12.4244 8.51776C12.3342 8.56247 12.2584 8.63156 12.2055 8.7172C12.1525 8.80283 12.1247 8.90158 12.125 9.00225V9.58342H15.375V9.00225Z" fill="#0F3460"/>
<path d="M15.9165 10.3959C15.9165 10.3241 15.8879 10.2552 15.8371 10.2045C15.7864 10.1537 15.7175 10.1251 15.6457 10.1251H11.8541C11.7823 10.1251 11.7134 10.1537 11.6627 10.2045C11.6119 10.2552 11.5833 10.3241 11.5833 10.3959V11.4792H15.9165V10.3959Z" fill="#0F3460"/>
<path d="M16.0945 12.0209H11.4055C11.1234 12.25 10.8958 12.5389 10.7392 12.8668C10.5826 13.1947 10.5009 13.5533 10.5 13.9167V20.6875C10.5002 20.9029 10.5859 21.1094 10.7382 21.2617C10.8906 21.414 11.0971 21.4997 11.3125 21.5H16.1875C16.4029 21.4997 16.6094 21.414 16.7617 21.2617C16.914 21.1094 16.9997 20.9029 16.9999 20.6875V13.9167C16.999 13.5533 16.9173 13.1947 16.7607 12.8668C16.6041 12.5389 16.3766 12.25 16.0945 12.0209V12.0209ZM11.5833 16.0833H11.0417V13.9167H11.5833V16.0833ZM11.6685 13.4465L11.1607 13.2576C11.2432 13.0352 11.3666 12.8302 11.5245 12.6532L11.9288 13.0136C11.8158 13.1403 11.7275 13.2872 11.6685 13.4465V13.4465ZM16.1875 20.4166H15.1041V19.875H16.1875V20.4166ZM16.1875 19.3333H14.5625V18.7916H16.1875V19.3333ZM16.1875 18.25H15.1041V17.7083H16.1875V18.25ZM16.1875 17.1667H14.5625V16.625H16.1875V17.1667ZM16.1875 16.0833H15.1041V15.5417H16.1875V16.0833ZM16.1875 15H14.5625V14.4584H16.1875V15ZM16.1875 13.9167H15.1041V13.375H16.1875V13.9167Z" fill="#0F3460"/>
</svg>
