<svg width="24" height="24" viewBox="0 0 24 24" fill="none" xmlns="http://www.w3.org/2000/svg">
<path d="M12 0.75C10.8066 0.75 9.66196 1.22411 8.81805 2.06802C7.97414 2.91193 7.50003 4.05653 7.50003 5.25V6H6.87753C6.24612 5.99934 5.63878 6.24222 5.18194 6.6781C4.72511 7.11398 4.45399 7.70925 4.42503 8.34L3.83253 20.6775C3.81734 21.0093 3.86949 21.3407 3.98582 21.6517C4.10216 21.9628 4.28028 22.2471 4.50944 22.4875C4.7386 22.7278 5.01407 22.9193 5.31923 23.0504C5.62439 23.1814 5.95292 23.2493 6.28503 23.25H17.715C18.0471 23.2493 18.3757 23.1814 18.6808 23.0504C18.986 22.9193 19.2615 22.7278 19.4906 22.4875C19.7198 22.2471 19.8979 21.9628 20.0142 21.6517C20.1306 21.3407 20.1827 21.0093 20.1675 20.6775L19.575 8.34C19.5461 7.70925 19.2749 7.11398 18.8181 6.6781C18.3613 6.24222 17.7539 5.99934 17.1225 6H16.5V5.25C16.5 4.05653 16.0259 2.91193 15.182 2.06802C14.3381 1.22411 13.1935 0.75 12 0.75V0.75ZM9.00003 5.25C9.00003 4.45435 9.3161 3.69129 9.87871 3.12868C10.4413 2.56607 11.2044 2.25 12 2.25C12.7957 2.25 13.5587 2.56607 14.1213 3.12868C14.684 3.69129 15 4.45435 15 5.25V6H9.00003V5.25ZM18.075 8.4075L18.6675 20.7525C18.6722 20.8815 18.6515 21.0102 18.6064 21.1311C18.5614 21.2521 18.493 21.363 18.405 21.4575C18.3153 21.5497 18.208 21.623 18.0895 21.6733C17.971 21.7235 17.8437 21.7496 17.715 21.75H6.28503C6.15635 21.7496 6.02904 21.7235 5.91056 21.6733C5.79208 21.623 5.68481 21.5497 5.59503 21.4575C5.50711 21.363 5.43867 21.2521 5.39363 21.1311C5.34859 21.0102 5.32783 20.8815 5.33253 20.7525L5.92503 8.4075C5.93661 8.16276 6.04204 7.9319 6.21943 7.76289C6.39682 7.59388 6.63252 7.49973 6.87753 7.5H17.1225C17.3675 7.49973 17.6032 7.59388 17.7806 7.76289C17.958 7.9319 18.0635 8.16276 18.075 8.4075V8.4075Z" fill="#395589"/>
<path d="M8.52002 10.8925C8.93423 10.8925 9.27002 10.5567 9.27002 10.1425C9.27002 9.72824 8.93423 9.39246 8.52002 9.39246C8.10581 9.39246 7.77002 9.72824 7.77002 10.1425C7.77002 10.5567 8.10581 10.8925 8.52002 10.8925Z" fill="#395589"/>
<path d="M15.4801 10.8925C15.8943 10.8925 16.2301 10.5567 16.2301 10.1425C16.2301 9.72824 15.8943 9.39246 15.4801 9.39246C15.0659 9.39246 14.7301 9.72824 14.7301 10.1425C14.7301 10.5567 15.0659 10.8925 15.4801 10.8925Z" fill="#395589"/>
</svg>
