<?xml version="1.0" encoding="iso-8859-1"?>
<!-- Generator: Adobe Illustrator 19.0.0, SVG Export Plug-In . SVG Version: 6.00 Build 0)  -->
<svg version="1.1" id="Capa_1" xmlns="http://www.w3.org/2000/svg" xmlns:xlink="http://www.w3.org/1999/xlink" x="0px" y="0px"
	 viewBox="0 0 512 512" style="enable-background:new 0 0 512 512;" xml:space="preserve">
<g>
	<g>
		<path d="M256,0C114.842,0,0,114.842,0,256s114.842,256,256,256s256-114.842,256-256S397.158,0,256,0z M256,494.933
			C124.254,494.933,17.067,387.746,17.067,256S124.254,17.067,256,17.067S494.933,124.254,494.933,256S387.746,494.933,256,494.933z
			"/>
	</g>
</g>
<g>
	<g>
		<path d="M493.278,332.954c-39.219-24.533-66.611-98.287-66.611-179.354c0-26.086,2.688-51.379,7.996-75.17
			c1.024-4.599-1.877-9.165-6.477-10.189c-4.617-1.007-9.165,1.877-10.189,6.477c-5.572,25.011-8.397,51.55-8.397,78.882
			c0,88.013,29.995,165.905,74.633,193.818c1.408,0.879,2.97,1.297,4.514,1.297c2.842,0,5.623-1.417,7.245-4.002
			C498.483,340.719,497.271,335.445,493.278,332.954z"/>
	</g>
</g>
<g>
	<g>
		<path d="M192.444,9.796c-1.749-0.691-3.669-0.811-5.487-0.299C76.885,40.269,0,141.636,0,256c0,141.158,114.842,256,256,256
			c42.103,0,83.883-10.47,120.823-30.285c2.244-1.203,3.831-3.354,4.335-5.845l2.739-13.73l0.179-1.118
			c4.156-26.112,8.457-53.103,8.457-81.289C392.533,206.626,312.124,57.958,192.444,9.796z M367.224,458.334l-2.005,10.206
			c-33.587,17.28-71.262,26.394-109.218,26.394C124.254,494.933,17.067,387.746,17.067,256
			c0-105.771,70.451-199.629,171.691-229.274c111.795,46.746,186.709,188.109,186.709,353.007
			C375.467,406.571,371.277,432.888,367.224,458.334z"/>
	</g>
</g>
<g>
	<g>
		<path d="M199.014,444.194c-16.051-5.478-32.171-13.542-49.297-24.678c-3.959-2.569-9.242-1.451-11.81,2.5s-1.451,9.233,2.5,11.802
			c18.33,11.913,35.695,20.591,53.103,26.522c0.913,0.307,1.843,0.461,2.756,0.461c3.55,0,6.869-2.236,8.073-5.769
			C205.858,450.569,203.477,445.713,199.014,444.194z"/>
	</g>
</g>
<g>
	<g>
		<path d="M109.056,387.192c-1.997-2.483-4.181-5.094-6.443-7.782c-6.639-7.91-14.174-16.87-18.193-24.858
			c-2.125-4.207-7.253-5.914-11.46-3.78c-4.207,2.125-5.905,7.253-3.78,11.46c4.915,9.762,13.124,19.533,20.369,28.16
			c2.176,2.586,4.284,5.094,6.195,7.475c1.69,2.108,4.164,3.2,6.665,3.2c1.869,0,3.755-0.614,5.333-1.877
			C111.42,396.237,112.009,390.869,109.056,387.192z"/>
	</g>
</g>
<g>
	<g>
		<path d="M494.933,182.733c-249.813-1.988-397.15,81.741-476.8,152.627c-3.516,3.132-3.831,8.525-0.7,12.049
			c1.681,1.894,4.028,2.859,6.374,2.859c2.014,0,4.045-0.717,5.666-2.159c77.406-68.89,221.082-150.332,465.297-148.309
			c0.034,0,0.06,0,0.085,0c4.676,0,8.491-3.772,8.533-8.457C503.433,186.633,499.644,182.776,494.933,182.733z"/>
	</g>
</g>
<g>
	<g>
		<path d="M77.662,85.333c-2.603,0-5.188-0.111-7.774-0.239c-4.736-0.085-8.704,3.413-8.926,8.124
			c-0.23,4.702,3.405,8.704,8.115,8.926c2.85,0.137,5.709,0.256,8.585,0.256c112.93,0,204.8,109.099,204.8,243.2
			c0,59.716-14.498,112.572-41.924,152.849c-2.654,3.9-1.647,9.207,2.253,11.861c1.468,0.998,3.14,1.476,4.796,1.476
			c2.731,0,5.41-1.306,7.066-3.729c29.355-43.127,44.877-99.302,44.877-162.458C299.529,202.086,199.996,85.333,77.662,85.333z"/>
	</g>
</g>
<g>
</g>
<g>
</g>
<g>
</g>
<g>
</g>
<g>
</g>
<g>
</g>
<g>
</g>
<g>
</g>
<g>
</g>
<g>
</g>
<g>
</g>
<g>
</g>
<g>
</g>
<g>
</g>
<g>
</g>
</svg>
