<svg width="28" height="29" viewBox="0 0 28 29" fill="none" xmlns="http://www.w3.org/2000/svg">
<path d="M21.9021 6.47106C21.8216 6.38276 21.7076 6.33331 21.5882 6.33331H15.502C15.3825 6.33331 15.2686 6.38276 15.1881 6.47106C15.1072 6.55894 15.0672 6.6767 15.0772 6.79602L15.1271 7.38267H21.9631L22.0129 6.79602C22.023 6.6767 21.9831 6.55897 21.9021 6.47106Z" fill="#0F3460"/>
<path d="M16.049 18.2137H21.0413L21.894 8.19019H15.1958L16.049 18.2137Z" fill="#0F3460"/>
<path d="M16.0964 20.4453C16.0964 21.0278 16.5685 21.5 17.151 21.5H19.9394C20.5219 21.5 20.994 21.0278 20.994 20.4453V19.0984H16.0964V20.4453Z" fill="#0F3460"/>
<path d="M14.443 17.6711H9.06896L6.90833 18.651C6.90354 18.6531 6.89832 18.6542 6.89355 18.6564V19.6357C6.89355 20.6656 7.72841 21.5 8.75778 21.5H12.9289C13.9582 21.5 14.7931 20.6656 14.7931 19.6357V18.0212C14.7931 17.8278 14.6364 17.6711 14.443 17.6711Z" fill="#0F3460"/>
<path d="M12.8527 15.9557L10.6826 16.9399H13.4888C13.5781 16.9399 13.6607 16.893 13.7076 16.8173C13.7538 16.7405 13.7575 16.646 13.7171 16.5661C13.5771 16.2937 13.3306 16.0919 13.0362 16.0078L12.8527 15.9557Z" fill="#0F3460"/>
<path d="M13.2034 14.502C13.236 14.4148 13.2328 14.3186 13.1944 14.2339L13.1009 14.0289C12.9631 13.725 12.6635 13.5452 12.3502 13.5452C12.2366 13.5452 12.1209 13.5694 12.0106 13.6188L6.31693 16.2006C5.9027 16.3884 5.71922 16.8768 5.90684 17.291L5.99994 17.4966C6.03837 17.5807 6.10872 17.647 6.19559 17.6796C6.2349 17.6942 6.27697 17.7016 6.31853 17.7016C6.3685 17.7016 6.41799 17.6912 6.46369 17.6706L13.02 14.6977C13.1046 14.6593 13.1703 14.5893 13.2034 14.502Z" fill="#0F3460"/>
</svg>
