<svg width="20" height="20" viewBox="0 0 20 20" fill="none" xmlns="http://www.w3.org/2000/svg">
<path d="M16.8371 4.26238L15.87 2.47578C16.3382 2.2834 16.6688 1.82266 16.6688 1.28594C16.6688 0.576875 16.0919 0 15.3829 0H4.6172C3.90817 0 3.3313 0.576875 3.3313 1.28594C3.3313 1.82266 3.66192 2.2834 4.13009 2.47578L3.16298 4.26238C3.11493 4.34082 3.11493 4.38461 3.11493 4.45004V6.46808V17.3395C3.11493 17.4042 3.13173 17.4702 3.1629 17.527L4.39012 19.7952C4.45837 19.9214 4.59024 20 4.73368 20H15.2664C15.4098 20 15.5417 19.9214 15.6099 19.7952L16.8372 17.527C16.8683 17.4702 16.8851 17.4042 16.8851 17.3395V15.3214V4.45004C16.8851 4.38477 16.8616 4.30719 16.8371 4.26238ZM4.11255 1.28594C4.11255 1.00766 4.33891 0.78125 4.6172 0.78125H15.3829C15.6612 0.78125 15.8875 1.00766 15.8875 1.28594C15.8875 1.56422 15.6612 1.79062 15.3829 1.79062H11.7574C11.5417 1.79062 11.3668 1.96551 11.3668 2.18125C11.3668 2.39699 11.5417 2.57187 11.7574 2.57187H15.0337L15.8389 4.05945H5.62345H4.16122L4.96641 2.57187H8.2427C8.45841 2.57187 8.63333 2.39699 8.63333 2.18125C8.63333 1.96551 8.45841 1.79062 8.2427 1.79062H4.6172C4.33891 1.79062 4.11255 1.56422 4.11255 1.28594ZM3.89622 4.84066H5.46161L8.1011 7.48023C8.1011 7.48051 8.10106 7.48078 8.10102 7.48105C7.73618 8.08644 7.47149 8.86984 7.34868 9.75887L3.89622 6.30633V4.84066ZM8.69192 8.02594C9.05743 7.34973 9.53423 6.96191 10 6.96191C10.4659 6.96191 10.9427 7.34973 11.3082 8.02594C11.7201 8.78797 11.947 9.8068 11.947 10.8947C11.947 11.983 11.7201 13.002 11.3082 13.7639C10.9428 14.4399 10.4659 14.8276 10 14.8276C9.53415 14.8276 9.05731 14.4399 8.69188 13.7639C8.28001 13.002 8.05313 11.9831 8.05313 10.8947C8.05313 9.80684 8.28001 8.78801 8.69192 8.02594ZM3.89622 7.41117L7.27262 10.7877C7.27219 10.8233 7.27188 10.8589 7.27188 10.8948C7.27188 13.5382 8.47024 15.6089 10 15.6089C10.525 15.6089 11.0109 15.365 11.4227 14.9379L13.4336 16.9488H3.89622V7.41117ZM15.0336 19.2187H4.96649L4.1611 17.7301H14.3767H15.8391L15.0336 19.2187ZM16.1039 16.9489H14.5385L11.899 14.3093C11.899 14.3089 11.8991 14.3086 11.8992 14.3083C12.2638 13.7031 12.5284 12.92 12.6513 12.0315L16.1039 15.4832V16.9489H16.1039ZM16.1039 14.3785L12.7274 11.0029C12.7279 10.967 12.7282 10.9309 12.7282 10.8948C12.7282 8.25137 11.5299 6.18066 10 6.18066C9.47513 6.18066 8.98923 6.42453 8.57735 6.8516L6.56645 4.84066H16.1038V14.3785H16.1039Z" fill="#7D879C"/>
<path d="M10.0001 2.57177H10.0023C10.218 2.57177 10.3918 2.39689 10.3918 2.18115C10.3918 1.96541 10.2158 1.79053 10.0001 1.79053C9.78442 1.79053 9.6095 1.96541 9.6095 2.18115C9.6095 2.39689 9.78438 2.57177 10.0001 2.57177Z" fill="#7D879C"/>
</svg>
