<svg width="24" height="24" viewBox="0 0 24 24" fill="none" xmlns="http://www.w3.org/2000/svg">
<path d="M9.95455 11.7273C9.52776 11.7273 9.18182 12.0732 9.18182 12.5C9.18182 12.9268 9.52776 13.2727 9.95455 13.2727H13.0455C13.4722 13.2727 13.8182 12.9268 13.8182 12.5C13.8182 12.0732 13.4722 11.7273 13.0455 11.7273H9.95455Z" fill="#7D879C"/>
<path fill-rule="evenodd" clip-rule="evenodd" d="M5.31818 4C4.03788 4 3 5.03788 3 6.31818V17.1364C3 18.4167 4.03788 19.4545 5.31818 19.4545H17.6818C18.9621 19.4545 20 18.4167 20 17.1364V6.31818C20 5.03788 18.9621 4 17.6818 4H5.31818ZM17.6818 5.54545H5.31818C4.8914 5.54545 4.54545 5.8914 4.54545 6.31818V8.63636H18.4545V6.31818C18.4545 5.8914 18.1086 5.54545 17.6818 5.54545ZM4.54545 17.1364V10.1818H18.4545V17.1364C18.4545 17.5631 18.1086 17.9091 17.6818 17.9091H5.31818C4.8914 17.9091 4.54545 17.5631 4.54545 17.1364Z" fill="#7D879C"/>
</svg>
