<svg height="585pt" viewBox="-18 -49 585.33319 585" width="585pt" xmlns="http://www.w3.org/2000/svg"><path d="m166.667969 124.617188c2.671875.183593 5.28125-.84375 7.113281-2.800782 3.972656-3.824218 4.09375-10.148437.265625-14.125l-6.917969-7.1875-14.382812 13.851563 6.917968 7.203125c1.835938 1.914062 4.355469 3.015625 7.003907 3.058594zm0 0"/><path d="m222.285156 172.179688c3.980469-3.820313 4.101563-10.144532.28125-14.125l-6.933594-7.1875-14.382812 13.851562 6.917969 7.203125c3.828125 3.964844 10.144531 4.082031 14.117187.257813zm0 0"/><path d="m138.351562 128.222656-14.382812 13.855469 6.921875 7.1875c1.828125 1.917969 4.34375 3.019531 6.992187 3.070313 2.664063.15625 5.269532-.863282 7.113282-2.796876 3.972656-3.828124 4.09375-10.148437.265625-14.125zm0 0"/><path d="m315.335938 484.742188 47.558593-45.808594h-91.675781zm0 0"/><path d="m179.382812-1.957031-143.625 9.265625 14.035157 14.566406c4.027343-1.898438 8.441406-2.839844 12.894531-2.746094 16.546875.148438 29.84375 13.6875 29.691406 30.238282-.152344 16.546874-13.691406 29.84375-30.238281 29.691406h-.570313c-10.296874-.132813-19.792968-5.570313-25.117187-14.382813-5.328125-8.8125-5.726563-19.753906-1.054687-28.925781l-14.890626-15.476562-20.507812 137.085937 10.445312 10.855469 172.664063-166.308594zm0 0"/><path d="m69.050781 56.28125c2.933594-2.796875 3.878907-7.089844 2.402344-10.867188-1.480469-3.769531-5.09375-6.273437-9.148437-6.339843h-.199219c-2.578125-.007813-5.0625.996093-6.910157 2.796875-2.90625 2.804687-3.84375 7.082031-2.367187 10.839844 1.476563 3.761718 5.074219 6.261718 9.113281 6.339843 2.652344.125 5.238282-.882812 7.109375-2.769531zm0 0"/><path d="m254.820312 249.132812 9.886719-20.722656-21.074219 9.105469zm0 0"/><path d="m338.78125 365.097656c11.480469 11.921875 30.453125 12.277344 42.371094.789063 11.917968-11.480469 12.273437-30.453125.785156-42.367188zm0 0"/><path d="m418.898438 304.089844c0-15.441406 4.804687-30.507813 13.746093-43.101563l-235.679687-244.699219-172.613282 166.308594 227.621094 236.359375h131.347656v.3125l61.179688-58.933593c-16.25-14.175782-25.585938-34.679688-25.601562-56.246094zm-281.375-131.789063c-7.9375-.136719-15.492188-3.4375-20.976563-9.167969l-13.855469-14.382812c-3.832031-3.976562-3.714844-10.296875.261719-14.125l28.777344-27.71875 28.773437-27.71875c3.96875-3.820312 10.285156-3.703125 14.113282.261719l13.867187 14.390625c11.480469 11.921875 11.121094 30.894531-.800781 42.371094-5.335938 5.128906-12.398438 8.085937-19.796875 8.28125-1.011719 15.675781-14.039063 27.859374-29.746094 27.820312zm48.53125 58.644531c-3.242188 0-6.285157-1.582031-8.160157-4.234374-1.867187-2.648438-2.335937-6.042969-1.246093-9.101563l12.855468-36.28125-2.648437-2.746094-21.585938 20.789063c-2.550781 2.578125-6.300781 3.574218-9.792969 2.59375-3.492187-.976563-6.183593-3.769532-7.023437-7.300782-.84375-3.53125.296875-7.238281 2.972656-9.6875l28.75-27.714843 28.765625-27.722657c1.925782-1.800781 4.472656-2.800781 7.109375-2.785156 2.644531.054688 5.160157 1.148438 6.992188 3.058594l13.851562 14.390625c9.703125 9.789063 11.417969 24.953125 4.152344 36.664063-7.265625 11.703124-21.617187 16.898437-34.691406 12.546874l-10.929688 30.867188c-1.40625 3.976562-5.152343 6.640625-9.371093 6.664062zm62.371093 64.734376c-1.488281-.003907-2.960937-.34375-4.296875-1-4.980468-2.375-7.085937-8.335938-4.710937-13.3125l6.199219-12.984376-21.574219-22.414062-13.234375 5.71875c-5.054688 2.136719-10.882813-.203125-13.058594-5.238281-2.171875-5.039063.117188-10.886719 5.136719-13.101563l78.347656-33.847656c3.824219-1.65625 8.273437-.765625 11.160156 2.230469 2.890625 3 3.617188 7.476562 1.828125 11.230469l-36.769531 77.023437c-1.65625 3.480469-5.167969 5.699219-9.027344 5.695313zm55.433594 57.550781c-3.070313 0-5.972656-1.417969-7.867187-3.84375-1.886719-2.425781-2.558594-5.585938-1.808594-8.566407l14.433594-57.625-32.472657 31.273438c-3.996093 3.65625-10.179687 3.460938-13.9375-.441406-3.757812-3.902344-3.71875-10.085938.078125-13.941406l57.558594-55.4375c3.207031-3.082032 8.070312-3.671876 11.921875-1.441407 3.855469 2.234375 5.761719 6.738281 4.6875 11.0625l-14.445313 57.621094 32.472657-31.277344c2.554687-2.578125 6.300781-3.570312 9.796875-2.59375 3.492187.980469 6.1875 3.777344 7.023437 7.304688.839844 3.527343-.296875 7.238281-2.972656 9.6875l-57.546875 55.433593c-1.859375 1.792969-4.339844 2.785157-6.921875 2.785157zm91.136719 27.039062c-19.867188 19.132813-51.472656 18.542969-70.609375-1.316406l-6.929688-7.203125c-3.824219-3.96875-3.699219-10.285156.269531-14.109375l57.550782-55.4375c1.964844-1.746094 4.488281-2.738281 7.117187-2.796875 2.640625.054688 5.152344 1.15625 6.988281 3.0625l6.921876 7.195312c19.125 19.863282 18.53125 51.472657-1.328126 70.605469zm0 0"/><path d="m493.8125 249.152344c-30.339844 0-54.9375 24.59375-54.9375 54.9375 0 30.339844 24.597656 54.9375 54.9375 54.9375s54.9375-24.597656 54.9375-54.9375c-.039062-30.324219-24.609375-54.898438-54.9375-54.9375zm24.113281 64.925781 11.199219 11.207031-14.125 14.125-11.199219-11.207031v15.839844h-19.976562v-15.839844l-11.199219 11.207031-14.125-14.125 11.199219-11.207031h-15.839844v-19.976563h15.839844l-11.199219-11.199218 14.125-14.089844 11.199219 11.164062v-15.84375h19.976562v15.84375l11.199219-11.164062 14.125 14.125-11.199219 11.191406h15.839844v19.976563zm0 0"/></svg>