<svg width="20" height="20" viewBox="0 0 20 20" fill="none" xmlns="http://www.w3.org/2000/svg">
<g clip-path="url(#clip0)">
<path d="M10 20C15.527 20 20 15.5274 20 9.99998C20 4.47295 15.5275 0 10 0C4.47299 0 0 4.47249 0 10C0 12.6711 1.04017 15.1823 2.92896 17.0711C4.81767 18.9598 7.3289 20 10 20ZM10 0.585987C15.2032 0.585987 19.4141 4.79646 19.4141 10C19.4141 15.2032 15.2036 19.4141 10 19.4141C4.79689 19.414 0.585987 15.2036 0.585987 10C0.585987 4.79689 4.79638 0.585987 10 0.585987Z" fill="#7D879C"/>
<path d="M9.46606 12.1707C9.61439 12.2355 9.78706 12.1676 9.85175 12.0193C9.91645 11.8711 9.84871 11.6983 9.70037 11.6336C9.18279 11.4078 8.84831 10.8973 8.84831 10.3331C8.84831 9.5509 9.48465 8.91456 10.2669 8.91456C11.049 8.91456 11.6854 9.5509 11.6854 10.3331C11.6854 10.8973 11.3509 11.4078 10.8334 11.6336C10.685 11.6983 10.6173 11.8711 10.682 12.0194C10.7468 12.1679 10.9197 12.2354 11.0677 12.1708C11.7989 11.8517 12.2714 11.1304 12.2714 10.3331C12.2714 9.22783 11.3721 8.32861 10.2669 8.32861C9.16158 8.32861 8.26233 9.22783 8.26233 10.3331C8.26233 11.1304 8.73483 11.8517 9.46606 12.1707Z" fill="#7D879C"/>
<path d="M10 17.7033C14.0043 17.7033 17.3108 14.6429 17.6706 10.7102C17.6853 10.549 17.5667 10.4065 17.4056 10.3917C17.2443 10.3768 17.1019 10.4957 17.0871 10.6568C16.7545 14.2918 13.6972 17.1174 10 17.1174C6.07541 17.1174 2.88253 13.9245 2.88253 9.99985C2.88253 9.78862 2.8921 9.57536 2.91108 9.36276C2.9189 9.36299 2.92671 9.36311 2.9346 9.36311H3.95625V10.4636C3.95625 10.9096 4.31917 11.2725 4.76526 11.2725H6.65136C6.83649 11.9829 7.22875 12.6312 7.78845 13.1276C8.00335 13.3182 8.16622 13.532 8.27259 13.763C8.7515 14.8034 9.96895 15.3162 11.0604 14.8911C11.3594 15.4635 11.95 15.8299 12.6171 15.8299C13.4648 15.8299 14.1743 15.2272 14.3396 14.4278C15.005 14.1663 15.455 13.5191 15.455 12.791C15.455 12.6716 15.4429 12.5549 15.4201 12.4422C15.8141 12.1098 16.044 11.6217 16.044 11.0988C16.044 10.7699 15.953 10.4618 15.7952 10.1982C16.1406 9.71459 16.1011 9.05535 15.6949 8.61785C15.6805 8.60238 15.6774 8.57726 15.6886 8.56617C16.3147 7.94131 16.0832 6.81755 15.2418 6.50908C15.22 6.50111 15.2065 6.4833 15.2075 6.47166C15.2827 5.61057 14.4449 4.94997 13.6428 5.16034C13.6177 5.16686 13.5855 5.16049 13.5738 5.131C13.2397 4.29351 12.0857 4.07724 11.4782 4.76515C11.4692 4.77531 11.4518 4.77933 11.4385 4.77409C10.735 4.49825 9.91554 4.92239 9.75936 5.68499C9.11294 5.83965 8.55738 6.2836 8.27252 6.90251C8.20638 7.04616 8.11832 7.18312 8.0096 7.312C7.86061 7.13699 7.63922 7.0253 7.39447 7.0253H6.37282V5.92489C6.37282 5.47892 6.01002 5.11588 5.56385 5.11588H4.82218C6.16484 3.6892 8.01941 2.88237 10 2.88237C13.6988 2.88237 16.7546 5.70941 17.0871 9.34291C17.1018 9.50406 17.2437 9.62274 17.4055 9.60802C17.5667 9.59329 17.6853 9.4507 17.6706 9.28955C17.3105 5.3541 14.0015 2.29639 9.99997 2.29639C7.6768 2.29639 5.51443 3.32245 4.04341 5.11588H2.93452C2.48847 5.11588 2.12555 5.4788 2.12555 5.92485V8.55414C2.12555 8.76935 2.21056 8.96468 2.34807 9.10977C2.31392 9.40593 2.29646 9.70463 2.29646 9.99985C2.29646 14.2475 5.75226 17.7033 10 17.7033ZM12.6171 15.2439C12.1764 15.2439 11.7735 14.991 11.5747 14.6086C12.074 14.2389 12.2483 13.7815 12.3037 13.6771C12.4091 13.4788 12.5573 13.2943 12.7453 13.1275C12.8084 13.0715 12.8817 13.0013 12.9388 12.9429C13.4586 13.0906 13.8379 13.6025 13.7848 14.1799V14.1803C13.7293 14.776 13.2269 15.2439 12.6171 15.2439ZM14.3489 13.7656C14.2495 13.2023 13.8648 12.7049 13.3338 12.4652C13.3533 12.4262 13.5896 12.1219 13.7745 11.6212C14.3936 11.6622 14.8689 12.1784 14.8689 12.791C14.8689 13.1897 14.6668 13.5521 14.3489 13.7656ZM15.1839 11.8524C14.8992 11.4003 14.4316 11.1157 13.9346 11.0481C14 10.7109 14.0218 10.3373 13.9853 9.96488C14.7296 9.76783 15.458 10.3319 15.458 11.0988C15.458 11.3788 15.3591 11.644 15.1839 11.8524ZM11.2245 5.31961C11.467 5.4147 11.7454 5.34774 11.9174 5.15303C12.2425 4.78468 12.8605 4.9245 13.0294 5.34805C13.1485 5.64678 13.4758 5.80977 13.7913 5.72718C14.2066 5.61831 14.6632 5.96869 14.6236 6.4206C14.5994 6.69793 14.7706 6.96057 15.04 7.05929C15.4884 7.22364 15.5916 7.83498 15.2746 8.15137C15.038 8.38737 15.034 8.76744 15.2654 9.0166C15.4488 9.21415 15.4904 9.49625 15.3906 9.73068C14.9553 9.37768 14.3915 9.26638 13.8819 9.38636C13.7014 8.69884 13.3123 8.04081 12.7453 7.538C12.547 7.36216 12.3745 7.14855 12.2612 6.90255C11.9238 6.16956 11.2028 5.67698 10.3963 5.62866C10.5516 5.33777 10.914 5.1978 11.2245 5.31961ZM8.80479 7.1475C9.37691 5.90474 11.1542 5.89931 11.7289 7.1475C11.8628 7.43826 12.0689 7.72118 12.3565 7.97628C12.8735 8.43487 13.2319 9.05902 13.3624 9.74889C13.3627 9.75014 13.3629 9.75135 13.3631 9.7526C13.5674 10.8387 13.1847 11.9547 12.3565 12.6891C12.0806 12.9339 11.8694 13.2127 11.7289 13.5179C11.1541 14.7663 9.37675 14.7604 8.80479 13.518C8.66431 13.2128 8.45319 12.9339 8.17723 12.6891C7.50292 12.091 7.11652 11.2308 7.11652 10.3327C7.11652 9.43273 7.50347 8.57398 8.17723 7.97624C8.45316 7.73153 8.66431 7.45268 8.80479 7.1475ZM7.58972 7.72778C6.90088 8.43632 6.53049 9.37725 6.53049 10.3327C6.53049 10.4452 6.53749 10.5843 6.54717 10.6865H4.76523C4.64229 10.6865 4.5422 10.5865 4.5422 10.4636C4.5422 10.2014 4.5422 8.08136 4.5422 7.83427C4.5422 7.71161 4.64201 7.61129 4.76523 7.61129H7.39451C7.47799 7.61121 7.55167 7.65852 7.58972 7.72778ZM2.71154 5.92482C2.71154 5.80188 2.81158 5.70183 2.93452 5.70183H5.56385C5.68679 5.70183 5.78684 5.80188 5.78684 5.92482V7.02522H4.76523C4.31913 7.02522 3.95621 7.38814 3.95621 7.83423V8.77709H2.93452C2.92476 8.77709 2.91507 8.7763 2.90542 8.77498C2.90409 8.77482 2.90276 8.77459 2.90144 8.77435C2.87151 8.76966 2.84248 8.7588 2.81615 8.74197C2.81346 8.74025 2.81057 8.739 2.80783 8.73736C2.74974 8.69708 2.71158 8.62996 2.71158 8.5541V5.92482H2.71154Z" fill="#7D879C"/>
</g>
<defs>
<clipPath id="clip0">
<rect width="20" height="20" fill="white"/>
</clipPath>
</defs>
</svg>
