<svg width="24" height="24" viewBox="0 0 24 24" fill="none" xmlns="http://www.w3.org/2000/svg">
<path fill-rule="evenodd" clip-rule="evenodd" d="M16.6114 7.26087H18.3071C19.3845 7.26087 20.25 8.12636 20.25 9.2038V16.0571C20.25 17.1345 19.3845 18 18.3071 18H5.94294C4.86549 18 4 17.1345 4 16.0571V9.2038C4 8.12636 4.86549 7.26087 5.94294 7.26087H7.63859L8.57473 5.84783C8.92799 5.31793 9.5462 5 10.1821 5H14.0679C14.7038 5 15.322 5.31793 15.6753 5.84783L16.6114 7.26087ZM7.74457 12.0299C7.74457 14.4497 9.70516 16.4103 12.125 16.4103C14.5448 16.4103 16.5054 14.4497 16.5054 12.0476C16.5054 9.62772 14.5448 7.66712 12.125 7.66712C9.70516 7.66712 7.74457 9.61005 7.74457 12.0299ZM17.9891 9.99864H18.0598C18.3777 9.98098 18.6073 9.71603 18.5897 9.3981C18.572 9.08016 18.3071 8.83288 17.9891 8.85054H17.2826C16.9823 8.86821 16.7527 9.09783 16.7351 9.3981C16.7174 9.71603 16.9647 9.98098 17.2826 9.99864H17.9891ZM9.6875 12.0473C9.6875 10.7049 10.7826 9.60976 12.125 9.60976C13.4674 9.60976 14.5625 10.6872 14.5625 12.0296C14.5625 13.372 13.4674 14.4671 12.125 14.4671C10.7826 14.4671 9.6875 13.3897 9.6875 12.0473Z" fill="#0F3460"/>
</svg>
