<svg width="20" height="20" viewBox="0 0 20 20" fill="none" xmlns="http://www.w3.org/2000/svg">
<g clip-path="url(#clip0)">
<rect width="20" height="20" fill="white"/>
<path d="M6.88558 7.90479C6.97805 7.90479 7.07097 7.87244 7.14559 7.80667L7.15276 7.80027C7.31405 7.65699 7.32854 7.4101 7.18526 7.24882C7.04183 7.08753 6.79494 7.07304 6.63381 7.21632L6.62602 7.22318C6.46428 7.36585 6.45009 7.61152 6.59291 7.77326C6.66982 7.86054 6.77739 7.90479 6.88558 7.90479Z" fill="#7D879C"/>
<path d="M19.019 4.17246C19.4069 3.27463 19.2177 2.1995 18.5091 1.49088C17.8004 0.782264 16.7253 0.592902 15.8275 0.980933C15.244 0.196021 14.2183 -0.177667 13.2501 0.0817327C12.2821 0.341132 11.5807 1.17762 11.4677 2.14899C10.4962 2.26191 9.65973 2.96335 9.40033 3.93152C9.2456 4.50892 9.41315 5.08936 9.5993 5.50043C8.94409 5.6666 8.26401 5.99268 7.56607 6.47974C7.38922 6.60318 7.34573 6.84671 7.46917 7.02356C7.59277 7.20057 7.83615 7.2439 8.01315 7.12046C9.8732 5.82255 11.4926 5.8404 12.8259 7.17386C14.3092 8.65717 14.1682 10.4835 12.4078 12.6032L11.4003 11.5957C11.2477 11.4433 11.0004 11.4433 10.8478 11.5957C10.6952 11.7483 10.6952 11.9956 10.8478 12.1482L11.8875 13.1878C10.3941 14.7611 8.13217 16.3653 5.56915 17.657C5.30685 17.7891 5.04623 17.9148 4.78912 18.0338L3.90869 17.1536C3.7561 17.001 3.50876 17.001 3.35617 17.1536C3.20373 17.306 3.20373 17.5535 3.35632 17.7059L4.02313 18.3729C3.40805 18.6317 2.83035 18.8415 2.3262 18.9871C1.37146 19.2629 0.938107 19.2346 0.811764 19.1892C0.772244 19.0779 0.741726 18.7229 0.933529 17.9653C1.12411 17.2123 1.47567 16.2712 1.95022 15.2436C2.78778 13.4303 3.85849 11.6503 4.98916 10.1713L5.88821 11.0703C5.96435 11.1466 6.06445 11.1848 6.1644 11.1848C6.26434 11.1848 6.36429 11.1466 6.44058 11.0703C6.59317 10.9178 6.59317 10.6704 6.44058 10.5178L5.4779 9.5553C5.65841 9.33664 5.83969 9.12622 6.02112 8.92542C6.16577 8.76535 6.15341 8.51847 5.99334 8.37366C5.83328 8.22901 5.58624 8.24152 5.44159 8.40143C3.87878 10.1301 2.33825 12.5251 1.21505 14.9723C0.719906 16.051 0.355221 17.0414 0.160366 17.8367C-0.0743142 18.7939 -0.0518838 19.394 0.230709 19.7254C0.244137 19.741 0.258785 19.7556 0.274502 19.7691C0.406185 19.8814 0.620113 19.9999 1.06353 19.9999C1.37466 19.9999 1.79855 19.9417 2.38601 19.7817C3.30246 19.5326 4.42199 19.0901 5.62362 18.5021C8.43002 17.1293 10.966 15.3387 12.5816 13.5896C13.5939 12.4938 14.2364 11.4269 14.4958 10.4135C14.7877 10.5435 15.1668 10.6631 15.5736 10.6631C15.7353 10.6631 15.9016 10.6442 16.0684 10.5995C17.0364 10.3401 17.7379 9.50357 17.8508 8.5322C18.8222 8.41929 19.6588 7.71769 19.9182 6.74982C20.1776 5.78165 19.8039 4.7558 19.019 4.17246ZM19.1635 6.54749C18.9641 7.29181 18.2614 7.8039 17.4934 7.76468C17.3828 7.75904 17.2754 7.80054 17.1973 7.87867C17.1191 7.95679 17.0778 8.06437 17.0834 8.17469C17.1225 8.94297 16.6106 9.64533 15.8662 9.84491C15.4645 9.95249 14.982 9.80082 14.6222 9.60505C14.6448 9.18818 14.5987 8.78489 14.4836 8.39625C14.9599 7.99051 15.6699 7.58631 16.2682 7.50574C16.4819 7.4769 16.6319 7.28022 16.6031 7.06644C16.5742 6.85251 16.3774 6.70267 16.1638 6.73136C15.4703 6.82489 14.7189 7.22574 14.1673 7.64856C14.0363 7.41312 13.877 7.18393 13.6902 6.96146C14.5747 6.26703 15.4127 5.38782 15.9639 4.56934C16.0843 4.39036 16.037 4.14759 15.858 4.02704C15.679 3.90665 15.4362 3.95395 15.3159 4.13294C14.794 4.90778 13.989 5.74503 13.1415 6.39826C12.8868 6.17273 12.623 5.98414 12.3509 5.83277C12.7739 5.28116 13.1749 4.52967 13.2684 3.836C13.2973 3.62223 13.1473 3.42554 12.9335 3.3967C12.7199 3.36802 12.523 3.51786 12.4942 3.73163C12.4135 4.33008 12.0091 5.04038 11.6032 5.51661C11.2183 5.40247 10.8195 5.35547 10.4092 5.37592C10.2017 5.003 10.0496 4.52692 10.155 4.13355C10.3545 3.38923 11.0568 2.87714 11.8253 2.91636C11.9351 2.92155 12.0432 2.88065 12.1213 2.80253C12.1994 2.72425 12.2408 2.61683 12.2353 2.50635C12.1962 1.73823 12.708 1.03571 13.4525 0.83628C14.1968 0.636847 14.9913 0.989173 15.3416 1.67399C15.392 1.77241 15.4816 1.84489 15.5884 1.87342C15.695 1.90211 15.8089 1.8841 15.9016 1.82413C16.5475 1.40604 17.4118 1.49821 17.9567 2.0431C18.5016 2.58814 18.5938 3.45225 18.1758 4.09815C18.1157 4.19092 18.0978 4.30475 18.1264 4.41141C18.1549 4.51822 18.2274 4.60779 18.3258 4.65815C19.0106 5.00864 19.3629 5.80317 19.1635 6.54749Z" fill="#7D879C"/>
<path d="M7.82335 13.0057L8.89605 14.0784C8.97234 14.1547 9.07228 14.1927 9.17223 14.1927C9.27217 14.1927 9.37212 14.1545 9.44841 14.0784C9.601 13.9258 9.601 13.6784 9.44841 13.5258L8.37587 12.4533C8.22329 12.3007 7.97594 12.3007 7.82351 12.4533C7.67092 12.6059 7.67092 12.8532 7.82335 13.0057Z" fill="#7D879C"/>
<path d="M11.9449 9.34592C12.0212 9.42221 12.1212 9.46036 12.2211 9.46036C12.321 9.46036 12.4211 9.42221 12.4973 9.34592C12.6499 9.19348 12.6499 8.94614 12.4973 8.79355L11.3681 7.66425C11.2155 7.51166 10.9682 7.51166 10.8156 7.66425C10.663 7.81683 10.663 8.06418 10.8156 8.21661L11.9449 9.34592Z" fill="#7D879C"/>
<path d="M8.99384 10.1325C9.09378 10.1325 9.19388 10.0944 9.27002 10.0181C9.42261 9.86548 9.42261 9.61813 9.27002 9.46555L8.55515 8.75067C8.40256 8.59808 8.15521 8.59808 8.00262 8.75067C7.85004 8.90311 7.85004 9.15045 8.00262 9.30304L8.71765 10.0181C8.79395 10.0944 8.89389 10.1325 8.99384 10.1325Z" fill="#7D879C"/>
<path d="M16.5329 3.11684C16.3582 2.99019 16.114 3.02925 15.9874 3.20412L15.9813 3.21251C15.8548 3.38722 15.8939 3.63152 16.0686 3.75801C16.1378 3.80821 16.218 3.83232 16.2973 3.83232C16.4183 3.83232 16.5376 3.77632 16.6141 3.67073L16.6202 3.66219C16.7467 3.48763 16.7076 3.24333 16.5329 3.11684Z" fill="#7D879C"/>
<path d="M4.24347 13.5568C4.09088 13.7093 4.09088 13.9566 4.24347 14.1092L5.16113 15.027C5.23743 15.1033 5.33737 15.1414 5.43732 15.1414C5.53726 15.1414 5.63736 15.1031 5.7135 15.027C5.86609 14.8744 5.86609 14.6271 5.71365 14.4745L4.79584 13.5568C4.64325 13.4042 4.3959 13.4042 4.24347 13.5568Z" fill="#7D879C"/>
<path d="M6.5076 15.2681C6.35516 15.1153 6.10782 15.115 5.95508 15.2675C5.80234 15.4197 5.80203 15.6671 5.95447 15.8198L5.96179 15.8273C6.03824 15.9038 6.13834 15.9421 6.23843 15.9421C6.33823 15.9421 6.43802 15.9041 6.51431 15.8279C6.66705 15.6756 6.66736 15.4283 6.51492 15.2755L6.5076 15.2681Z" fill="#7D879C"/>
</g>
<defs>
<clipPath id="clip0">
<rect width="20" height="20" fill="white"/>
</clipPath>
</defs>
</svg>
