<svg width="25" height="26" viewBox="0 0 25 26" fill="none" xmlns="http://www.w3.org/2000/svg">
<g clip-path="url(#clip0_6837_48194)">
<path d="M1.11328 24.2182L5.74532 14.6562L11.5464 20.6035L1.11328 24.2182Z" stroke="#BE7374" stroke-width="0.7" stroke-miterlimit="10" stroke-linecap="round" stroke-linejoin="round"/>
<path d="M4.69922 16.8145L7.89102 16.8572" stroke="#BE7374" stroke-width="0.7" stroke-miterlimit="10" stroke-linecap="round" stroke-linejoin="round"/>
<path d="M3.72266 19.1807L9.97343 19.2644" stroke="#BE7374" stroke-width="0.7" stroke-miterlimit="10" stroke-linecap="round" stroke-linejoin="round"/>
<path d="M2.42188 21.543L8.35865 21.6224" stroke="#BE7374" stroke-width="0.7" stroke-miterlimit="10" stroke-linecap="round" stroke-linejoin="round"/>
<path d="M7.10631 13.7751C7.10631 13.7751 7.8828 11.1132 6.3947 9.63209M5.28793 8.94486C5.2362 8.92592 5.1832 8.90784 5.12891 8.89062L5.28793 8.94486Z" stroke="#BE7374" stroke-width="0.7" stroke-miterlimit="10" stroke-linecap="round" stroke-linejoin="round"/>
<path d="M12.6562 3.97712L12.789 3.56152" stroke="#BE7374" stroke-width="0.7" stroke-miterlimit="10" stroke-linecap="round" stroke-linejoin="round"/>
<path d="M10.8398 9.62474L12.0316 5.94141" stroke="#BE7374" stroke-width="0.7" stroke-miterlimit="10" stroke-linecap="round" stroke-linejoin="round"/>
<path d="M9.32812 14.3669L10.3679 11.0918" stroke="#BE7374" stroke-width="0.7" stroke-miterlimit="10" stroke-linecap="round" stroke-linejoin="round"/>
<path d="M17.3047 9.16266L21.1576 5.22461" stroke="#BE7374" stroke-width="0.7" stroke-miterlimit="10" stroke-linecap="round" stroke-linejoin="round"/>
<path d="M16.0039 10.4859L16.3053 10.1807" stroke="#BE7374" stroke-width="0.7" stroke-miterlimit="10" stroke-linecap="round" stroke-linejoin="round"/>
<path d="M12.0469 14.5638L14.8976 11.6162" stroke="#BE7374" stroke-width="0.7" stroke-miterlimit="10" stroke-linecap="round" stroke-linejoin="round"/>
<path d="M12.4453 19.2026C12.4453 19.2026 16.6895 18.0577 18.6541 21.3058M19.2746 22.7517C19.289 22.8014 19.3031 22.8519 19.3167 22.9029L19.2746 22.7517Z" stroke="#BE7374" stroke-width="0.7" stroke-miterlimit="10" stroke-linecap="round" stroke-linejoin="round"/>
<path d="M21.668 14.9863L22.034 14.9102" stroke="#BE7374" stroke-width="0.7" stroke-miterlimit="10" stroke-linecap="round" stroke-linejoin="round"/>
<path d="M12.4453 16.933L19.4739 15.4434" stroke="#BE7374" stroke-width="0.7" stroke-miterlimit="10" stroke-linecap="round" stroke-linejoin="round"/>
<path d="M2.4246 12.7639C2.74539 12.7639 3.00544 12.5044 3.00544 12.1842C3.00544 11.864 2.74539 11.6045 2.4246 11.6045C2.1038 11.6045 1.84375 11.864 1.84375 12.1842C1.84375 12.5044 2.1038 12.7639 2.4246 12.7639Z" fill="#BE7374"/>
<path d="M21.1629 19.4241C21.4837 19.4241 21.7437 19.1645 21.7437 18.8444C21.7437 18.5242 21.4837 18.2646 21.1629 18.2646C20.8421 18.2646 20.582 18.5242 20.582 18.8444C20.582 19.1645 20.8421 19.4241 21.1629 19.4241Z" fill="#BE7374"/>
<path d="M20.6022 10.8638C20.9844 10.8638 21.2943 10.5546 21.2943 10.1731C21.2943 9.79166 20.9844 9.48242 20.6022 9.48242C20.22 9.48242 19.9102 9.79166 19.9102 10.1731C19.9102 10.5546 20.22 10.8638 20.6022 10.8638Z" stroke="#BE7374" stroke-width="0.7" stroke-miterlimit="10" stroke-linecap="round" stroke-linejoin="round"/>
<path d="M7.30078 4.94336V5.25583" stroke="#BE7374" stroke-width="0.7" stroke-miterlimit="10" stroke-linecap="round" stroke-linejoin="round"/>
<path d="M7.30078 6.58008V6.89255" stroke="#BE7374" stroke-width="0.7" stroke-miterlimit="10" stroke-linecap="round" stroke-linejoin="round"/>
<path d="M6.32422 5.91797H6.63735" stroke="#BE7374" stroke-width="0.7" stroke-miterlimit="10" stroke-linecap="round" stroke-linejoin="round"/>
<path d="M7.96094 5.91797H8.27407" stroke="#BE7374" stroke-width="0.7" stroke-miterlimit="10" stroke-linecap="round" stroke-linejoin="round"/>
<path d="M23.0703 21.7676V22.08" stroke="#BE7374" stroke-width="0.7" stroke-miterlimit="10" stroke-linecap="round" stroke-linejoin="round"/>
<path d="M23.0703 23.4043V23.7168" stroke="#BE7374" stroke-width="0.7" stroke-miterlimit="10" stroke-linecap="round" stroke-linejoin="round"/>
<path d="M22.0938 22.7422H22.4069" stroke="#BE7374" stroke-width="0.7" stroke-miterlimit="10" stroke-linecap="round" stroke-linejoin="round"/>
<path d="M23.7305 22.7422H24.0436" stroke="#BE7374" stroke-width="0.7" stroke-miterlimit="10" stroke-linecap="round" stroke-linejoin="round"/>
<path d="M3.25781 1.83984V2.29729" stroke="#BE7374" stroke-width="0.7" stroke-miterlimit="10" stroke-linecap="round" stroke-linejoin="round"/>
<path d="M3.25781 4.23535V4.69285" stroke="#BE7374" stroke-width="0.7" stroke-miterlimit="10" stroke-linecap="round" stroke-linejoin="round"/>
<path d="M1.82812 3.2666H2.28651" stroke="#BE7374" stroke-width="0.7" stroke-miterlimit="10" stroke-linecap="round" stroke-linejoin="round"/>
<path d="M4.22656 3.2666H4.6849" stroke="#BE7374" stroke-width="0.7" stroke-miterlimit="10" stroke-linecap="round" stroke-linejoin="round"/>
<path d="M17 1.44434V1.90183" stroke="#BE7374" stroke-width="0.7" stroke-miterlimit="10" stroke-linecap="round" stroke-linejoin="round"/>
<path d="M17 3.83984V4.29729" stroke="#BE7374" stroke-width="0.7" stroke-miterlimit="10" stroke-linecap="round" stroke-linejoin="round"/>
<path d="M15.5703 2.87109H16.0287" stroke="#BE7374" stroke-width="0.7" stroke-miterlimit="10" stroke-linecap="round" stroke-linejoin="round"/>
<path d="M17.9688 2.87109H18.4271" stroke="#BE7374" stroke-width="0.7" stroke-miterlimit="10" stroke-linecap="round" stroke-linejoin="round"/>
</g>
<defs>
<clipPath id="clip0_6837_48194">
<rect width="24.7333" height="24.7333" fill="white" transform="translate(0.132812 0.489258)"/>
</clipPath>
</defs>
</svg>
