<svg width="24" height="24" viewBox="0 0 24 24" fill="none" xmlns="http://www.w3.org/2000/svg">
<path d="M6.2253 4.81096C5.83477 4.42044 5.20161 4.42044 4.81108 4.81096C4.42056 5.20148 4.42056 5.83465 4.81108 6.22517L10.5858 11.9999L4.81114 17.7746C4.42062 18.1651 4.42062 18.7983 4.81114 19.1888C5.20167 19.5793 5.83483 19.5793 6.22535 19.1888L12 13.4141L17.7747 19.1888C18.1652 19.5793 18.7984 19.5793 19.1889 19.1888C19.5794 18.7983 19.5794 18.1651 19.1889 17.7746L13.4142 11.9999L19.189 6.22517C19.5795 5.83465 19.5795 5.20148 19.189 4.81096C18.7985 4.42044 18.1653 4.42044 17.7748 4.81096L12 10.5857L6.2253 4.81096Z" fill="black"/>
</svg>
