<svg width="64" height="64" viewBox="0 0 64 64" fill="none" xmlns="http://www.w3.org/2000/svg">
<path d="M49.5484 45.4194H47.4839V35.0968H37.1613V33.0323H55.7419C60.2952 33.0323 64 29.3275 64 24.7742C64 20.5708 60.8413 17.0983 56.7742 16.5874V16.5161C56.7742 7.40955 49.3646 0 40.2581 0C34.6746 0 29.4627 2.85419 26.4248 7.50968C24.6214 6.64568 22.6426 6.19355 20.6452 6.19355C14.3587 6.19355 9.00026 10.497 7.59329 16.5419C3.34968 16.8815 0 20.4449 0 24.7742C0 28.5512 2.60748 31.8369 6.19355 32.7659V36.129C6.19355 37.473 7.05961 38.6085 8.25806 39.0359V41.4813C7.05961 41.9076 6.19355 43.0431 6.19355 44.3871V48.5161C6.19355 49.8601 7.05961 50.9956 8.25806 51.423V53.8684C7.05961 54.2947 6.19355 55.4302 6.19355 56.7742V60.9032C6.19355 62.6106 7.58297 64 9.29032 64H34.0645C35.7719 64 37.1613 62.6106 37.1613 60.9032V57.8064H47.4839V47.4839H49.5484V57.8064H64V35.0968H49.5484V45.4194ZM33.0323 35.0968V45.4194H30.9677V35.0968H26.8387V30.9677H34.0645C34.6333 30.9677 35.0968 31.4302 35.0968 32V35.0968H33.0323ZM16.5161 51.6129V53.6774H10.3226V51.6129H16.5161ZM18.5806 35.0968V30.9677H24.7742V35.0968H18.5806ZM16.5161 37.1613H9.29032C8.72155 37.1613 8.25806 36.6988 8.25806 36.129V32C8.25806 31.4302 8.72155 30.9677 9.29032 30.9677H16.5161V37.1613ZM16.5161 39.2258V41.2903H10.3226V39.2258H16.5161ZM18.5806 57.8064H24.7742V61.9355H18.5806V57.8064ZM18.5806 55.7419V37.1613H28.9032V55.7419H18.5806ZM2.06452 24.7742C2.06452 21.3595 4.84026 18.5827 8.27974 18.5827H8.28387L9.31406 18.6044L9.46064 17.728C10.3794 12.2405 15.0823 8.25806 20.6452 8.25806C22.6168 8.25806 24.5677 8.78039 26.2875 9.76929L27.1866 10.2854L27.6996 9.38529C30.2689 4.86916 35.0813 2.06452 40.2581 2.06452C48.2271 2.06452 54.7097 8.5471 54.7097 16.5161V16.5874C50.6426 17.0983 47.4839 20.5708 47.4839 24.7742H49.5484C49.5484 21.3585 52.3262 18.5806 55.7419 18.5806C59.1577 18.5806 61.9355 21.3585 61.9355 24.7742C61.9355 28.1899 59.1577 30.9677 55.7419 30.9677H36.9714C36.544 29.7693 35.4085 28.9032 34.0645 28.9032H9.29032C8.05058 28.9032 6.98632 29.6403 6.49187 30.6952C3.91742 29.9241 2.06452 27.5293 2.06452 24.7742ZM8.25806 44.3871C8.25806 43.8173 8.72155 43.3548 9.29032 43.3548H16.5161V49.5484H9.29032C8.72155 49.5484 8.25806 49.0859 8.25806 48.5161V44.3871ZM8.25806 60.9032V56.7742C8.25806 56.2044 8.72155 55.7419 9.29032 55.7419H16.5161V61.9355H9.29032C8.72155 61.9355 8.25806 61.473 8.25806 60.9032ZM35.0968 60.9032C35.0968 61.473 34.6333 61.9355 34.0645 61.9355H26.8387V57.8064H30.9677V47.4839H33.0323V57.8064H35.0968V60.9032ZM45.4194 55.7419H35.0968V37.1613H45.4194V55.7419ZM51.6129 37.1613H61.9355V55.7419H51.6129V37.1613Z" fill="#0F3460"/>
<path d="M20.6451 39.2258H26.8387V41.2903H20.6451V39.2258Z" fill="#D23F57"/>
<path d="M20.6451 43.3549H26.8387V45.4194H20.6451V43.3549Z" fill="#D23F57"/>
<path d="M20.6451 47.4839H26.8387V49.5484H20.6451V47.4839Z" fill="#D23F57"/>
<path d="M37.1613 39.2258H43.3548V41.2903H37.1613V39.2258Z" fill="#D23F57"/>
<path d="M37.1613 43.3549H43.3548V45.4194H37.1613V43.3549Z" fill="#D23F57"/>
<path d="M37.1613 47.4839H43.3548V49.5484H37.1613V47.4839Z" fill="#D23F57"/>
<path d="M53.6774 39.2258H59.8709V41.2903H53.6774V39.2258Z" fill="#D23F57"/>
<path d="M53.6774 43.3549H59.8709V45.4194H53.6774V43.3549Z" fill="#D23F57"/>
<path d="M53.6774 47.4839H59.8709V49.5484H53.6774V47.4839Z" fill="#D23F57"/>
<path d="M20.6451 51.6129H26.8387V53.6774H20.6451V51.6129Z" fill="#D23F57"/>
<path d="M37.1613 51.6129H43.3548V53.6774H37.1613V51.6129Z" fill="#D23F57"/>
<path d="M53.6774 51.6129H59.8709V53.6774H53.6774V51.6129Z" fill="#D23F57"/>
<path d="M40.2582 6.19354V4.12903C35.581 4.12903 31.3529 6.71793 29.2223 10.8852L31.0607 11.8245C32.8362 8.35096 36.3604 6.19354 40.2582 6.19354Z" fill="#0F3460"/>
<path d="M20.6452 12.3871C21.9149 12.3871 23.1649 12.7206 24.2581 13.3533L25.2914 11.5675C23.8844 10.7531 22.2782 10.3226 20.6452 10.3226C17.3389 10.3226 14.2555 12.1022 12.5988 14.9668L14.3856 16.0011C15.6749 13.7724 18.0728 12.3871 20.6452 12.3871Z" fill="#0F3460"/>
<path d="M20.6451 21.6775C20.6451 23.3848 22.0346 24.7742 23.7419 24.7742C25.4493 24.7742 26.8387 23.3848 26.8387 21.6775C26.8387 19.9701 25.4493 18.5807 23.7419 18.5807C22.0346 18.5807 20.6451 19.9701 20.6451 21.6775ZM24.7742 21.6775C24.7742 22.2473 24.3107 22.7097 23.7419 22.7097C23.1731 22.7097 22.7097 22.2473 22.7097 21.6775C22.7097 21.1077 23.1731 20.6452 23.7419 20.6452C24.3107 20.6452 24.7742 21.1077 24.7742 21.6775Z" fill="#0F3460"/>
<path d="M32 24.7742C33.7073 24.7742 35.0967 23.3848 35.0967 21.6775C35.0967 19.9701 33.7073 18.5807 32 18.5807C30.2926 18.5807 28.9032 19.9701 28.9032 21.6775C28.9032 23.3848 30.2926 24.7742 32 24.7742ZM32 20.6452C32.5687 20.6452 33.0322 21.1077 33.0322 21.6775C33.0322 22.2473 32.5687 22.7097 32 22.7097C31.4312 22.7097 30.9677 22.2473 30.9677 21.6775C30.9677 21.1077 31.4312 20.6452 32 20.6452Z" fill="#0F3460"/>
<path d="M37.1613 21.6775C37.1613 23.3848 38.5507 24.7742 40.258 24.7742C41.9654 24.7742 43.3548 23.3848 43.3548 21.6775C43.3548 19.9701 41.9654 18.5807 40.258 18.5807C38.5507 18.5807 37.1613 19.9701 37.1613 21.6775ZM41.2903 21.6775C41.2903 22.2473 40.8268 22.7097 40.258 22.7097C39.6893 22.7097 39.2258 22.2473 39.2258 21.6775C39.2258 21.1077 39.6893 20.6452 40.258 20.6452C40.8268 20.6452 41.2903 21.1077 41.2903 21.6775Z" fill="#0F3460"/>
</svg>
