<svg width="70" height="64" viewBox="0 0 70 64" fill="none" xmlns="http://www.w3.org/2000/svg">
<path d="M28.6923 23.244H60.2918C60.8602 23.244 61.321 22.7886 61.321 22.2267C61.321 21.6649 60.8602 21.2095 60.2918 21.2095H28.6923C28.1238 21.2095 27.6631 21.6649 27.6631 22.2267C27.6631 22.7886 28.1238 23.244 28.6923 23.244Z" fill="#0F3460"/>
<path d="M28.6923 30.656H60.2918C60.8602 30.656 61.321 30.2006 61.321 29.6387C61.321 29.0769 60.8602 28.6215 60.2918 28.6215H28.6923C28.1238 28.6215 27.6631 29.0769 27.6631 29.6387C27.6631 30.2006 28.1238 30.656 28.6923 30.656Z" fill="#0F3460"/>
<path d="M37.133 36.0371H24.9286C24.3602 36.0371 23.8994 36.4925 23.8994 37.0544C23.8994 37.6162 24.3602 38.0716 24.9286 38.0716H37.133C37.7015 38.0716 38.1622 37.6162 38.1622 37.0544C38.1622 36.4925 37.7015 36.0371 37.133 36.0371Z" fill="#0F3460"/>
<path d="M10.6221 37.0544C10.6221 37.6162 11.0829 38.0716 11.6513 38.0716H19.4865C20.0549 38.0716 20.5157 37.6162 20.5157 37.0544C20.5157 36.4925 20.0549 36.0371 19.4865 36.0371H11.6513C11.0828 36.0372 10.6221 36.4927 10.6221 37.0544Z" fill="#0F3460"/>
<path d="M13.6 33.0668C14.1685 33.0668 14.6292 32.6114 14.6292 32.0496C14.6292 31.4877 14.1685 31.0323 13.6 31.0323C13.0254 31.0323 12.3405 30.7463 12.3405 29.383V27.9487C12.3405 27.1104 12.0926 26.5423 11.7647 26.1498C12.0925 25.7571 12.3405 25.189 12.3405 24.3514V22.9171C12.3405 21.554 13.0254 21.2679 13.6 21.2679C14.1685 21.2679 14.6292 20.8125 14.6292 20.2507C14.6292 19.6888 14.1685 19.2334 13.6 19.2334C11.9484 19.2334 10.2819 20.3725 10.2819 22.917V24.3512C10.2819 24.8855 10.1836 24.9216 9.71129 25.0955C9.60315 25.1354 9.49147 25.1765 9.37762 25.2285C8.86172 25.4644 8.637 26.069 8.87561 26.5789C8.96931 26.7791 9.12157 26.9331 9.30203 27.0343C9.32396 27.0485 9.60846 27.1691 9.71101 27.2065C10.1836 27.3784 10.2819 27.4142 10.2819 27.9485V29.3827C10.2819 31.9278 11.9484 33.0668 13.6 33.0668Z" fill="#D23F57"/>
<path d="M20.2132 29.2229C20.2132 30.5861 19.5283 30.8721 18.9537 30.8721C18.3852 30.8721 17.9245 31.3275 17.9245 31.8894C17.9245 32.4512 18.3852 32.9066 18.9537 32.9066C20.6053 32.9066 22.2717 31.7676 22.2717 29.2231V27.7926C22.2717 27.2583 22.3701 27.2221 22.8424 27.0483C22.9455 27.0103 23.052 26.9705 23.1603 26.9219C23.1632 26.9206 23.2074 26.8994 23.2194 26.8915C23.4157 26.7903 23.5818 26.628 23.6805 26.4135C23.916 25.9022 23.6875 25.299 23.1702 25.0663C23.0584 25.0161 22.9486 24.976 22.8425 24.9375C22.3699 24.7656 22.2716 24.7297 22.2716 24.1954V22.7611C22.2716 20.2165 20.6051 19.0774 18.9535 19.0774C18.3851 19.0774 17.9243 19.5328 17.9243 20.0947C17.9243 20.6565 18.3851 21.1119 18.9535 21.1119C19.5281 21.1119 20.213 21.398 20.213 22.7612V24.1955C20.213 25.0337 20.4609 25.6018 20.7889 25.9944C20.461 26.3871 20.213 26.9552 20.213 27.7928V29.2229H20.2132Z" fill="#D23F57"/>
<path d="M36.4538 43.4493H11.516C10.9476 43.4493 10.4868 43.9047 10.4868 44.4666C10.4868 45.0285 10.9476 45.4839 11.516 45.4839H36.4536C37.0221 45.4839 37.4828 45.0285 37.4828 44.4666C37.4828 43.9047 37.0221 43.4493 36.4538 43.4493Z" fill="#0F3460"/>
<path d="M36.3185 50.865H11.3808C10.8123 50.865 10.3516 51.3204 10.3516 51.8823C10.3516 52.4441 10.8123 52.8995 11.3808 52.8995H36.3184C36.8868 52.8995 37.3476 52.4441 37.3476 51.8823C37.3476 51.3204 36.8868 50.865 36.3185 50.865Z" fill="#0F3460"/>
<path d="M58.9207 10.5641C60.6928 10.5641 62.1344 9.13915 62.1344 7.38771C62.1344 5.63627 60.6928 4.21143 58.9207 4.21143C57.1465 4.21143 55.7031 5.63627 55.7031 7.38771C55.7031 9.13915 57.1464 10.5641 58.9207 10.5641ZM58.9207 6.24595C59.5578 6.24595 60.076 6.75822 60.076 7.38785C60.076 8.01747 59.5577 8.52974 58.9207 8.52974C58.2815 8.52974 57.7614 8.01747 57.7614 7.38785C57.7614 6.75822 58.2814 6.24595 58.9207 6.24595Z" fill="#0F3460"/>
<path d="M49.6342 10.5641C51.4064 10.5641 52.848 9.13915 52.848 7.38771C52.848 5.63627 51.4064 4.21143 49.6342 4.21143C47.862 4.21143 46.4204 5.63627 46.4204 7.38771C46.4204 9.13915 47.862 10.5641 49.6342 10.5641ZM49.6342 6.24595C50.2713 6.24595 50.7896 6.75822 50.7896 7.38785C50.7896 8.01747 50.2711 8.52974 49.6342 8.52974C48.997 8.52974 48.4788 8.01747 48.4788 7.38785C48.4788 6.75822 48.997 6.24595 49.6342 6.24595Z" fill="#0F3460"/>
<path d="M40.3477 10.5641C42.1198 10.5641 43.5614 9.13915 43.5614 7.38771C43.5614 5.63627 42.1198 4.21143 40.3477 4.21143C38.5754 4.21143 37.1338 5.63627 37.1338 7.38771C37.1338 9.13915 38.5754 10.5641 40.3477 10.5641ZM40.3477 6.24595C40.9848 6.24595 41.503 6.75822 41.503 7.38785C41.503 8.01747 40.9846 8.52974 40.3477 8.52974C39.7107 8.52974 39.1922 8.01747 39.1922 7.38785C39.1921 6.75822 39.7106 6.24595 40.3477 6.24595Z" fill="#0F3460"/>
<path d="M61.785 0H7.94195C3.56281 0 0 3.52121 0 7.84936V56.147C0 60.477 3.56281 64 7.94195 64H61.785C66.1663 64 69.7308 60.477 69.7308 56.1469V7.84936C69.7308 3.52121 66.1663 0 61.785 0ZM61.785 61.9656H7.94195C4.69784 61.9656 2.05842 59.3554 2.05842 56.147V14.9585H17.1821C17.7506 14.9585 18.2113 14.5031 18.2113 13.9412C18.2113 13.3794 17.7506 12.924 17.1821 12.924H2.05856V7.84936C2.05856 4.64303 4.69784 2.03453 7.94209 2.03453H61.7851C65.0314 2.03453 67.6725 4.64303 67.6725 7.84936V12.9241H21.8948C21.3263 12.9241 20.8656 13.3795 20.8656 13.9414C20.8656 14.5032 21.3263 14.9586 21.8948 14.9586H67.6723V56.147C67.6723 59.3554 65.0313 61.9656 61.785 61.9656Z" fill="#0F3460"/>
<path d="M61.1094 42.4039H60.8348C60.7614 42.2092 60.6816 42.017 60.5958 41.8274L60.7874 41.638C61.1829 41.2471 61.4 40.7266 61.3987 40.1723C61.3973 39.6199 61.179 39.1026 60.7882 38.72L58.7959 36.747C58.4017 36.3575 57.8767 36.143 57.3174 36.143C56.7582 36.143 56.233 36.3576 55.839 36.747L55.6475 36.9362C55.4553 36.851 55.2607 36.7721 55.0639 36.6996V36.4286C55.0639 35.2914 54.1261 34.3662 52.9734 34.3662H50.1557C49.0029 34.3662 48.0651 35.2914 48.0651 36.4286V36.7575C47.8848 36.8272 47.7061 36.9025 47.5292 36.9833L47.29 36.747C46.8958 36.3573 46.3711 36.143 45.8122 36.143C45.8104 36.143 45.8088 36.143 45.8072 36.143C45.2495 36.1443 44.7274 36.359 44.3364 36.7475L42.3449 38.7159C41.9499 39.1026 41.7316 39.6199 41.7302 40.1723C41.7289 40.7266 41.9461 41.247 42.3413 41.6378L42.6382 41.9311C42.569 42.0873 42.5045 42.2449 42.4442 42.4038H42.0194C40.8688 42.4038 39.9326 43.3308 39.9326 44.47V47.2547C39.9326 48.3941 40.8687 49.3209 42.0194 49.3209H42.5041C42.561 49.4647 42.6212 49.6068 42.6848 49.7476L42.3416 50.0868C41.5263 50.8925 41.5263 52.2035 42.3423 53.0099L44.3336 54.9742C44.7248 55.3647 45.2482 55.5804 45.8073 55.5817H45.8123C46.3713 55.5817 46.8959 55.3674 47.2903 54.9776L47.6315 54.6402C47.7746 54.7035 47.9192 54.7633 48.0652 54.8195V55.2958C48.0652 56.4352 49.0031 57.362 50.1558 57.362H52.9735C54.1262 57.362 55.0641 56.435 55.0641 55.2958V54.8761C55.2245 54.817 55.3844 54.7531 55.5432 54.6851L55.839 54.9774C56.2331 55.367 56.7582 55.5816 57.3175 55.5816C57.8769 55.5816 58.4019 55.3671 58.796 54.9774L60.7877 53.0091C61.1818 52.6195 61.3989 52.1005 61.3989 51.5479C61.3989 50.9952 61.1818 50.4763 60.7877 50.0866L60.5494 49.8511C60.6311 49.6764 60.7075 49.4994 60.778 49.3207H61.1097C62.2625 49.3207 63.2004 48.3937 63.2004 47.2545V44.4697C63.2001 43.3308 62.2623 42.4039 61.1094 42.4039ZM61.1417 47.2549C61.1417 47.2691 61.1238 47.2867 61.1094 47.2867H60.0442C59.5891 47.2867 59.188 47.5821 59.0579 48.0132C58.8979 48.5429 58.6752 49.0586 58.396 49.5458C58.1679 49.9437 58.2364 50.4433 58.5637 50.7665L59.3318 51.5256C59.343 51.5365 59.343 51.56 59.3318 51.5709L57.3401 53.5393C57.3356 53.5437 57.299 53.544 57.2942 53.5393L56.4836 52.7381C56.165 52.4234 55.6765 52.3501 55.2776 52.5568C54.7794 52.8152 54.2672 53.0185 53.7551 53.1613C53.3115 53.285 53.0052 53.6849 53.0052 54.1403V55.2962C53.0052 55.3106 52.9909 55.328 52.9731 55.328H50.1554C50.1411 55.328 50.1233 55.3105 50.1233 55.2962V54.0945C50.1233 53.6446 49.8242 53.2481 49.3879 53.1197C48.8804 52.9703 48.3877 52.7661 47.9237 52.5134C47.7677 52.4282 47.5966 52.3869 47.4269 52.3869C47.1604 52.3869 46.8968 52.4891 46.6988 52.6849L45.8344 53.5394C45.8321 53.5417 45.8261 53.5476 45.8119 53.5476H45.8118C45.8005 53.5476 45.7969 53.544 45.7916 53.5387L43.797 51.571C43.7859 51.5601 43.7859 51.5367 43.7971 51.5258L44.6616 50.6713C44.9841 50.3525 45.0559 49.8619 44.8379 49.4659C44.5835 49.0039 44.3755 48.5133 44.2198 48.0078C44.0877 47.5796 43.6881 47.2869 43.2352 47.2869H42.0192C42.0068 47.2869 41.9909 47.2714 41.9909 47.2551V44.4704C41.9909 44.4541 42.0068 44.4386 42.0192 44.4386H43.1887C43.6495 44.4386 44.0541 44.136 44.1792 43.6977C44.3257 43.1853 44.5313 42.6828 44.7908 42.2041C45.005 41.8089 44.9321 41.3217 44.6114 41.0046L43.797 40.1996C43.7946 40.1973 43.7886 40.1914 43.7886 40.1774C43.7886 40.1664 43.7923 40.1627 43.797 40.1581L45.7923 38.1859C45.7934 38.1848 45.7946 38.1836 45.7956 38.1825C45.7968 38.1813 45.8004 38.1776 45.8117 38.1776H45.8118C45.8258 38.1776 45.8319 38.1836 45.8341 38.1857L46.6021 38.9448C46.9286 39.2674 47.4322 39.3358 47.8347 39.1122C48.3337 38.8348 48.8569 38.6141 49.3897 38.456C49.8251 38.3269 50.1231 37.9309 50.1231 37.4817V36.4289C50.1231 36.4166 50.1388 36.4009 50.1553 36.4009H52.973C52.9919 36.4009 53.0051 36.4156 53.0051 36.4289V37.4361C53.0051 37.8912 53.311 38.2908 53.754 38.4148C54.3076 38.5697 54.8474 38.7884 55.3582 39.0646C55.7591 39.2815 56.2568 39.2111 56.5802 38.8916L57.2944 38.1857C57.2988 38.1813 57.3364 38.182 57.3393 38.1852L59.3351 40.1615C59.3363 40.1627 59.34 40.1662 59.34 40.1774C59.34 40.1914 59.334 40.1975 59.3315 40.1998L58.6175 40.9055C58.2943 41.225 58.2231 41.7168 58.4425 42.113C58.72 42.6143 58.9413 43.1482 59.1004 43.7C59.2264 44.1371 59.6305 44.4386 60.0903 44.4386H61.1093C61.1237 44.4386 61.1415 44.4561 61.1415 44.4704V47.2549H61.1417Z" fill="#D23F57"/>
<path d="M51.5642 40.5424C48.5959 40.5424 46.1812 42.929 46.1812 45.8624C46.1812 48.7959 48.5959 51.1825 51.5642 51.1825C54.5324 51.1825 56.9471 48.7959 56.9471 45.8624C56.9471 42.929 54.5322 40.5424 51.5642 40.5424ZM51.5642 49.1481C49.731 49.1481 48.2396 47.6742 48.2396 45.8624C48.2396 44.0506 49.7312 42.5767 51.5642 42.5767C53.3973 42.5767 54.8886 44.0508 54.8886 45.8624C54.8886 47.6741 53.3972 49.1481 51.5642 49.1481Z" fill="#D23F57"/>
</svg>
