<svg width="42" height="43" viewBox="0 0 42 43" fill="none" xmlns="http://www.w3.org/2000/svg">
<g clip-path="url(#clip0)">
<path d="M41.3952 15.3174L36.738 3.20857C35.8555 0.919521 33.2844 -0.220668 30.9953 0.661846C30.9621 0.674687 30.929 0.687874 30.896 0.701495L7.62232 10.3491C5.40623 11.2582 4.31705 13.7666 5.16599 16.0065L5.80593 17.7146H4.33796C1.94332 17.7173 0.00268954 19.6579 0 22.0526V37.6692C0.00268954 40.0639 1.94332 42.0045 4.33796 42.0072H33.8361C36.2307 42.0045 38.1714 40.0639 38.174 37.6692V22.0526C38.1727 21.8171 38.1517 21.5822 38.1116 21.3502L38.9174 21.024C41.1533 20.1075 42.2522 17.5768 41.3952 15.3174ZM4.33796 19.1028H33.8361C35.3939 19.1073 36.679 20.3239 36.7685 21.8791H1.4055C1.49503 20.3238 2.78011 19.1072 4.33796 19.1028ZM11.3141 14.9218L15.9533 12.6015L16.9069 14.987L12.2677 17.3066L11.3141 14.9218ZM36.7859 37.6693C36.784 39.2977 35.4645 40.6172 33.8361 40.6191H4.33796C2.70958 40.6172 1.39006 39.2977 1.38815 37.6693V28.8199H36.7859V37.6693ZM36.7859 27.4317H1.38815V23.2673H36.7859V27.4317ZM38.3968 19.7414L37.6715 20.035C36.9224 18.6101 35.446 17.717 33.8361 17.7147H14.5561L18.0994 15.9427C18.4224 15.7814 18.5679 15.3994 18.4339 15.064L16.9618 11.3854C16.8194 11.0296 16.4155 10.8564 16.0596 10.9987C16.0417 11.0059 16.0241 11.0138 16.0068 11.0224L10.1218 13.9667C9.79893 14.1283 9.65378 14.5103 9.78791 14.8454L10.9359 17.7147H7.28777L6.46599 15.5228C5.8834 13.9839 6.6317 12.2608 8.15398 11.636L31.427 1.98839C32.9828 1.34325 34.7671 2.08149 35.4123 3.63734C35.4224 3.66154 35.4321 3.68592 35.4415 3.71039L40.0987 15.8192C40.6879 17.3717 39.9332 19.1111 38.3968 19.7414Z" fill="#2B3445"/>
<path d="M24.967 38.6665C26.2604 39.4179 27.8576 39.4179 29.151 38.6665C31.1397 39.8218 33.6885 39.1462 34.8438 37.1576C35.9992 35.1689 35.3236 32.62 33.3349 31.4647C32.6966 31.0939 31.9713 30.8993 31.2332 30.9011C30.5015 30.9014 29.7829 31.0959 29.151 31.4647C27.1623 30.3093 24.6135 30.9848 23.4581 32.9735C22.3027 34.9623 22.9783 37.511 24.967 38.6665ZM30.3115 32.4587C30.6067 32.3499 30.9185 32.2926 31.2332 32.2893C32.7665 32.2893 34.0095 33.5323 34.0095 35.0656C34.0095 36.5989 32.7665 37.8419 31.2332 37.8419C30.9185 37.8386 30.6067 37.7814 30.3115 37.6726C31.5403 36.1518 31.5403 33.9794 30.3115 32.4587ZM29.151 33.2485C30.0764 34.2832 30.0764 35.848 29.151 36.8827C28.2255 35.848 28.2255 34.2831 29.151 33.2485ZM27.0687 32.2893C27.3834 32.2925 27.6952 32.3499 27.9905 32.4587C26.7616 33.9794 26.7616 36.1518 27.9905 37.6726C27.6952 37.7814 27.3834 37.8386 27.0687 37.8419C25.5354 37.8419 24.2924 36.5989 24.2924 35.0656C24.2924 33.5322 25.5354 32.2893 27.0687 32.2893Z" fill="#2B3445"/>
<path d="M29.2776 14.6866L29.8415 15.9551L36.463 13.0117L35.8991 11.7432L29.2776 14.6866Z" fill="#2B3445"/>
<path d="M34.4214 8.80622L24.8572 13.2207L25.4387 14.4805L35.0028 10.066L34.4214 8.80622Z" fill="#2B3445"/>
</g>
<defs>
<clipPath id="clip0">
<rect width="41.686" height="41.686" fill="white" transform="translate(0 0.341797)"/>
</clipPath>
</defs>
</svg>
