<svg width="22" height="22" viewBox="0 0 22 22" fill="none" xmlns="http://www.w3.org/2000/svg">
<path d="M22 7.00391V5.84375C22 4.51481 20.9227 3.4375 19.5938 3.4375H2.40625C1.07731 3.4375 0 4.51481 0 5.84375V7.00391C0 7.12254 0.096207 7.21875 0.214844 7.21875H21.7852C21.9038 7.21875 22 7.12254 22 7.00391Z" fill="#E94560"/>
<path d="M0 8.80859V16.1562C0 17.4852 1.07731 18.5625 2.40625 18.5625H19.5938C20.9227 18.5625 22 17.4852 22 16.1562V8.80859C22 8.68996 21.9038 8.59375 21.7852 8.59375H0.214844C0.096207 8.59375 0 8.68996 0 8.80859ZM5.5 14.4375C5.5 14.8172 5.19217 15.125 4.8125 15.125H4.125C3.74533 15.125 3.4375 14.8172 3.4375 14.4375V13.75C3.4375 13.3703 3.74533 13.0625 4.125 13.0625H4.8125C5.19217 13.0625 5.5 13.3703 5.5 13.75V14.4375Z" fill="#E94560"/>
</svg>
