<svg width="24" height="24" viewBox="0 0 24 24" fill="none" xmlns="http://www.w3.org/2000/svg">
<path d="M6 9.5C6 9.08579 6.33579 8.75 6.75 8.75H9.75C10.1642 8.75 10.5 9.08579 10.5 9.5C10.5 9.91421 10.1642 10.25 9.75 10.25H6.75C6.33579 10.25 6 9.91421 6 9.5Z" fill="#7D879C"/>
<path fill-rule="evenodd" clip-rule="evenodd" d="M6 5C4.34315 5 3 6.34315 3 8V15.5C3 17.1569 4.34315 18.5 6 18.5H18C19.6569 18.5 21 17.1569 21 15.5V8C21 6.34315 19.6569 5 18 5H6ZM18 6.5H6C5.17157 6.5 4.5 7.17157 4.5 8V13.25H19.5V8C19.5 7.17157 18.8284 6.5 18 6.5ZM19.5 14.75H4.5V15.5C4.5 16.3284 5.17157 17 6 17H18C18.8284 17 19.5 16.3284 19.5 15.5V14.75Z" fill="#7D879C"/>
</svg>
