<svg width="64" height="64" viewBox="0 0 64 64" fill="none" xmlns="http://www.w3.org/2000/svg">
<g clip-path="url(#clip0)">
<path d="M64 35C64 29.7922 60.3063 25.5161 55.6427 25.153C55.0896 23.2889 53.5951 21.8263 51.712 21.3189C50.4563 10.996 42.0737 3.125 32 3.125C21.9263 3.125 13.5437 10.996 12.2881 21.3189C10.405 21.8263 8.91038 23.2887 8.35738 25.153C8.19538 25.1656 8.03463 25.183 7.87512 25.205V13C7.87512 11.9645 7.03562 11.125 6.00012 11.125C4.96462 11.125 4.12512 11.9645 4.12512 13V26.7057C1.6455 28.4662 0 31.5252 0 35C0 40.2077 3.69375 44.4839 8.35725 44.847C8.90863 46.7052 10.3954 48.1641 12.2701 48.676C13.0689 53.3252 17.1264 56.875 22 56.875H22.4336C23.2181 59.1975 25.4161 60.875 28 60.875H36C39.2395 60.875 41.875 58.2395 41.875 55C41.875 51.7605 39.2395 49.125 36 49.125H28C25.4161 49.125 23.2181 50.8025 22.4336 53.125H22C19.1646 53.125 16.7738 51.188 16.0793 48.568C18.2852 47.807 19.875 45.7113 19.875 43.25V26.75C19.875 24.2801 18.2743 22.1785 16.0562 21.4242C17.2275 13.1423 23.9495 6.875 32 6.875C40.0505 6.875 46.7725 13.1423 47.9437 21.4242C45.7257 22.1785 44.125 24.2801 44.125 26.75V43.25C44.125 46.3516 46.6484 48.875 49.75 48.875H50.25C52.7969 48.875 54.9526 47.173 55.6427 44.847C60.3063 44.4839 64 40.2077 64 35ZM28 52.875H36C37.1717 52.875 38.125 53.8283 38.125 55C38.125 56.1717 37.1717 57.125 36 57.125H28C26.8283 57.125 25.875 56.1717 25.875 55C25.875 53.8283 26.8283 52.875 28 52.875ZM3.75 35C3.75 32.0266 5.67812 29.4665 8.125 28.9641V41.0358C5.67812 40.5335 3.75 37.9734 3.75 35ZM16.125 43.25C16.125 44.2839 15.2839 45.125 14.25 45.125H13.75C12.7161 45.125 11.875 44.2839 11.875 43.25C11.875 37.2332 11.875 32.312 11.875 26.75C11.875 25.7161 12.7161 24.875 13.75 24.875H14.25C15.2839 24.875 16.125 25.7161 16.125 26.75V43.25ZM52.125 43.25C52.125 44.2839 51.2839 45.125 50.25 45.125H49.75C48.7161 45.125 47.875 44.2839 47.875 43.25V26.75C47.875 25.7161 48.7161 24.875 49.75 24.875H50.25C51.2839 24.875 52.125 25.7161 52.125 26.75V43.25ZM55.875 41.0359V28.9643C58.3219 29.4666 60.25 32.0268 60.25 35.0001C60.25 37.9735 58.3219 40.5335 55.875 41.0359Z" fill="#A3B3DB"/>
</g>
<defs>
<clipPath id="clip0">
<rect width="64" height="64" fill="white"/>
</clipPath>
</defs>
</svg>
