<svg width="24" height="24" viewBox="0 0 24 24" fill="none" xmlns="http://www.w3.org/2000/svg">
<path fill-rule="evenodd" clip-rule="evenodd" d="M16.2222 4.83333V3.88889C16.2222 2.84568 15.3765 2 14.3333 2H8.66667C7.62346 2 6.77778 2.84568 6.77778 3.88889V4.83333H3.94444C3.42284 4.83333 3 5.25618 3 5.77778C3 6.29938 3.42284 6.72222 3.94444 6.72222H4.88889V17.1111C4.88889 18.6759 6.15742 19.9444 7.72222 19.9444H15.2778C16.8426 19.9444 18.1111 18.6759 18.1111 17.1111V6.72222H19.0556C19.5772 6.72222 20 6.29938 20 5.77778C20 5.25618 19.5772 4.83333 19.0556 4.83333H16.2222ZM14.3333 3.88889H8.66667V4.83333H14.3333V3.88889ZM16.2222 6.72222H6.77778V17.1111C6.77778 17.6327 7.20062 18.0556 7.72222 18.0556H15.2778C15.7994 18.0556 16.2222 17.6327 16.2222 17.1111V6.72222Z" fill="#4B566B"/>
<path d="M8.66667 8.61111H10.5556V16.1667H8.66667V8.61111Z" fill="#4B566B"/>
<path d="M12.4444 8.61111H14.3333V16.1667H12.4444V8.61111Z" fill="#4B566B"/>
</svg>
