<svg width="20" height="20" viewBox="0 0 20 20" fill="none" xmlns="http://www.w3.org/2000/svg">
<g clip-path="url(#clip0)">
<path d="M13.4333 1.60733L4.3575 6.25399L0.75 4.47899L9.66583 0.0764941C9.86583 -0.0251725 10.1058 -0.0251725 10.3158 0.0764941L13.4333 1.60733Z" fill="#E94560"/>
<path d="M19.2402 4.47912L10.0052 9.05412L6.54687 7.34995L6.04688 7.09579L15.1327 2.44995L15.6327 2.70328L19.2402 4.47912Z" fill="#E94560"/>
<path d="M9.265 10.3726L9.255 20.0001L0.41 15.3843C0.16 15.2526 0 14.9884 0 14.7043V5.79761L3.74833 7.64427V10.8909C3.74833 11.3068 4.08833 11.6518 4.49833 11.6518C4.90833 11.6518 5.24833 11.3068 5.24833 10.8909V8.39511L5.74833 8.63844L9.265 10.3726Z" fill="#E94560"/>
<path d="M19.9889 5.80737L10.7639 10.3624L10.7539 19.9899L19.9989 15.1624L19.9889 5.80737Z" fill="#E94560"/>
</g>
<defs>
<clipPath id="clip0">
<rect width="20" height="20" fill="white"/>
</clipPath>
</defs>
</svg>
