<svg width="43" height="43" viewBox="0 0 43 43" fill="none" xmlns="http://www.w3.org/2000/svg">
<g clip-path="url(#clip0)">
<path d="M35.0295 27.754C34.0109 27.754 33.0432 28.1529 32.3132 28.8744C31.5832 29.6044 31.1758 30.5551 31.1758 31.5737C31.1758 32.5923 31.5748 33.543 32.3132 34.273C33.0517 34.9945 34.0109 35.3934 35.0295 35.3934C37.1176 35.3934 38.8153 33.6788 38.8153 31.5737C38.8153 29.4686 37.1176 27.754 35.0295 27.754ZM35.0295 33.6958C33.8581 33.6958 32.8735 32.7281 32.8735 31.5737C32.8735 30.4193 33.8581 29.4516 35.0295 29.4516C36.1839 29.4516 37.1176 30.4023 37.1176 31.5737C37.1176 32.7451 36.1839 33.6958 35.0295 33.6958ZM36.0141 15.03C35.8613 14.8857 35.6576 14.8093 35.4454 14.8093H31.0909C30.6241 14.8093 30.2421 15.1913 30.2421 15.6581V22.6185C30.2421 23.0854 30.6241 23.4674 31.0909 23.4674H38.0004C38.4673 23.4674 38.8492 23.0854 38.8492 22.6185V17.9585C38.8492 17.7208 38.7474 17.4916 38.5691 17.3303L36.0141 15.03ZM37.1516 21.7697H31.9398V16.4985H35.1144L37.1516 18.332V21.7697ZM14.3011 27.754C13.2825 27.754 12.3148 28.1529 11.5848 28.8744C10.8548 29.6044 10.4474 30.5551 10.4474 31.5737C10.4474 32.5923 10.8463 33.543 11.5848 34.273C12.3233 34.9945 13.2825 35.3934 14.3011 35.3934C16.3892 35.3934 18.0868 33.6788 18.0868 31.5737C18.0868 29.4686 16.3892 27.754 14.3011 27.754ZM14.3011 33.6958C13.1297 33.6958 12.145 32.7281 12.145 31.5737C12.145 30.4193 13.1297 29.4516 14.3011 29.4516C15.4555 29.4516 16.3892 30.4023 16.3892 31.5737C16.3892 32.7451 15.4555 33.6958 14.3011 33.6958ZM8.63937 28.798H6.93322V26.5401C6.93322 26.0733 6.55125 25.6913 6.0844 25.6913C5.61754 25.6913 5.23557 26.0733 5.23557 26.5401V29.6469C5.23557 30.1137 5.61754 30.4957 6.0844 30.4957H8.63937C9.10623 30.4957 9.4882 30.1137 9.4882 29.6469C9.4882 29.18 9.10623 28.798 8.63937 28.798ZM12.9429 24.1719C12.9429 23.705 12.561 23.3231 12.0941 23.3231H1.7978C1.33095 23.3231 0.948975 23.705 0.948975 24.1719C0.948975 24.6388 1.33095 25.0207 1.7978 25.0207H12.0941C12.561 25.0207 12.9429 24.6472 12.9429 24.1719ZM3.52093 21.1076L13.8172 21.167C14.2841 21.167 14.6661 20.7936 14.6746 20.3267C14.683 19.8514 14.3011 19.4694 13.8342 19.4694L3.53791 19.41C3.52942 19.41 3.52942 19.41 3.52942 19.41C3.06256 19.41 2.68059 19.7835 2.68059 20.2503C2.6721 20.7257 3.05407 21.1076 3.52093 21.1076ZM5.25254 17.2539H15.5488C16.0157 17.2539 16.3977 16.872 16.3977 16.4051C16.3977 15.9383 16.0157 15.5563 15.5488 15.5563H5.25254C4.78569 15.5563 4.40371 15.9383 4.40371 16.4051C4.40371 16.872 4.78569 17.2539 5.25254 17.2539ZM42.3209 16.108L36.2433 11.0745C36.0905 10.9471 35.9038 10.8792 35.7001 10.8792H28.5529V7.82344C28.5529 7.35658 28.1709 6.97461 27.7041 6.97461H6.0844C5.61754 6.97461 5.23557 7.35658 5.23557 7.82344V14.0369C5.23557 14.5037 5.61754 14.8857 6.0844 14.8857C6.55125 14.8857 6.93322 14.5037 6.93322 14.0369V8.67227H26.8637V28.798H19.9033C19.4365 28.798 19.0545 29.18 19.0545 29.6469C19.0545 30.1137 19.4365 30.4957 19.9033 30.4957H30.2676C30.7344 30.4957 31.1164 30.1137 31.1164 29.6469C31.1164 29.18 30.7344 28.798 30.2676 28.798H28.5614V12.5769H35.403L40.9373 17.1606L40.8779 28.781H39.9951C39.5283 28.781 39.1463 29.163 39.1463 29.6299C39.1463 30.0967 39.5283 30.4787 39.9951 30.4787H41.7183C42.1851 30.4787 42.5671 30.1052 42.5671 29.6384L42.635 16.7701C42.6265 16.5155 42.5162 16.2693 42.3209 16.108Z" fill="#2B3445"/>
</g>
<defs>
<clipPath id="clip0">
<rect width="41.686" height="41.686" fill="white" transform="translate(0.948975 0.341797)"/>
</clipPath>
</defs>
</svg>
