<svg width="28" height="29" viewBox="0 0 28 29" fill="none" xmlns="http://www.w3.org/2000/svg">
<path fill-rule="evenodd" clip-rule="evenodd" d="M7.42678 6.33331H13.3539C14.1919 6.33331 14.8706 7.01202 14.8706 7.84998V12.4C14.8706 13.2379 14.1919 13.9166 13.3539 13.9166H9.9308C9.63657 14.7167 9.20432 16.1393 8.94497 18.1171C8.88278 18.5903 9.03748 19.0672 9.37494 19.4047L9.52812 19.5579C9.75411 19.7846 9.88606 20.1054 9.85724 20.4573C9.80795 21.0624 9.24754 21.5 8.64087 21.5H5.77892C4.86437 21.5 4.16898 20.7037 4.25619 19.7945C4.49279 17.3261 5.18894 15.4963 5.73342 14.3906C5.91467 14.0221 5.75542 13.5981 5.39976 13.3934C3.99153 12.5827 3.15054 10.9076 3.64042 9.07848C4.08708 7.41394 5.70385 6.33331 7.42678 6.33331ZM17.9039 9.38335V9.36667L16.3873 7.85H15.6289V12.4H16.3873L19.4039 9.38335H17.9039ZM20.9205 9.38332L19.4039 10.9H20.9205L22.4372 9.38332H20.9205ZM11.0008 14.6826L10.4715 14.6811C10.244 15.3863 9.97631 16.4025 9.77535 17.6886H10.9985C11.4171 17.6886 11.7569 17.3489 11.7569 16.9303V15.4409C11.7569 15.0231 11.4187 14.6841 11.0008 14.6826ZM23.9539 9.38332H23.9706L24.7289 10.125L23.9706 10.9H22.4372L23.9539 9.38332Z" fill="#0F3460"/>
</svg>
