<svg width="24" height="24" viewBox="0 0 24 24" fill="none" xmlns="http://www.w3.org/2000/svg">
<path fill-rule="evenodd" clip-rule="evenodd" d="M19.5886 3.23702C19.2725 2.92099 18.7602 2.92099 18.4441 3.23702L17.7382 3.94295C16.8358 3.51187 15.7223 3.67005 14.9748 4.41748L6.39166 13.0007L10.9694 17.5783L19.5525 8.99517C20.2999 8.24774 20.4581 7.13419 20.027 6.2318L20.733 5.52586C21.049 5.20984 21.049 4.69746 20.733 4.38144L19.5886 3.23702ZM16.1348 10.1241L10.9694 15.2895L8.68051 13.0007L13.8459 7.83522L16.1348 10.1241ZM17.6062 8.65267L18.4081 7.85075C18.7241 7.53473 18.7241 7.02235 18.4081 6.70633L17.2637 5.5619C16.9476 5.24588 16.4353 5.24588 16.1193 5.5619L15.3173 6.36382L17.6062 8.65267Z" fill="#4B566B"/>
<path d="M4 19.9535L5.71695 13.6589L10.2943 18.2369L4 19.9535Z" fill="#4B566B"/>
</svg>
