<svg width="22" height="22" viewBox="0 0 22 22" fill="none" xmlns="http://www.w3.org/2000/svg">
<path d="M22 11C22 4.95 17.05 8.84871e-08 11 5.70885e-08C4.95 2.56898e-08 -2.56898e-08 4.95 -5.70885e-08 11C-8.56327e-08 16.5 3.9875 21.0375 9.2125 21.8625L9.2125 14.1625L6.4625 14.1625L6.4625 11L9.2125 11L9.2125 8.525C9.2125 5.775 10.8625 4.2625 13.3375 4.2625C14.575 4.2625 15.8125 4.5375 15.8125 4.5375L15.8125 7.2875L14.4375 7.2875C13.0625 7.2875 12.65 8.1125 12.65 8.9375L12.65 11L15.675 11L15.125 14.1625L12.5125 14.1625L12.5125 22C18.0125 21.175 22 16.5 22 11Z" fill="#4B566B"/>
</svg>
