<svg width="20" height="20" viewBox="0 0 20 20" fill="none" xmlns="http://www.w3.org/2000/svg">
<path fill-rule="evenodd" clip-rule="evenodd" d="M12.5969 6.66L11.6556 6.66062C10.9175 6.66062 10.7744 7.01125 10.7744 7.52563V8.66063H12.535L12.3056 10.4387H10.7744V15H8.93875V10.4387H7.40375V8.66063H8.93875V7.35C8.93875 5.82812 9.86812 5 11.225 5C11.875 5 12.4338 5.04813 12.5969 5.07V6.66ZM10 0C4.4775 0 0 4.47688 0 10C0 15.5225 4.4775 20 10 20C15.5231 20 20 15.5225 20 10C20 4.47688 15.5231 0 10 0Z" fill="white"/>
</svg>
