<?xml version="1.0" encoding="iso-8859-1"?>
<!-- Generator: Adobe Illustrator 21.0.0, SVG Export Plug-In . SVG Version: 6.00 Build 0)  -->
<svg xmlns="http://www.w3.org/2000/svg" xmlns:xlink="http://www.w3.org/1999/xlink" version="1.1" id="Capa_1" x="0px" y="0px" viewBox="0 0 512.032 512.032" style="enable-background:new 0 0 512.032 512.032;" xml:space="preserve" width="512" height="512">
<g>
	<path d="M265.214,250.175l-9.683-24.316l-9.683,24.316c-2.139,5.376-7.178,9.038-12.964,9.419l-26.118,1.685l20.127,16.729   c4.453,3.706,6.387,9.639,4.951,15.249l-6.46,25.356l22.134-13.989c4.893-3.076,11.133-3.076,16.025,0l22.119,13.975l-6.46-25.342   c-1.436-5.61,0.498-11.543,4.951-15.249l20.127-16.729l-26.104-1.685C272.392,259.213,267.353,255.551,265.214,250.175z"/>
	<path d="M498,183.642l-166.707-10.796L269.462,17.514c-4.541-11.396-23.32-11.396-27.861,0L179.77,172.846L14.032,183.642   c-6.138,0.396-11.396,4.497-13.301,10.342c-1.89,5.83-0.044,12.246,4.688,16.172l127.52,106.802L91.659,478.954   c-1.523,5.947,0.747,12.231,5.713,15.835c4.98,3.604,11.646,3.809,16.831,0.557l141.328-89.326l141.313,89.326   c5.209,3.274,11.851,3.06,16.831-0.557c4.966-3.604,7.236-9.873,5.713-15.835l-41.279-161.997l128.504-106.802   c4.731-3.926,6.577-10.342,4.688-16.172C509.396,188.139,504.138,184.037,498,183.642z M352.431,260.297l-41.821,34.731   l13.418,52.676c1.523,5.962-0.747,12.231-5.713,15.835c-4.979,3.615-11.62,3.832-16.831,0.557l-45.952-29.048l-45.967,29.048   c-5.215,3.252-11.851,3.062-16.831-0.557c-4.966-3.604-7.236-9.888-5.713-15.835l13.418-52.676l-41.821-34.731   c-4.731-3.926-6.577-10.342-4.688-16.172c1.904-5.845,7.163-9.946,13.301-10.342l54.258-3.516l20.112-50.508   c4.541-11.396,23.32-11.396,27.861,0l20.112,50.508l54.243,3.516c6.138,0.396,11.396,4.497,13.301,10.342   C359.008,249.955,357.162,256.371,352.431,260.297z"/>
	<circle cx="256" cy="488.066" r="15"/>
	<ellipse transform="matrix(0.309 -0.9511 0.9511 0.309 -11.2789 670.3931)" cx="455.722" cy="342.959" rx="15" ry="15"/>
	<ellipse transform="matrix(0.5878 -0.809 0.809 0.5878 68.8997 351.5639)" cx="379.435" cy="108.172" rx="15" ry="15"/>
	<ellipse transform="matrix(0.809 -0.5878 0.5878 0.809 -38.2638 98.5762)" cx="132.565" cy="108.172" rx="15" ry="15"/>
	<ellipse transform="matrix(0.9511 -0.309 0.309 0.9511 -103.2274 34.1774)" cx="56.278" cy="342.959" rx="15" ry="15"/>
</g>















</svg>
