<svg width="46" height="46" viewBox="0 0 46 46" fill="none" xmlns="http://www.w3.org/2000/svg">
<g clip-path="url(#clip0)">
<path d="M43.9203 43.7986C42.2978 45.4221 38.7078 46.0007 35.8889 46.0007C33.071 46.0007 29.4808 45.4221 27.8583 43.7986C27.2337 43.1733 26.7491 42.2425 26.4057 41.0116C25.7001 38.4852 25.5887 34.6929 26.0749 29.6743C26.6026 24.2315 27.6651 19.2443 27.6759 19.1949L27.7901 18.6621H43.9878L44.102 19.1949C44.1128 19.2443 45.1762 24.2315 45.7029 29.6743C46.4264 37.1385 45.8269 41.8912 43.9203 43.7986Z" fill="#81EBEB"/>
<path d="M43.9203 43.7986C42.2978 45.4221 38.7078 46.0007 35.8889 46.0007C33.071 46.0007 29.4808 45.4221 27.8583 43.7986C27.2336 43.1733 26.7491 42.2425 26.4057 41.0116C27.3927 41.9972 29.9815 44.2038 35.8889 44.2038C38.8831 44.2038 41.6624 43.5147 42.6485 42.5291C43.1024 42.0745 43.7074 41.0233 44.0139 38.5948C44.2952 36.373 44.261 33.4297 43.9141 29.8477C43.3982 24.5262 42.3554 19.6207 42.3446 19.5713L42.2305 19.0386L43.9859 18.6621H43.9877L44.1019 19.1949C44.1127 19.2443 45.1761 24.2315 45.7028 29.6743C46.4264 37.1385 45.8269 41.8912 43.9203 43.7986Z" fill="#00CEC8"/>
<path d="M42.0165 41.8929C42.0075 41.9019 41.9976 41.91 41.9886 41.919C41.2561 42.6126 38.9459 43.3053 35.8889 43.3053C32.794 43.3053 30.4641 42.5946 29.7631 41.8929C29.6282 41.7573 29.4098 41.4716 29.1905 40.9038C28.6592 39.5301 28.1226 36.5068 28.7519 29.9788C28.9137 28.296 29.1456 26.4847 29.4404 24.5944C29.4917 24.2638 29.7757 24.0275 30.1003 24.0248V24.0239C31.2777 24.0239 31.9133 24.4309 32.4239 24.7579C32.8788 25.049 33.2373 25.279 34.0203 25.279C34.8032 25.279 35.1619 25.049 35.6167 24.7579C36.1273 24.4309 36.7637 24.0239 37.9404 24.0239C39.1188 24.0239 39.7543 24.4309 40.2648 24.7579C40.5696 24.9529 40.8311 25.1209 41.2068 25.2099C41.3911 25.2539 41.6032 25.279 41.8612 25.279C42.2334 25.279 42.5354 25.58 42.5354 25.9529C42.7386 27.3688 42.8986 28.6446 43.0235 29.9338C43.9203 39.1976 42.4794 41.4294 42.0165 41.8929Z" fill="#FFF9E9"/>
<path d="M40.5509 40.3924C40.5403 40.403 40.5619 40.3825 40.5509 40.3924V40.3924Z" fill="#F9EFD9"/>
<path d="M43.0232 29.9339C43.9202 39.1977 42.4793 41.4295 42.0164 41.893C42.0074 41.902 41.9975 41.9101 41.9885 41.9191C41.2559 42.6127 38.9458 43.3054 35.8888 43.3054C32.7939 43.3054 30.464 42.5947 29.7629 41.893C29.6281 41.7574 29.4097 41.4717 29.1904 40.9039C30.2933 41.3899 32.1629 41.778 34.4506 41.778C37.5077 41.778 39.8178 41.0854 40.5504 40.3918C41.0133 39.9282 42.482 37.6704 41.585 28.4066C41.4834 27.3599 41.3594 26.3213 41.2066 25.21C41.3909 25.254 41.603 25.2791 41.861 25.2791C42.2332 25.2791 42.5352 25.5801 42.5352 25.953C42.7383 27.3689 42.8983 28.6447 43.0232 29.9339Z" fill="#F9EFD9"/>
<path d="M39.6749 13.2468L37.6605 13.7167L35.8942 14.1282L32.1143 13.2127C32.4712 12.1058 33.3008 11.2119 34.3642 10.768C33.9192 10.3566 33.6406 9.76809 33.6406 9.11402C33.6406 8.15719 34.2383 7.34051 35.0797 7.01617C35.3305 6.91824 35.6038 6.86523 35.8887 6.86523C37.131 6.86523 38.1368 7.87238 38.1368 9.11402C38.1368 9.76809 37.8581 10.3566 37.4132 10.768C38.4884 11.2164 39.3243 12.1247 39.6749 13.2468Z" fill="#FDEDA5"/>
<path d="M37.6605 13.7167L38.0569 13.2468C37.7063 12.1247 36.8703 11.2164 35.7954 10.768C36.2403 10.3566 36.5189 9.76809 36.5189 9.11402C36.5189 8.15719 35.9221 7.34051 35.0798 7.01617C35.3306 6.91824 35.6039 6.86523 35.8888 6.86523C37.1311 6.86523 38.1369 7.87238 38.1369 9.11402C38.1369 9.76809 37.8582 10.3566 37.4133 10.768C38.4883 11.2164 39.3242 12.1247 39.6748 13.2468L37.6605 13.7167Z" fill="#FBDF63"/>
<path d="M43.0576 15.0103C43.0576 15.5062 42.8562 15.9554 42.5317 16.2806C42.2072 16.6059 41.7578 16.8071 41.2616 16.8071L36.2511 17.7056L30.5164 16.8071C29.5249 16.8071 28.7213 16.0021 28.7213 15.0103C28.7213 14.5134 28.9217 14.0642 29.2471 13.7399C29.5717 13.4146 30.0202 13.2134 30.5164 13.2134H41.2615C42.2539 13.2134 43.0576 14.0175 43.0576 15.0103Z" fill="#FF6B81"/>
<path d="M43.0575 15.0103C43.0575 15.5062 42.8562 15.9554 42.5317 16.2806C42.2072 16.6059 41.7578 16.8071 41.2616 16.8071H39.1942C39.6904 16.8071 40.1398 16.6059 40.4643 16.2806C40.7888 15.9554 40.9901 15.5062 40.9901 15.0103C40.9901 14.0175 40.1866 13.2134 39.1942 13.2134H41.2616C42.2539 13.2134 43.0575 14.0175 43.0575 15.0103Z" fill="#ED2061"/>
<path d="M44.7069 18.0712C44.7069 18.7693 44.1406 19.3353 43.443 19.3353H28.3346C27.9859 19.3353 27.6703 19.1943 27.4421 18.9652C27.2129 18.7361 27.0717 18.4198 27.0717 18.0712C27.0717 17.3731 27.6371 16.8071 28.3346 16.8071H43.443C43.7917 16.8071 44.1073 16.9482 44.3365 17.1773C44.5657 17.4064 44.7069 17.7226 44.7069 18.0712Z" fill="#90ABBD"/>
<path d="M44.7069 18.0712C44.7069 18.7693 44.1406 19.3353 43.4431 19.3353H41.3757C42.0732 19.3353 42.6395 18.7693 42.6395 18.0712C42.6395 17.7226 42.4984 17.4064 42.2692 17.1773C42.04 16.9482 41.7245 16.8071 41.3757 16.8071H43.4431C43.7919 16.8071 44.1074 16.9482 44.3366 17.1773C44.5658 17.4064 44.7069 17.7226 44.7069 18.0712Z" fill="#56788B"/>
<path d="M31.7729 29.9429H33.2559C33.6283 29.9429 33.9301 29.6412 33.9301 29.269C33.9301 28.8969 33.6283 28.5952 33.2559 28.5952H31.7729C31.4004 28.5952 31.0987 28.8969 31.0987 29.269C31.0987 29.6412 31.4004 29.9429 31.7729 29.9429Z" fill="#90ABBD"/>
<path d="M31.7729 33.0874H34.6027C34.9751 33.0874 35.2768 32.7857 35.2768 32.4136C35.2768 32.0414 34.9751 31.7397 34.6027 31.7397H31.7729C31.4004 31.7397 31.0987 32.0414 31.0987 32.4136C31.0987 32.7857 31.4004 33.0874 31.7729 33.0874Z" fill="#90ABBD"/>
<path d="M31.7729 36.2319H33.2559C33.6283 36.2319 33.9301 35.9302 33.9301 35.5581C33.9301 35.186 33.6283 34.8843 33.2559 34.8843H31.7729C31.4004 34.8843 31.0987 35.186 31.0987 35.5581C31.0987 35.9302 31.4004 36.2319 31.7729 36.2319Z" fill="#90ABBD"/>
<path d="M34.6027 38.0288H31.7729C31.4004 38.0288 31.0987 38.3305 31.0987 38.7026C31.0987 39.0748 31.4004 39.3765 31.7729 39.3765H34.6027C34.9751 39.3765 35.2768 39.0748 35.2768 38.7026C35.2768 38.3305 34.975 38.0288 34.6027 38.0288Z" fill="#90ABBD"/>
<path d="M18.1423 36.9334C16.5198 38.5568 12.9297 39.1354 10.1108 39.1354C7.29285 39.1354 3.70269 38.5568 2.0802 36.9334C1.45552 36.308 0.970993 35.3773 0.62761 34.1464C-0.0780235 31.62 -0.18943 27.8277 0.296805 22.809C0.824457 17.3663 1.88695 12.3791 1.89773 12.3296L2.01192 11.7969H18.2097L18.3239 12.3296C18.3347 12.3791 19.398 17.3663 19.9248 22.809C20.6484 30.2732 20.0489 35.026 18.1423 36.9334Z" fill="#81EBEB"/>
<path d="M18.1423 36.9334C16.5198 38.5568 12.9298 39.1354 10.1108 39.1354C7.29286 39.1354 3.70271 38.5568 2.08022 36.9334C1.45553 36.308 0.971007 35.3773 0.627625 34.1464C1.61456 35.132 4.20332 37.3386 10.1108 37.3386C13.1049 37.3386 15.8843 36.6495 16.8704 35.6639C17.3244 35.2093 17.9293 34.1581 18.2357 31.7296C18.5171 29.5078 18.4829 26.5645 18.136 22.9824C17.62 17.661 16.5773 12.7555 16.5665 12.7061L16.4523 12.1733L18.2078 11.7969H18.2096L18.3238 12.3296C18.3346 12.3791 19.398 17.3663 19.9247 22.809C20.6484 30.2732 20.0489 35.026 18.1423 36.9334Z" fill="#00CEC8"/>
<path d="M16.2385 35.0277C16.2295 35.0367 16.2197 35.0448 16.2107 35.0538C15.4781 35.7474 13.1679 36.4401 10.1109 36.4401C7.01606 36.4401 4.68614 35.7294 3.98509 35.0277C3.85023 34.892 3.63182 34.6063 3.41251 34.0385C2.88127 32.6648 2.34463 29.6416 2.97389 23.1135C3.1357 21.4308 3.36759 19.6195 3.66246 17.7292C3.71367 17.3986 3.99775 17.1623 4.32227 17.1596V17.1587C5.49976 17.1587 6.13532 17.5657 6.6459 17.8927C7.10078 18.1838 7.45934 18.4138 8.24233 18.4138C9.02532 18.4138 9.38389 18.1838 9.83877 17.8927C10.3493 17.5657 10.9857 17.1587 12.1624 17.1587C13.3408 17.1587 13.9763 17.5657 14.4868 17.8927C14.7916 18.0877 15.0531 18.2557 15.4288 18.3446C15.6131 18.3887 15.8252 18.4138 16.0833 18.4138C16.4554 18.4138 16.7575 18.7148 16.7575 19.0876C16.9606 20.5036 17.1206 21.7794 17.2456 23.0686C18.1423 32.3324 16.7015 34.5641 16.2385 35.0277Z" fill="#FFF9E9"/>
<path d="M14.7729 33.5272C14.7622 33.5379 14.7838 33.5173 14.7729 33.5272V33.5272Z" fill="#F9EFD9"/>
<path d="M17.2452 23.0687C18.1423 32.3325 16.7014 34.5642 16.2384 35.0278C16.2294 35.0368 16.2195 35.0449 16.2105 35.0539C15.4779 35.7475 13.1678 36.4402 10.1108 36.4402C7.01593 36.4402 4.68601 35.7295 3.98496 35.0278C3.8501 34.8921 3.63169 34.6064 3.41238 34.0386C4.51531 34.5247 6.38495 34.9128 8.67265 34.9128C11.7298 34.9128 14.0398 34.2201 14.7724 33.5265C15.2354 33.0629 16.704 30.8052 15.807 21.5414C15.7054 20.4947 15.5814 19.4561 15.4286 18.3447C15.6129 18.3888 15.825 18.4139 16.083 18.4139C16.4552 18.4139 16.7572 18.7149 16.7572 19.0877C16.9603 20.5037 17.1203 21.7795 17.2452 23.0687Z" fill="#F9EFD9"/>
<path d="M13.8969 6.3816L11.8825 6.85149L10.1162 7.26297L6.33646 6.34746C6.69332 5.24059 7.52293 4.34664 8.58632 3.90281C8.14142 3.49133 7.86272 2.90285 7.86272 2.24879C7.86272 1.29195 8.46045 0.475273 9.30184 0.150938C9.55259 0.0530078 9.8259 0 10.1108 0C11.3531 0 12.3589 1.00715 12.3589 2.24879C12.3589 2.90285 12.0802 3.49133 11.6353 3.90281C12.7104 4.35113 13.5463 5.25945 13.8969 6.3816Z" fill="#FDEDA5"/>
<path d="M11.8826 6.85148L12.2789 6.3816C11.9284 5.25945 11.0924 4.35113 10.0174 3.90281C10.4623 3.49133 10.741 2.90285 10.741 2.24879C10.741 1.29195 10.1442 0.475273 9.30188 0.150937C9.55263 0.0530078 9.82594 0 10.1108 0C11.3531 0 12.3589 1.00715 12.3589 2.24879C12.3589 2.90285 12.0802 3.49133 11.6353 3.90281C12.7104 4.35113 13.5463 5.25945 13.8969 6.3816L11.8826 6.85148Z" fill="#FBDF63"/>
<path d="M17.2794 8.14502C17.2794 8.64096 17.0781 9.09017 16.7536 9.41541C16.429 9.74064 15.9796 9.94189 15.4834 9.94189L10.4729 10.8403L4.73822 9.94189C3.7468 9.94189 2.94315 9.13689 2.94315 8.14502C2.94315 7.64818 3.14359 7.19896 3.469 6.87463C3.79352 6.54939 4.24202 6.34814 4.73822 6.34814H15.4834C16.4758 6.34814 17.2794 7.15225 17.2794 8.14502Z" fill="#FFA402"/>
<path d="M17.2794 8.14502C17.2794 8.64096 17.0781 9.09017 16.7536 9.41541C16.4291 9.74064 15.9797 9.94189 15.4835 9.94189H13.4161C13.9123 9.94189 14.3617 9.74064 14.6862 9.41541C15.0107 9.09017 15.2121 8.64096 15.2121 8.14502C15.2121 7.15225 14.4085 6.34814 13.4161 6.34814H15.4835C16.4758 6.34814 17.2794 7.15225 17.2794 8.14502Z" fill="#FF7E50"/>
<path d="M18.9289 11.206C18.9289 11.9041 18.3626 12.4701 17.6651 12.4701H2.5567C2.20792 12.4701 1.89239 12.329 1.6641 12.0999C1.43491 11.8708 1.29376 11.5546 1.29376 11.206C1.29376 10.5079 1.85915 9.94189 2.5567 9.94189H17.6651C18.0139 9.94189 18.3294 10.0829 18.5586 10.3121C18.7878 10.5412 18.9289 10.8574 18.9289 11.206Z" fill="#90ABBD"/>
<path d="M18.9289 11.206C18.9289 11.9041 18.3626 12.4701 17.6651 12.4701H15.5977C16.2952 12.4701 16.8615 11.9041 16.8615 11.206C16.8615 10.8574 16.7203 10.5412 16.4912 10.3121C16.262 10.0829 15.9464 9.94189 15.5977 9.94189H17.6651C18.0138 9.94189 18.3294 10.0829 18.5586 10.3121C18.7877 10.5412 18.9289 10.8574 18.9289 11.206Z" fill="#56788B"/>
<path d="M5.99487 23.0781H7.47792C7.85032 23.0781 8.1521 22.7764 8.1521 22.4043C8.1521 22.0322 7.85032 21.7305 7.47792 21.7305H5.99487C5.62246 21.7305 5.32068 22.0322 5.32068 22.4043C5.32068 22.7764 5.62246 23.0781 5.99487 23.0781Z" fill="#90ABBD"/>
<path d="M5.99487 26.2227H8.82467C9.19708 26.2227 9.49886 25.921 9.49886 25.5488C9.49886 25.1767 9.19708 24.875 8.82467 24.875H5.99487C5.62246 24.875 5.32068 25.1767 5.32068 25.5488C5.32068 25.921 5.62246 26.2227 5.99487 26.2227Z" fill="#90ABBD"/>
<path d="M5.99487 29.3672H7.47792C7.85032 29.3672 8.1521 29.0655 8.1521 28.6934C8.1521 28.3212 7.85032 28.0195 7.47792 28.0195H5.99487C5.62246 28.0195 5.32068 28.3212 5.32068 28.6934C5.32068 29.0655 5.62246 29.3672 5.99487 29.3672Z" fill="#90ABBD"/>
<path d="M8.82467 31.1641H5.99487C5.62246 31.1641 5.32068 31.4658 5.32068 31.8379C5.32068 32.21 5.62246 32.5117 5.99487 32.5117H8.82467C9.19708 32.5117 9.49886 32.21 9.49886 31.8379C9.49886 31.4658 9.19699 31.1641 8.82467 31.1641Z" fill="#90ABBD"/>
</g>
<defs>
<clipPath id="clip0">
<rect width="46" height="46" fill="white"/>
</clipPath>
</defs>
</svg>
