<svg width="18" height="32" viewBox="0 0 18 32" fill="none" xmlns="http://www.w3.org/2000/svg">
<path d="M5.04372 27.9999C7.27568 27.9999 9.08744 26.2076 9.08744 23.9996V19.9993H5.04372C2.81177 19.9993 1 21.7916 1 23.9996C1 26.2076 2.81177 27.9999 5.04372 27.9999Z" fill="#0ACF83"/>
<path d="M1 16.0001C1 13.7921 2.81177 11.9998 5.04372 11.9998H9.08744V19.9994H5.04372C2.81177 20.0004 1 18.2081 1 16.0001Z" fill="#A259FF"/>
<path d="M1 8.00032C1 5.79232 2.81177 4 5.04372 4H9.08744V11.9997H5.04372C2.81177 11.9997 1 10.2083 1 8.00032Z" fill="#F24E1E"/>
<path d="M9.08643 4H13.1301C15.3621 4 17.1739 5.79232 17.1739 8.00032C17.1739 10.2083 15.3621 11.9997 13.1301 11.9997H9.08643V4Z" fill="#FF7262"/>
<path d="M17.1739 16.0001C17.1739 18.2081 15.3621 20.0004 13.1301 20.0004C10.8982 20.0004 9.08643 18.2081 9.08643 16.0001C9.08643 13.7921 10.8982 11.9998 13.1301 11.9998C15.3621 11.9998 17.1739 13.7921 17.1739 16.0001Z" fill="#1ABCFE"/>
</svg>
