<svg id="Capa_1" enable-background="new 0 0 512 512" height="512" viewBox="0 0 512 512" width="512" xmlns="http://www.w3.org/2000/svg"><g><g clip-rule="evenodd" fill-rule="evenodd"><path d="m111.551 30.405c77.357 0 167.187 43.625 212.966 75.231v55.36c-45.779 31.606-135.609 75.231-212.966 75.231s-111.543-44.277-111.543-102.926c-.001-58.618 34.185-102.896 111.543-102.896z" fill="#ce9875"/><path d="m324.517 105.637h107.518c6.435 0 7.937-2.636 9.667-8.674 4.45-15.364 17.915-27.014 34.639-27.014 19.701 0 35.66 20.239 35.66 35.688 0 10.856-2.551 16.895-6.86 21.827-5.13 3.884-4.904 7.795 0 11.707 4.309 4.904 6.86 10.942 6.86 21.827 0 15.449-15.96 35.688-35.66 35.688-16.753 0-30.671-11.594-34.667-27.128-1.361-5.414-3.26-8.56-9.638-8.56h-107.519l-12.5-27.694z" fill="#f9f7f8"/><path d="m463.301 72.471c4.025-1.616 8.39-2.522 13.039-2.522 19.701 0 35.66 20.239 35.66 35.688 0 10.856-2.551 16.895-6.86 21.827-5.13 3.884-4.904 7.795 0 11.707 4.309 4.904 6.86 10.942 6.86 21.827 0 15.449-15.96 35.688-35.66 35.688-4.649 0-9.042-.907-13.096-2.495 13.833-5.896 23.754-21.033 23.754-33.193 0-10.885-2.551-16.922-6.86-21.827-4.904-3.912-5.13-7.823 0-11.707 4.309-4.932 6.86-10.97 6.86-21.827 0-12.161-9.892-27.27-23.697-33.166z" fill="#ebe8fa"/><path d="m431.128 451.208c-35.235 17.348-79.058 30.387-125.376 30.387-65.764 0-121.748-23.754-156.075-50.995-5.556-4.393-10.403-2.749-13.21-1.134l-74.665 43.115c-47.423 27.383-87.137-41.556-41.414-71.745 20.211-13.323 20.551-33.647 0-46.8-46.12-29.594-6.038-99.127 41.414-71.745l74.693 43.115c4.507 2.381 7.2 3.628 13.153-1.105 34.299-27.241 90.312-50.995 156.104-50.995 46.318 0 90.141 13.011 125.376 30.359z" fill="#80b4fb"/><path d="m512 377.45c0 17.66-32.258 49.833-80.873 73.758-27.751-17.632-45.411-44.136-45.411-73.758 0-29.65 17.66-56.154 45.411-73.785 48.615 23.952 80.873 56.125 80.873 73.785z" fill="#bed8fb"/><path d="m512 377.45c0 17.66-32.258 49.833-80.873 73.758-3.713-2.381-7.257-4.904-10.63-7.569 40.478-22.791 66.5-50.343 66.5-66.189 0-15.874-26.022-43.426-66.5-66.189 3.373-2.693 6.916-5.215 10.63-7.597 48.615 23.953 80.873 56.126 80.873 73.786z" fill="#9dc6fb"/><path d="m261.73 385.586c4.819 17.121 21.6 55.021 74.069 51.023 5.414-.397 6.973-3.742 5.386-8.277-4.762-13.522-7.398-27.893-8.022-42.747-.284-7.172-2.325-8.192-8.164-8.136h-57.033c-5.925.001-7.824 2.439-6.236 8.137z" fill="#bed8fb"/><path d="m314.227 435.731c6.435 1.134 13.578 1.502 21.572.878 5.414-.397 6.973-3.742 5.386-8.277-4.762-13.522-7.398-27.893-8.022-42.747-.284-7.172-2.325-8.192-8.164-8.136h-24.321c5.329.029 7.2 1.219 7.483 8.136.624 14.854 3.26 29.225 8.022 42.747 1.191 3.373.624 6.066-1.956 7.399z" fill="#9dc6fb"/></g><path d="m63.702 338.842c-3.742-1.757-5.329-6.207-3.572-9.949s6.208-5.329 9.95-3.572l35.603 16.866c3.742 1.786 5.329 6.236 3.572 9.977-1.757 3.742-6.236 5.329-9.978 3.571zm33.505 60.945c3.798-1.645 8.221.113 9.836 3.912 1.644 3.827-.114 8.221-3.912 9.865l-37.502 16.157c-3.798 1.644-8.22-.113-9.864-3.912-1.616-3.827.142-8.221 3.94-9.865zm-35.348-14.91c-4.139-.085-7.427-3.515-7.342-7.625.085-4.139 3.487-7.398 7.625-7.314l43.767.964c4.11.085 7.398 3.487 7.313 7.597-.085 4.139-3.486 7.427-7.625 7.342z" fill="#9dc6fb"/><path d="m433.962 352.392c-4.167 0-7.512-3.373-7.512-7.511 0-4.139 3.345-7.483 7.512-7.483h6.009c4.139 0 7.512 3.345 7.512 7.483s-3.374 7.511-7.512 7.511z" fill="#365e7d"/><path clip-rule="evenodd" d="m431.128 303.665c-8.419-4.139-17.348-8.05-26.674-11.565-26.05 21.005-43.738 50.769-43.738 85.351 0 34.555 17.688 64.318 43.738 85.352 9.326-3.544 18.255-7.455 26.674-11.594-3.713-2.381-7.257-4.904-10.63-7.569-21.544-17.234-34.781-40.535-34.781-66.189 0-25.681 13.238-48.982 34.781-66.189 3.373-2.693 6.916-5.216 10.63-7.597z" fill="#61a2f9" fill-rule="evenodd"/><path clip-rule="evenodd" d="m324.517 105.637c-7.285-5.046-15.704-10.375-25.001-15.817v86.966c9.298-5.414 17.717-10.743 25.001-15.788z" fill="#c6865c" fill-rule="evenodd"/></g></svg>