<svg width="17" height="17" viewBox="0 0 17 17" fill="none" xmlns="http://www.w3.org/2000/svg">
<path d="M16.6226 7.02093L14.6726 6.54138C14.5554 6.17173 14.4046 5.81327 14.2227 5.47038C14.5155 4.98303 15.1308 3.95728 15.1308 3.95728C15.2485 3.76128 15.2173 3.5103 15.0559 3.34883L13.6473 1.94029C13.4858 1.77833 13.2354 1.74721 13.0389 1.86538L11.5233 2.77346C11.1823 2.593 10.8258 2.44368 10.4587 2.32744L9.9791 0.377453C9.92362 0.155656 9.7247 0 9.49609 0H7.50391C7.2753 0 7.07588 0.155656 7.02093 0.37742C7.02093 0.37742 6.68874 1.73842 6.54185 2.32694C6.15031 2.45096 5.77193 2.61196 5.41151 2.80845L3.84004 1.86538C3.64354 1.74864 3.39356 1.77882 3.23159 1.94029L1.82305 3.34883C1.66158 3.5103 1.63044 3.76128 1.74814 3.95728L2.71993 5.58032C2.56331 5.88917 2.432 6.21064 2.32744 6.53992L0.377453 7.02093C0.155656 7.07638 0 7.2753 0 7.50391V9.49609C0 9.7247 0.155656 9.92412 0.37742 9.97907L2.3279 10.4586C2.44611 10.8336 2.59977 11.1979 2.78607 11.5476L1.91645 12.997C1.79875 13.193 1.82989 13.444 1.99136 13.6054L3.3999 15.014C3.5609 15.175 3.81185 15.2056 4.00835 15.0889C4.00835 15.0889 4.98352 14.5043 5.46115 14.2183C5.80696 14.4026 6.16881 14.5549 6.54188 14.673L7.02097 16.6225C7.07588 16.8444 7.2753 17 7.50391 17H9.49609C9.7247 17 9.92362 16.8443 9.97907 16.6226L10.4582 14.6731C10.8419 14.5515 11.2115 14.3944 11.5632 14.2037C12.0539 14.4979 13.0388 15.0889 13.0388 15.0889C13.2348 15.2061 13.4858 15.176 13.6473 15.014L15.0558 13.6054C15.2173 13.444 15.2484 13.193 15.1307 12.997L14.2353 11.5053C14.4118 11.1702 14.5583 10.8195 14.6726 10.4586L16.6225 9.97907C16.8444 9.92362 17 9.7247 17 9.49609V7.50391C17 7.2753 16.8444 7.07638 16.6226 7.02093ZM8.5 11.9863C6.57784 11.9863 5.01367 10.4222 5.01367 8.5C5.01367 6.57784 6.57784 5.01367 8.5 5.01367C10.4222 5.01367 11.9863 6.57784 11.9863 8.5C11.9863 10.4222 10.4222 11.9863 8.5 11.9863Z" fill="#7D879C"/>
</svg>
