<svg width="25" height="26" viewBox="0 0 25 26" fill="none" xmlns="http://www.w3.org/2000/svg">
<g clip-path="url(#clip0_6837_48274)">
<path d="M18.6431 25.1259H1.50365C1.29109 25.1259 1.11719 24.952 1.11719 24.7394V11.4646C1.11719 11.252 1.29109 11.0781 1.50365 11.0781H16.0731C16.2857 11.0781 16.4596 11.252 16.4596 11.4646C16.4596 11.6771 16.2857 11.851 16.0731 11.851H1.87078V24.3723H18.2566V14.6529C18.2566 14.4403 18.4305 14.2664 18.6431 14.2664C18.8556 14.2664 19.0295 14.4403 19.0295 14.6529V24.7394C19.0102 24.952 18.8363 25.1259 18.6431 25.1259Z" fill="#BE7374"/>
<path d="M11.2611 24.9322H8.8651C8.76849 24.9322 8.67188 24.8549 8.67188 24.739V11.4642C8.67188 11.3676 8.74917 11.2709 8.8651 11.2709H11.2611C11.3578 11.2709 11.4544 11.3482 11.4544 11.4642V24.739C11.4544 24.8549 11.3771 24.9322 11.2611 24.9322ZM9.05833 24.5458H11.0872V11.6574H9.05833V24.5458ZM21.6182 18.7296C21.5989 18.7296 21.5989 18.7296 21.5796 18.7296C21.483 18.7103 21.3864 18.6716 21.3284 18.5943L8.84578 3.11667C8.71052 2.96208 8.74917 2.71089 8.90375 2.57563L10.7781 1.04912C10.8554 0.991146 10.952 0.9525 11.0486 0.971823C11.1452 0.991146 11.2418 1.02979 11.2998 1.10708L23.7631 16.5847C23.8983 16.7393 23.8597 16.9905 23.7051 17.1258L21.8308 18.6523C21.7921 18.7103 21.6955 18.7296 21.6182 18.7296ZM9.67667 2.92344L21.6762 17.8021L22.9708 16.7586L10.9713 1.88L9.67667 2.92344Z" fill="#BE7374"/>
<path d="M16.1328 11.7355H16.1135C16.0555 11.7355 16.0168 11.6969 15.9782 11.6582L14.471 9.78392C14.413 9.70663 14.413 9.59069 14.4903 9.5134L16.3647 7.98689C16.4033 7.94824 16.4613 7.94824 16.4999 7.94824C16.5579 7.94824 16.5965 7.98689 16.6352 8.02553L18.1424 9.89986C18.2003 9.97715 18.2003 10.0931 18.123 10.1704L16.268 11.6969C16.2294 11.7162 16.1907 11.7355 16.1328 11.7355ZM14.8961 9.70663L16.1714 11.2911L17.7559 9.99647L16.4806 8.41199L14.8961 9.70663Z" fill="#BE7374"/>
<path d="M17.5429 9.12664C16.8473 9.12664 16.1324 8.27643 15.3208 7.25232C15.2628 7.17503 15.2049 7.09774 15.1469 7.03977C14.4513 6.17023 14.4899 4.97221 15.2242 4.3732C15.4947 4.14133 15.8425 4.02539 16.229 4.02539C16.828 4.02539 17.427 4.33456 17.8521 4.85628C18.5091 5.66784 18.8376 8.29576 18.026 8.97206C17.8907 9.06867 17.7168 9.12664 17.5429 9.12664ZM16.229 4.79831C16.0357 4.79831 15.8425 4.85628 15.7072 4.97221C15.2821 5.32003 15.3015 6.03497 15.7266 6.57602C15.7845 6.63398 15.8425 6.71128 15.9005 6.78857C16.2483 7.21367 17.1565 8.37305 17.5236 8.37305C17.8714 8.10253 17.7362 5.95768 17.2338 5.33935C16.9826 4.99154 16.5961 4.79831 16.229 4.79831Z" fill="#BE7374"/>
<path d="M20.42 12.4116C19.821 12.4116 19.222 12.1024 18.7969 11.5807C18.7389 11.5227 18.6809 11.4454 18.623 11.3681C17.8694 10.4406 17.1931 9.55177 17.251 8.89479C17.2704 8.68224 17.367 8.48901 17.5409 8.37307C17.7341 8.21849 18.024 8.1412 18.3718 8.1412C19.3186 8.1412 20.961 8.72088 21.5021 9.39719C22.1977 10.2667 22.1591 11.4647 21.4248 12.0637C21.1349 12.2956 20.8065 12.4116 20.42 12.4116ZM18.3718 8.89479C18.1592 8.89479 18.0433 8.93344 18.0046 8.95276C17.9467 9.08802 18.1012 9.55177 19.2027 10.8851C19.2606 10.9623 19.3186 11.0396 19.3766 11.0976C19.6471 11.4261 20.0335 11.6386 20.4007 11.6386C20.5939 11.6386 20.7871 11.5807 20.9224 11.4647C21.3475 11.1169 21.3282 10.402 20.9031 9.86094C20.5553 9.43583 19.1833 8.89479 18.3718 8.89479ZM5.27083 6.63401C5.30948 6.63401 5.36745 6.63401 5.40609 6.65333C5.67661 6.69198 5.88917 6.86588 6.0051 7.07844C6.15969 6.94318 6.35292 6.86588 6.56547 6.86588C6.60411 6.86588 6.66208 6.86588 6.70073 6.88521C7.16448 6.9625 7.45432 7.3876 7.37703 7.85135C7.26109 8.50833 5.58 9.55177 5.58 9.55177C5.58 9.55177 4.34333 7.90932 4.43995 7.34896C4.51724 6.92385 4.86505 6.63401 5.27083 6.63401ZM5.27083 5.86109C4.49792 5.86109 3.82161 6.42146 3.70568 7.19437C3.60906 7.77406 4.03417 8.70156 4.98099 9.97687C5.13557 10.1701 5.36745 10.286 5.59932 10.286C5.73458 10.286 5.86984 10.2474 6.0051 10.1701C6.73937 9.70635 8.01469 8.8175 8.14995 7.94797C8.30453 7.07844 7.70552 6.24755 6.83599 6.11229C6.73937 6.09297 6.66208 6.09297 6.56547 6.09297C6.43021 6.09297 6.29495 6.11229 6.15969 6.15094C5.96646 6.035 5.75391 5.93839 5.54135 5.89974C5.44474 5.88042 5.36745 5.86109 5.27083 5.86109ZM5.90849 1.33953C6.19833 1.33953 6.48818 1.51344 6.62344 1.80328C6.89396 2.38297 6.12104 4.08339 6.12104 4.08339C6.12104 4.08339 4.28536 3.44573 4.07281 2.98198C3.8989 2.5762 4.07281 2.11245 4.45927 1.93854C4.55588 1.8999 4.67182 1.86125 4.78776 1.86125C4.92302 1.86125 5.03896 1.8999 5.15489 1.95786C5.21286 1.72599 5.36745 1.53276 5.59932 1.41682C5.69594 1.37818 5.79255 1.33953 5.90849 1.33953ZM5.90849 0.585938C5.67661 0.585938 5.46406 0.624583 5.27083 0.721198C5.0776 0.817812 4.9037 0.93375 4.76844 1.08833C4.55588 1.08833 4.34333 1.1463 4.1501 1.22359C3.37719 1.57141 3.02937 2.49891 3.37719 3.27182C3.60906 3.77422 4.43995 4.29594 5.86984 4.77901C5.94713 4.79833 6.04375 4.81766 6.12104 4.81766C6.41088 4.81766 6.6814 4.64375 6.81666 4.37323C7.16448 3.61964 7.6862 2.24771 7.31906 1.47479C7.06786 0.93375 6.5075 0.585938 5.90849 0.585938Z" fill="#BE7374"/>
</g>
<defs>
<clipPath id="clip0_6837_48274">
<rect width="24.7333" height="24.7333" fill="white" transform="translate(0.132812 0.489258)"/>
</clipPath>
</defs>
</svg>
