<svg width="22" height="22" viewBox="0 0 22 22" fill="none" xmlns="http://www.w3.org/2000/svg">
<g clip-path="url(#clip0)">
<path d="M20.1639 5.12801H15.5091C16.1154 4.59043 16.4985 3.80649 16.4985 2.93444C16.4985 0.484669 13.6601 -0.876388 11.7501 0.632064C11.5912 0.757512 11.5641 0.988021 11.6896 1.14687C11.8151 1.30581 12.0457 1.3328 12.2044 1.20735C13.634 0.0784044 15.7654 1.0945 15.7654 2.93444C15.7654 4.09679 14.8589 5.05076 13.7158 5.12801H11.3669V2.9344C11.3669 1.31749 10.0515 0.00207221 8.43458 0.00207221C6.81768 0.00207221 5.50226 1.31749 5.50226 2.9344C5.50226 3.80649 5.88534 4.59038 6.4916 5.12796H1.83685C0.826301 5.12796 0.00415039 5.95011 0.00415039 6.96066V8.85004C0.00415039 9.76717 0.68138 10.529 1.56195 10.6621V20.1674C1.56195 21.178 2.3841 22.0001 3.39465 22.0001H18.6061C19.6166 22.0001 20.4388 21.178 20.4388 20.1674V12.2812C20.4388 12.0788 20.2747 11.9146 20.0722 11.9146C19.8698 11.9146 19.7057 12.0788 19.7057 12.2812V20.1675C19.7057 20.7738 19.2124 21.2671 18.6061 21.2671H9.71748V10.6828H12.2833V19.948C12.2833 20.1504 12.4474 20.3146 12.6498 20.3146C12.8522 20.3146 13.0163 20.1504 13.0163 19.948V10.6828H17.0941C17.2965 10.6828 17.4606 10.5187 17.4606 10.3163C17.4606 10.1138 17.2965 9.94971 17.0941 9.94971H14.6658V5.86109H20.1639C20.7702 5.86109 21.2635 6.35436 21.2635 6.96071V8.85009C21.2635 9.45644 20.7702 9.94971 20.1639 9.94971H19.4537C19.2513 9.94971 19.0872 10.1138 19.0872 10.3163C19.0872 10.5187 19.2513 10.6828 19.4537 10.6828H20.1639C21.1744 10.6828 21.9966 9.86064 21.9966 8.85009V6.96071C21.9966 5.95016 21.1744 5.12801 20.1639 5.12801ZM6.23534 2.9344C6.23534 1.72174 7.22188 0.735154 8.43458 0.735154C9.64728 0.735154 10.6338 1.72174 10.6338 2.9344V5.12796H8.28494C7.14189 5.05076 6.23534 4.09674 6.23534 2.9344ZM8.9844 21.2671H3.39465C2.78835 21.2671 2.29503 20.7738 2.29503 20.1675V10.6828H8.9844V21.2671ZM13.9327 9.94971H1.83685C1.23055 9.94971 0.737232 9.45644 0.737232 8.85009V6.96071C0.737232 6.35436 1.23055 5.86109 1.83685 5.86109H7.33496V8.79909C7.33496 9.00152 7.49908 9.16563 7.7015 9.16563C7.90393 9.16563 8.06804 9.00152 8.06804 8.79909V5.86109H13.9327V9.94971Z" fill="#585E6F"/>
</g>
<defs>
<clipPath id="clip0">
<rect width="22" height="22" fill="white"/>
</clipPath>
</defs>
</svg>
