<svg width="24" height="24" viewBox="0 0 24 24" fill="none" xmlns="http://www.w3.org/2000/svg">
<path d="M12.431 11.7264L11.9772 10.5867L11.5233 11.7264C11.4231 11.9784 11.1869 12.15 10.9157 12.1679L9.69147 12.2469L10.6349 13.031C10.8436 13.2047 10.9342 13.4828 10.8669 13.7457L10.5641 14.9342L11.6016 14.2785C11.8309 14.1344 12.1234 14.1344 12.3527 14.2785L13.3895 14.9336L13.0867 13.7457C13.0194 13.4828 13.11 13.2047 13.3188 13.031L14.2621 12.2469L13.0386 12.1679C12.7675 12.15 12.5313 11.9784 12.431 11.7264Z" fill="#FF9101"/>
<path d="M23.3423 8.60791L15.5284 8.10188L12.6302 0.821148C12.4174 0.286994 11.5372 0.286994 11.3243 0.821148L8.42618 8.10188L0.657701 8.60791C0.37 8.62647 0.123547 8.8187 0.0342556 9.09266C-0.0543326 9.36593 0.0321933 9.66666 0.253992 9.85068L6.23112 14.8567L4.29624 22.4498C4.22485 22.7285 4.33125 23.0231 4.56402 23.192C4.79744 23.3609 5.10989 23.3706 5.35292 23.2181L11.9773 19.0312L18.6009 23.2181C18.845 23.3716 19.1564 23.3616 19.3898 23.192C19.6226 23.0231 19.729 22.7292 19.6576 22.4498L17.7227 14.8567L23.746 9.85063C23.9677 9.66661 24.0543 9.36588 23.9657 9.09262C23.8764 8.8187 23.63 8.62643 23.3423 8.60791ZM16.5192 12.2009L14.5589 13.8288L15.1879 16.2978C15.2592 16.5773 15.1528 16.8711 14.9201 17.0401C14.6867 17.2095 14.3754 17.2197 14.1312 17.0662L11.9773 15.7046L9.82274 17.0662C9.5783 17.2186 9.26726 17.2097 9.03383 17.0401C8.80107 16.8711 8.69467 16.5766 8.76605 16.2978L9.39498 13.8288L7.43475 12.2009C7.21299 12.0169 7.12647 11.7161 7.21501 11.4429C7.30425 11.1689 7.55075 10.9767 7.83846 10.9581L10.3816 10.7933L11.3243 8.42591C11.5372 7.89175 12.4174 7.89175 12.6302 8.42591L13.5729 10.7933L16.1154 10.9581C16.4031 10.9767 16.6496 11.1689 16.7389 11.4429C16.8274 11.7161 16.7409 12.0169 16.5192 12.2009Z" fill="#FF9101"/>
<path d="M11.9993 23.58C12.3876 23.58 12.7024 23.2652 12.7024 22.8769C12.7024 22.4886 12.3876 22.1738 11.9993 22.1738C11.611 22.1738 11.2962 22.4886 11.2962 22.8769C11.2962 23.2652 11.611 23.58 11.9993 23.58Z" fill="#FF9101"/>
<path d="M22.0295 16.2913C22.1495 15.922 21.9473 15.5253 21.578 15.4054C21.2087 15.2854 20.8121 15.4875 20.6921 15.8568C20.5721 16.2261 20.7742 16.6228 21.1435 16.7428C21.5128 16.8628 21.9095 16.6606 22.0295 16.2913Z" fill="#FF9101"/>
<path d="M18.3541 5.48443C18.5824 5.1703 18.5127 4.73062 18.1986 4.50237C17.8845 4.27413 17.4448 4.34376 17.2165 4.65789C16.9883 4.97203 17.0579 5.41171 17.372 5.63995C17.6862 5.8682 18.1259 5.79857 18.3541 5.48443Z" fill="#FF9101"/>
<path d="M6.62693 5.63899C6.94107 5.41075 7.0107 4.97106 6.78245 4.65692C6.55421 4.34279 6.11453 4.27316 5.80039 4.5014C5.48626 4.72964 5.41663 5.16933 5.64487 5.48347C5.87311 5.7976 6.3128 5.86723 6.62693 5.63899Z" fill="#FF9101"/>
<path d="M2.85485 16.7449C3.22417 16.6249 3.42629 16.2283 3.3063 15.859C3.18632 15.4896 2.78966 15.2875 2.42035 15.4075C2.05104 15.5275 1.84892 15.9241 1.9689 16.2935C2.08889 16.6628 2.48554 16.8649 2.85485 16.7449Z" fill="#FF9101"/>
</svg>
