<svg width="46" height="46" viewBox="0 0 46 46" fill="none" xmlns="http://www.w3.org/2000/svg">
<g clip-path="url(#clip0)">
<path d="M46.0001 25.6366C46.0001 31.8842 41.9616 36.9969 37.0259 36.9969H31.7605C30.3929 36.9969 29.0933 36.6042 27.9306 35.903C24.5734 33.8818 22.7863 29.688 22.7863 25.6366C22.7863 22.6689 23.8887 20.0119 25.6013 18.2897C26.5864 17.2983 27.361 16.0433 27.8878 14.6388C28.2675 13.6277 28.5191 12.5404 28.6307 11.4156C28.6746 10.9773 28.6967 10.5323 28.6967 10.0845C28.6967 6.11871 31.2608 2.87451 34.3934 2.87451C35.96 2.87451 37.3842 3.68521 38.4167 4.99251C39.4492 6.29945 40.0897 8.10159 40.0897 10.0845C40.0897 13.2711 41.2152 16.3069 43.1858 18.2897C44.0414 19.151 44.745 20.2456 45.235 21.496C45.7246 22.7472 46.0001 24.1527 46.0001 25.6366Z" fill="#35E298"/>
<path d="M33.909 22.0355C33.8392 24.184 33.2205 26.2887 32.1638 28.2073L27.9309 35.9034C24.5734 33.8822 22.7863 29.6883 22.7863 25.637C22.7863 22.6693 23.8887 20.0122 25.6017 18.2901C26.5864 17.2987 27.361 16.0437 27.8881 14.6392C28.2678 13.6281 28.5191 12.5408 28.6307 11.416C30.3083 12.3166 32.0985 13.992 33.1692 17.1021C33.7213 18.7074 33.9641 20.3744 33.909 22.0355Z" fill="#1AB975"/>
<path d="M41.3355 26.0278C41.3355 29.7623 38.3081 32.7899 34.5737 32.7899C30.8392 32.7899 27.8115 29.7623 27.8115 26.0278C27.8115 22.2933 30.8392 19.2656 34.5737 19.2656C38.3081 19.2656 41.3355 22.2933 41.3355 26.0278Z" fill="#AE583E"/>
<path d="M33.7304 19.3174C27.7617 20.06 25.6862 27.6844 30.4255 31.3673L32.1637 28.2067C33.2201 26.288 33.8392 24.1833 33.909 22.0348C33.9388 21.1269 33.8802 20.2176 33.7304 19.3174Z" fill="#7C3F2C"/>
<path d="M14.5916 7.83224C14.2381 6.22313 12.4157 0.396269 4.71541 1.72182C4.49115 1.76042 4.36586 2.00328 4.46378 2.20894C5.26149 3.88403 8.64467 10.0924 14.2764 8.36534C14.5042 8.2955 14.6424 8.06492 14.5916 7.83224Z" fill="#1ED688"/>
<path d="M14.2757 8.36478C8.6447 10.0925 5.26152 3.88417 4.4638 2.20873C4.36624 2.00272 4.49083 1.75986 4.71509 1.7216C5.37417 1.60825 5.9915 1.54683 6.56776 1.53174C7.74907 3.61604 10.3938 7.25437 14.3561 6.97396C14.4684 7.31859 14.5439 7.61444 14.5916 7.83238C14.6428 8.06507 14.5039 8.29494 14.2757 8.36478Z" fill="#1AB975"/>
<path d="M14.9702 12.9583C14.5845 12.9583 14.2722 12.6459 14.2722 12.2603V2.28935C14.2722 1.90366 14.5845 1.59131 14.9702 1.59131C15.3559 1.59131 15.6682 1.90366 15.6682 2.28935V12.2603C15.6682 12.6459 15.3559 12.9583 14.9702 12.9583Z" fill="#C0694E"/>
<path d="M28.1857 28.2069L23.2724 37.1404C22.0016 39.2222 19.1104 39.9786 16.8292 38.7888C15.6602 38.1792 14.2806 38.1792 13.1102 38.7888C10.8816 39.9512 7.97294 39.2752 6.6681 37.1404L1.75372 28.2069C-0.258995 24.5489 -0.461143 20.6242 0.748589 17.1021C2.25839 12.7134 5.20393 11.1822 7.23875 10.6533C8.17263 10.4105 8.9156 10.3789 9.24058 10.3789C9.35569 10.3789 9.41816 10.3824 9.41816 10.3824C10.338 10.3824 11.2196 10.5372 12.0324 10.819C12.8442 11.1012 13.5889 11.5118 14.2357 12.0228C14.447 12.2035 14.7088 12.2947 14.9702 12.2947C15.232 12.2947 15.4935 12.2035 15.7048 12.0228C16.3519 11.5118 17.0956 11.1012 17.9084 10.819C18.7209 10.5372 19.6017 10.3824 20.5223 10.3824C20.5223 10.3824 26.7436 9.98583 29.1912 17.1021C30.4104 20.6471 30.1875 24.5725 28.1857 28.2069Z" fill="#C42D2D"/>
<path d="M28.1857 28.2069L23.2723 37.1404C22.0015 39.2222 19.1104 39.9786 16.8292 38.7888C15.6602 38.1792 14.2806 38.1792 13.1102 38.7888C12.483 39.1163 11.812 39.2928 11.1564 39.3391C11.1189 39.2644 7.21733 30.6839 6.22238 28.4965C3.24735 21.9561 4.40093 14.6679 7.23874 10.6533C8.17262 10.4105 8.91559 10.3789 9.24057 10.3789C9.35568 10.3789 9.41815 10.3824 9.41815 10.3824C10.338 10.3824 11.2196 10.5372 12.0324 10.819C12.8441 11.1012 13.5889 11.5118 14.2357 12.0228C14.4469 12.2035 14.7088 12.2947 14.9702 12.2947C15.232 12.2947 15.4935 12.2035 15.7048 12.0228C16.3519 11.5118 17.0956 11.1012 17.9084 10.819C18.7208 10.5372 19.6017 10.3824 20.5223 10.3824C20.5223 10.3824 26.7436 9.98583 29.1912 17.1021C30.4104 20.6471 30.1875 24.5725 28.1857 28.2069Z" fill="#F44545"/>
<path d="M6.10726 30.4301C5.32358 30.8435 5.02352 31.8139 5.43694 32.5979C5.92231 33.517 6.53542 34.3155 7.21381 35.0065L1.86144 34.4102C0.9809 34.3123 0.187397 34.9465 0.0891303 35.8274C-0.00878541 36.7079 0.625736 37.5014 1.50628 37.5997L6.8583 38.1959C6.04444 38.721 5.27059 39.365 4.59501 40.1546C4.01909 40.8281 4.09806 41.8409 4.77153 42.4168C5.44501 42.9927 6.45786 42.9138 7.03377 42.2403C8.86715 40.0967 12.191 39.1772 15.0035 39.0852C16.1199 39.0491 16.8615 37.9067 16.4344 36.8725C16.2414 36.4029 15.8255 36.0348 15.3012 35.9175C15.2503 35.906 10.165 34.6811 8.27509 31.1C7.86132 30.3164 6.89094 30.0163 6.10726 30.4301Z" fill="#1AB975"/>
<path d="M45.8224 40.9318C45.5932 42.9873 43.857 44.5438 41.7885 44.5476C29.9285 44.5708 38.2176 44.555 19.1286 44.5915C15.1628 44.5989 12.0731 41.1525 12.5125 37.212C12.6093 36.3462 12.8673 35.5408 13.2509 34.8203C14.3883 32.6865 16.6386 31.3013 19.1065 31.3013C19.5961 31.3013 20.0951 31.3553 20.5949 31.4701C37.4139 35.3127 38.7188 35.6106 39.8113 35.8601L41.1835 36.1739L42.6859 36.5175C44.3252 36.8909 45.5234 38.2171 45.7904 39.8045C45.8529 40.1684 45.8652 40.5475 45.8224 40.9318Z" fill="#FFA90B"/>
<path d="M45.7905 39.8045C45.0458 40.7784 43.8729 41.3992 42.5677 41.401C30.7087 41.4245 38.9975 41.4087 19.9088 41.4448C16.1982 41.4515 13.2555 38.4361 13.2509 34.8203C14.3884 32.6865 16.6383 31.3013 19.1062 31.3013C19.3715 31.3013 19.6389 31.3171 19.9078 31.3508C20.1359 31.3778 20.3658 31.4178 20.5949 31.4701L21.2811 31.6263C39.0463 35.6861 23.2088 32.0667 39.8113 35.8601L41.1832 36.1739L42.686 36.5175C44.3253 36.8909 45.5234 38.2171 45.7905 39.8045Z" fill="#FFB52D"/>
<path d="M41.1832 36.1741L40.6536 41.5707C40.6136 41.9273 40.3121 42.1915 39.9612 42.1915C39.9349 42.1915 39.9089 42.1898 39.8829 42.187C39.4993 42.1441 39.2238 41.7999 39.2656 41.4163L39.8113 35.8604L41.1832 36.1741Z" fill="#F29500"/>
<path d="M22.1171 40.1633L21.6478 44.5871L20.243 44.5899L20.729 40.0089C20.7719 39.6253 21.1161 39.3488 21.4997 39.3916C21.8833 39.4344 22.1599 39.7797 22.1171 40.1633Z" fill="#F29500"/>
<path d="M34.8949 41.5866L34.585 44.562L33.1801 44.5648L33.5068 41.4322C33.5497 41.0486 33.895 40.7731 34.2786 40.8159C34.6611 40.8587 34.9377 41.203 34.8949 41.5866Z" fill="#F29500"/>
<path d="M29.3669 33.4749L29.1578 35.8196C29.1178 36.1762 28.8159 36.4408 28.465 36.4408C28.439 36.4408 28.4131 36.4387 28.3867 36.4359C28.0031 36.3931 27.7269 36.0488 27.7698 35.6652L27.994 33.1611L29.3669 33.4749Z" fill="#F29500"/>
<path d="M26.6247 41.7395L26.3313 44.578L24.9268 44.5808L25.2366 41.5851C25.2795 41.2015 25.6259 40.9249 26.0084 40.9678C26.3909 41.0106 26.6675 41.3559 26.6247 41.7395Z" fill="#F29500"/>
<path d="M21.2811 31.6266L20.7978 35.9612C20.7578 36.3178 20.4553 36.582 20.1043 36.582C20.0783 36.582 20.0524 36.5803 20.026 36.5775C19.6428 36.5346 19.367 36.189 19.4098 35.8064L19.9015 31.3928C19.9032 31.3792 19.9053 31.3651 19.9081 31.3511C20.1359 31.3781 20.3661 31.4181 20.5949 31.4704L21.2811 31.6266Z" fill="#F29500"/>
</g>
<defs>
<clipPath id="clip0">
<rect width="46" height="46" fill="white"/>
</clipPath>
</defs>
</svg>
