<svg width="20" height="20" viewBox="0 0 20 20" fill="none" xmlns="http://www.w3.org/2000/svg">
<path d="M18.4578 2.59133C17.9691 2.08683 17.3889 1.68663 16.7503 1.41358C16.1117 1.14054 15.4272 1 14.7359 1C14.0446 1 13.3601 1.14054 12.7215 1.41358C12.0829 1.68663 11.5026 2.08683 11.0139 2.59133L9.99974 3.63785L8.98554 2.59133C7.99842 1.57276 6.6596 1.00053 5.26361 1.00053C3.86761 1.00053 2.52879 1.57276 1.54168 2.59133C0.554557 3.6099 1.0401e-08 4.99139 0 6.43187C-1.0401e-08 7.87235 0.554557 9.25383 1.54168 10.2724L2.55588 11.3189L9.99974 19L17.4436 11.3189L18.4578 10.2724C18.9467 9.76814 19.3346 9.16942 19.5992 8.51045C19.8638 7.85148 20 7.14517 20 6.43187C20 5.71857 19.8638 5.01225 19.5992 4.35328C19.3346 3.69431 18.9467 3.09559 18.4578 2.59133V2.59133Z" fill="#A3B3DB"/>
</svg>
