<svg width="20" height="20" viewBox="0 0 20 20" fill="none" xmlns="http://www.w3.org/2000/svg">
<path fill-rule="evenodd" clip-rule="evenodd" d="M12.4502 3.98319L11.436 5.02972C11.0592 5.41843 10.5411 5.63785 9.99974 5.63785C9.45844 5.63785 8.94024 5.41843 8.56353 5.02972L7.54932 3.98319C6.9321 3.3463 6.10857 3.00053 5.26361 3.00053C4.41865 3.00053 3.59512 3.3463 2.97789 3.98319C2.3586 4.62222 2 5.50193 2 6.43187C2 7.36181 2.3586 8.24151 2.97789 8.88054L9.99974 16.1262L17.0216 8.88054C17.3278 8.56472 17.5742 8.18603 17.7432 7.76518C17.9123 7.34425 18 6.891 18 6.43187C18 5.97273 17.9123 5.51949 17.7432 5.09855C17.5742 4.67771 17.3281 4.29935 17.0219 3.98353C16.716 3.66769 16.3555 3.41993 15.964 3.25255C15.5727 3.08524 15.1556 3 14.7359 3C14.3162 3 13.8991 3.08524 13.5077 3.25255C13.1163 3.41992 12.7561 3.66735 12.4502 3.98319ZM9.99974 19L1.54168 10.2724C0.554557 9.25383 0 7.87235 0 6.43187C0 4.99139 0.554557 3.6099 1.54168 2.59133C2.52879 1.57276 3.86761 1.00053 5.26361 1.00053C6.4801 1.00053 7.65317 1.43506 8.58793 2.22081C8.72586 2.33676 8.85861 2.46035 8.98554 2.59133L9.99974 3.63785L11.0139 2.59133C11.1405 2.46067 11.2732 2.33701 11.4115 2.22074C11.8071 1.88806 12.2483 1.61591 12.7215 1.41358C13.3601 1.14054 14.0446 1 14.7359 1C15.4272 1 16.1117 1.14054 16.7503 1.41358C17.3889 1.68663 17.969 2.08693 18.4577 2.59143C18.9466 3.09569 19.3346 3.69431 19.5992 4.35328C19.8638 5.01225 20 5.71857 20 6.43187C20 7.14517 19.8638 7.85148 19.5992 8.51045C19.3346 9.16942 18.9467 9.76814 18.4578 10.2724L9.99974 19Z" fill="#A3B3DB"/>
</svg>
