<svg width="24" height="24" viewBox="0 0 24 24" fill="none" xmlns="http://www.w3.org/2000/svg">
<path d="M20.1199 4.75592C19.6507 4.26263 19.0937 3.87132 18.4807 3.60434C17.8676 3.33737 17.2105 3.19995 16.5468 3.19995C15.8832 3.19995 15.2261 3.33737 14.613 3.60434C13.9999 3.87132 13.4429 4.26263 12.9738 4.75592L12.0001 5.77918L11.0265 4.75592C10.0789 3.75998 8.79361 3.20047 7.45345 3.20047C6.1133 3.20047 4.82803 3.75998 3.8804 4.75592C2.93277 5.75186 2.40039 7.10264 2.40039 8.51111C2.40039 9.91958 2.93277 11.2704 3.8804 12.2663L4.85403 13.2896L12.0001 20.7999L19.1463 13.2896L20.1199 12.2663C20.5893 11.7732 20.9616 11.1878 21.2156 10.5435C21.4696 9.89918 21.6004 9.20856 21.6004 8.51111C21.6004 7.81366 21.4696 7.12304 21.2156 6.47872C20.9616 5.83439 20.5893 5.24897 20.1199 4.75592Z" fill="#E84560"/>
</svg>
