<svg id="Layer_2" height="512" viewBox="0 0 128 128" width="512" xmlns="http://www.w3.org/2000/svg" data-name="Layer 2"><path d="m98.269 23.219-10.14 15.831-23.884-37.3v20.7a36.978 36.978 0 0 1 -14.66 29.55 39.417 39.417 0 0 1 -19.858-32.209l-.981-18.041-14.439 57.071c-2.239 8.849-12.307 67.429 51.093 67.429 27.742 0 50.231-18.419 50.231-41.141.004-40.44-17.362-61.89-17.362-61.89z" fill="#ff8243"/><g fill="#fff5cc"><path d="m37.198 85.5h53.604v8h-53.604z" transform="matrix(.707 -.707 .707 .707 -44.542 71.477)"/><path d="m55.2 73.472a7.225 7.225 0 1 1 -7.224-7.225 7.224 7.224 0 0 1 7.224 7.225z"/><path d="m87.253 105.528a7.225 7.225 0 1 1 -7.225-7.228 7.225 7.225 0 0 1 7.225 7.228z"/></g></svg>