<svg width="30" height="30" viewBox="0 0 30 30" fill="none" xmlns="http://www.w3.org/2000/svg">
<circle cx="15" cy="15" r="15" fill="#E1306C"/>
<path fill-rule="evenodd" clip-rule="evenodd" d="M15 11.8182C13.2427 11.8182 11.8182 13.2427 11.8182 15C11.8182 16.7573 13.2427 18.1818 15 18.1818C16.7573 18.1818 18.1818 16.7573 18.1818 15C18.1818 13.2427 16.7573 11.8182 15 11.8182ZM13.0909 15C13.0909 16.0544 13.9456 16.9091 15 16.9091C16.0544 16.9091 16.9091 16.0544 16.9091 15C16.9091 13.9456 16.0544 13.0909 15 13.0909C13.9456 13.0909 13.0909 13.9456 13.0909 15Z" fill="white"/>
<path d="M18.8182 10.5455C18.4667 10.5455 18.1818 10.8304 18.1818 11.1818C18.1818 11.5333 18.4667 11.8182 18.8182 11.8182C19.1696 11.8182 19.4545 11.5333 19.4545 11.1818C19.4545 10.8304 19.1696 10.5455 18.8182 10.5455Z" fill="white"/>
<path fill-rule="evenodd" clip-rule="evenodd" d="M10.5455 8C9.13964 8 8 9.13964 8 10.5455V19.4545C8 20.8604 9.13964 22 10.5455 22H19.4545C20.8604 22 22 20.8604 22 19.4545V10.5455C22 9.13964 20.8604 8 19.4545 8H10.5455ZM19.4545 9.27273H10.5455C9.84255 9.27273 9.27273 9.84255 9.27273 10.5455V19.4545C9.27273 20.1575 9.84255 20.7273 10.5455 20.7273H19.4545C20.1575 20.7273 20.7273 20.1575 20.7273 19.4545V10.5455C20.7273 9.84255 20.1575 9.27273 19.4545 9.27273Z" fill="white"/>
</svg>
