<svg width="18" height="18" viewBox="0 0 18 18" fill="none" xmlns="http://www.w3.org/2000/svg">
<path fill-rule="evenodd" clip-rule="evenodd" d="M3 3.75C2.58921 3.75 2.25 4.08921 2.25 4.5V13.5C2.25 13.9108 2.58921 14.25 3 14.25H15C15.4108 14.25 15.75 13.9108 15.75 13.5V4.5C15.75 4.08921 15.4108 3.75 15 3.75H3ZM0.75 4.5C0.75 3.26079 1.76079 2.25 3 2.25H15C16.2392 2.25 17.25 3.26079 17.25 4.5V13.5C17.25 14.7392 16.2392 15.75 15 15.75H3C1.76079 15.75 0.75 14.7392 0.75 13.5V4.5Z" fill="white"/>
<path fill-rule="evenodd" clip-rule="evenodd" d="M0.88564 4.06997C1.12318 3.73063 1.59082 3.6481 1.93016 3.88564L9.00006 8.83457L16.07 3.88564C16.4093 3.6481 16.877 3.73063 17.1145 4.06997C17.352 4.4093 17.2695 4.87695 16.9302 5.11449L9.43016 10.3645C9.17192 10.5453 8.82821 10.5453 8.56997 10.3645L1.06997 5.11449C0.730631 4.87695 0.648105 4.4093 0.88564 4.06997Z" fill="white"/>
</svg>
