<svg height="512pt" viewBox="-12 0 512 512.00067" width="512pt" xmlns="http://www.w3.org/2000/svg"><path d="m209.835938 175.996094c0-8.613282-5.453126-15.359375-12.414063-15.359375-6.957031 0-12.410156 6.746093-12.410156 15.359375 0 8.613281 5.449219 15.359375 12.410156 15.359375s12.414063-6.746094 12.414063-15.359375zm0 0"/><path d="m290.636719 191.355469c6.960937 0 12.414062-6.746094 12.414062-15.359375 0-8.613282-5.453125-15.359375-12.414062-15.359375-6.960938 0-12.410157 6.746093-12.410157 15.359375 0 8.613281 5.449219 15.359375 12.410157 15.359375zm0 0"/><path d="m252.011719 227.671875c.773437 0 1.558593-.015625 2.359375-.046875 4.171875-.175781 7.414062-3.699219 7.238281-7.871094-.171875-4.171875-3.679687-7.402344-7.867187-7.238281-3.691407.15625-10.195313-.0625-12.203126-3.257813-2.589843-4.117187.390626-13.90625 3.222657-19.230468 1.972656-3.671875.597656-8.25-3.074219-10.230469-3.675781-1.976563-8.261719-.601563-10.242188 3.074219-1.148437 2.128906-10.980468 21.210937-2.730468 34.398437 4.324218 6.910157 12.15625 10.402344 23.296875 10.402344zm0 0"/><path d="m205.148438 235.667969c-3.492188 2.292969-4.464844 6.976562-2.175782 10.46875.605469.925781 15.144532 22.636719 41.058594 22.636719 25.910156 0 40.453125-21.710938 41.058594-22.636719 2.28125-3.480469 1.3125-8.132813-2.15625-10.433594-3.46875-2.296875-8.152344-1.34375-10.46875 2.113281-.105469.15625-10.808594 15.835938-28.433594 15.835938s-28.328125-15.675782-28.417969-15.808594c-2.289062-3.492188-6.976562-4.464844-10.464843-2.175781zm0 0"/><path d="m100.128906 496.878906h-84.132812c.710937-5.140625 1.941406-12.296875 4-20.113281 3.597656-13.664063 10.496094-32.058594 22.925781-42.109375 21.960937-17.753906 114.855469-67.511719 145.441406-83.726562 5.480469 25.703124 28.351563 45.042968 55.667969 45.042968 27.3125 0 50.1875-19.34375 55.667969-45.046875 11.441406 6.066407 31.582031 16.8125 53.34375 28.757813 3.617187 1.980468 8.285156.617187 10.265625-2.992188 2.007812-3.660156.671875-8.253906-2.988282-10.265625-26.234374-14.398437-50.125-27.0625-59.367187-31.941406v-35.253906c1.792969-1.621094 3.542969-3.316407 5.234375-5.125 8.640625-9.261719 15.777344-20.816407 21.394531-34.550781 2.527344.449218 5.015625.675781 7.449219.675781 12.066406 0 22.765625-5.492188 30.519531-16 13.761719-18.664063 15.863281-50.160157 4.410157-66.082031-.507813-.707032-1.03125-1.378907-1.5625-2.027344 13.515624-46.558594 9.425781-86.003906-12.183594-117.300782-30.863282-44.703124-86.90625-57.527343-105.894532-58.695312-26.839843-1.648438-45.761718 13.34375-54.125 21.703125-10.804687-6.238281-22.429687-7.503906-33.96875-3.625-20.097656 6.753906-37.535156 29.042969-45.511718 58.167969-1.632813 5.960937-2.75 13.113281-3.316406 21.25-.292969 4.164062 2.847656 7.777344 7.011718 8.070312 4.152344.296875 7.777344-2.851562 8.070313-7.015625.5-7.144531 1.449219-13.308593 2.816406-18.3125 6.5625-23.964843 20.59375-42.738281 35.746094-47.832031 8.769531-2.945312 17.445312-1.199219 25.773437 5.199219 3.304688 2.542969 8.058594 1.90625 10.605469-1.394531.179687-.226563 17.957031-22.839844 45.964844-21.121094 15.8125.976562 67.082031 12.652344 94.386719 52.195312 18.101562 26.21875 21.964843 59.574219 11.550781 99.242188-4.058594-1.398438-8.417969-1.757813-12.964844-1.046875-.078125-2.511719-.171875-3.996094-.1875-4.21875-.210937-3.1875-2.402344-5.902344-5.476563-6.773438-81.78125-23.222656-117.785156-76.371093-118.128906-76.894531-1.554687-2.363281-4.304687-3.660156-7.113281-3.363281-2.816406.296875-5.226563 2.144531-6.25 4.78125-18.617187 47.90625-56.457031 77.035156-56.832031 77.320312-1.761719 1.332031-2.855469 3.375-2.988282 5.582031-.011718.199219-.078124 1.425782-.136718 3.5-4.445313-.625-8.710938-.222656-12.683594 1.183594-2.0625-14.5625-3.441406-28.019531-4.085938-40.089844-.222656-4.167968-3.785156-7.375-7.953124-7.144531-4.167969.222657-7.367188 3.785157-7.148438 7.953125.792969 14.785156 2.632812 31.511719 5.453125 49.730469-.246094.320313-.488281.640625-.726563.972656-11.441406 15.90625-9.355468 47.386719 4.382813 66.046875 7.753906 10.535156 18.460937 16.042969 30.546875 16.042969 2.402344 0 4.863281-.226563 7.363281-.664063 5.738281 13.9375 13.039063 25.617188 21.855469 34.945313 1.570312 1.660156 3.199219 3.214844 4.855469 4.714844v35.253906c-22.519531 11.871094-128.6875 68.203125-153.6875 88.414063-29.386719 23.761718-33.253907 78.726562-33.402344 81.054687-.277344 4.296875 3.242187 8.046875 7.542969 8.046875h92.570312c4.175782 0 7.5625-3.382812 7.5625-7.558594 0-4.175781-3.386718-7.5625-7.5625-7.5625zm239.847656-286.363281c1.488282-11.113281 2.132813-21.269531 2.371094-29.433594 7.988282-2.382812 12.363282 1.761719 15.335938 5.894531 6.960937 9.671876 6.339844 33.847657-4.304688 48.277344-5.375 7.292969-12.316406 10.542969-20.6875 9.753906 3.164063-10.488281 5.605469-21.976562 7.285156-34.492187zm-54.144531 128.535156c0 23.050781-18.75 41.800781-41.800781 41.800781s-41.800781-18.75-41.800781-41.800781v-28.984375c12.203125 6.695313 26.152343 10.074219 41.71875 10.074219h.355469c15.503906-.050781 29.386718-3.441406 41.527343-10.097656zm-151.171875-103.820312c-10.621094-14.429688-11.234375-38.597657-4.285156-48.257813 4.152344-5.769531 8.867188-7.707031 14.941406-6.015625.273438 8.292969.980469 18.738281 2.59375 30.195313 1.726563 12.273437 4.1875 23.558594 7.335938 33.871094-8.324219.742187-15.230469-2.519532-20.585938-9.792969zm25.703125-69.011719c8.863281-7.359375 35.886719-31.804688 53.773438-69.621094 14.953125 17.429688 50.878906 52.007813 113.136719 71.003906.386718 18.640626-.742188 82.5625-32.167969 116.214844-13.074219 14-30.183594 21.136719-50.851563 21.203125-20.664062.085938-37.820312-6.953125-50.992187-20.867187-32.855469-34.71875-33.269531-102.289063-32.898438-117.933594zm0 0"/><path d="m488.046875 503.953125c-.152344-2.328125-4.019531-57.296875-33.402344-81.054687-9.6875-7.832032-32.511719-21.882813-67.839843-41.761719-3.636719-2.046875-8.246094-.757813-10.296876 2.878906-2.046874 3.640625-.757812 8.25 2.882813 10.296875 43.089844 24.246094 59.535156 35.320312 65.746094 40.34375 18.316406 14.808594 24.824219 47.136719 26.917969 62.222656h-341.683594c-4.175782 0-7.558594 3.382813-7.558594 7.558594s3.382812 7.5625 7.558594 7.5625h350.128906c4.304688 0 7.824219-3.75 7.546875-8.046875zm0 0"/></svg>