<svg width="24" height="24" viewBox="0 0 24 24" fill="none" xmlns="http://www.w3.org/2000/svg">
<path fill-rule="evenodd" clip-rule="evenodd" d="M16.2721 10.2721C16.2721 12.4813 14.4813 14.2721 12.2721 14.2721C10.063 14.2721 8.27214 12.4813 8.27214 10.2721C8.27214 8.06299 10.063 6.27213 12.2721 6.27213C14.4813 6.27213 16.2721 8.06299 16.2721 10.2721ZM14.2721 10.2721C14.2721 11.3767 13.3767 12.2721 12.2721 12.2721C11.1676 12.2721 10.2721 11.3767 10.2721 10.2721C10.2721 9.16756 11.1676 8.27213 12.2721 8.27213C13.3767 8.27213 14.2721 9.16756 14.2721 10.2721Z" fill="black"/>
<path fill-rule="evenodd" clip-rule="evenodd" d="M5.79417 16.5183C2.19424 13.0909 2.05438 7.3941 5.48178 3.79417C8.90918 0.194251 14.6059 0.0543907 18.2059 3.48179C21.8058 6.90918 21.9457 12.606 18.5183 16.2059L12.3124 22.7241L5.79417 16.5183ZM17.0698 14.8268L12.243 19.8965L7.17324 15.0698C4.3733 12.404 4.26452 7.97319 6.93028 5.17325C9.59603 2.37331 14.0268 2.26453 16.8268 4.93028C19.6267 7.59604 19.7355 12.0269 17.0698 14.8268Z" fill="black"/>
</svg>
