<svg width="72" height="64" viewBox="0 0 72 64" fill="none" xmlns="http://www.w3.org/2000/svg">
<path d="M64.0466 0H7.57542C3.39827 0 0 3.35981 0 7.48939V38.1276V42.8937C0 47.0232 3.39827 50.383 7.57542 50.383H25.8669L23.6631 61.2766H16.5282C15.7675 61.2766 15.1508 61.8862 15.1508 62.6383C15.1508 63.3904 15.7675 64 16.5282 64H55.0938C55.8545 64 56.4711 63.3904 56.4711 62.6383C56.4711 61.8862 55.8545 61.2766 55.0938 61.2766H47.9589L45.7551 50.383H64.0466C68.2236 50.383 71.622 47.0234 71.622 42.8937V38.1276V7.48939C71.622 3.35981 68.2237 0 64.0466 0ZM26.4723 61.2766L28.6761 50.383H42.9459L45.1497 61.2766H26.4723ZM68.8673 42.8937C68.8673 45.5216 66.7048 47.6597 64.0466 47.6597H7.57542C4.9173 47.6597 2.75465 45.5217 2.75465 42.8937V39.4895H68.8672V42.8937H68.8673ZM68.8673 36.7661H2.75465V34.0427H11.0187C11.7794 34.0427 12.3961 33.4331 12.3961 32.681C12.3961 31.929 11.7794 31.3194 11.0187 31.3194H2.75465V7.48939C2.75465 4.86145 4.91716 2.72336 7.57542 2.72336H64.0466C66.7047 2.72336 68.8673 4.86131 68.8673 7.48939V36.7661Z" fill="#0F3460"/>
<path d="M35.8108 40.8512C34.2919 40.8512 33.0562 42.0729 33.0562 43.5746C33.0562 45.0762 34.2919 46.2979 35.8108 46.2979C37.3297 46.2979 38.5654 45.0762 38.5654 43.5746C38.5654 42.0729 37.3297 40.8512 35.8108 40.8512Z" fill="#0F3460"/>
<path d="M47.0875 26.0787L44.1657 23.1901L46.6005 20.783C46.9546 20.433 47.0886 19.9206 46.9505 19.4447C46.8125 18.969 46.4241 18.6047 45.9362 18.4932L33.2751 15.6046C32.8125 15.4993 32.3273 15.6365 31.9913 15.9686C31.6556 16.3006 31.5164 16.7801 31.6232 17.2378L34.5452 29.755C34.6579 30.2372 35.0263 30.6213 35.5077 30.7578C35.9892 30.8941 36.5072 30.7616 36.8614 30.4117L39.2961 28.0045L42.2179 30.8932C42.4869 31.1591 42.8394 31.292 43.1918 31.292C43.5442 31.292 43.8968 31.1591 44.1657 30.8932L47.0875 28.0045C47.6252 27.4728 47.6252 26.6106 47.0875 26.0787ZM43.1918 28.0045L40.27 25.1159C40.001 24.8499 39.6485 24.717 39.2961 24.717C38.9437 24.717 38.5911 24.8499 38.3222 25.1159L36.6707 26.7488L34.8032 18.7484L42.8955 20.5945L41.2439 22.2273C40.706 22.759 40.706 23.6213 41.2439 24.1531L44.1657 27.0417L43.1918 28.0045Z" fill="#D23F57"/>
<path d="M30.1412 12.2139L28.7639 10.8522C28.2261 10.3204 27.3539 10.3204 26.816 10.8522C26.2781 11.3839 26.2781 12.2461 26.816 12.778L28.1935 14.1397C28.4625 14.4056 28.815 14.5385 29.1674 14.5385C29.5197 14.5385 29.8724 14.4056 30.1412 14.1397C30.6791 13.608 30.6791 12.7458 30.1412 12.2139Z" fill="#D23F57"/>
<path d="M27.4565 15.9004H25.5087C24.748 15.9004 24.1313 16.51 24.1313 17.2621C24.1313 18.0141 24.748 18.6238 25.5087 18.6238H27.4565C28.2172 18.6238 28.8338 18.0141 28.8338 17.2621C28.8338 16.51 28.2172 15.9004 27.4565 15.9004Z" fill="#D23F57"/>
<path d="M30.1416 20.384C29.6039 19.8523 28.7318 19.8523 28.1938 20.384L26.8165 21.7457C26.2786 22.2775 26.2786 23.1398 26.8165 23.6715C27.0855 23.9375 27.438 24.0704 27.7904 24.0704C28.1427 24.0704 28.4954 23.9375 28.7643 23.6715L30.1416 22.3098C30.6795 21.7782 30.6795 20.9159 30.1416 20.384Z" fill="#D23F57"/>
<path d="M39.7833 10.8522C39.2455 10.3204 38.3734 10.3204 37.8354 10.8522L36.4581 12.2139C35.9202 12.7456 35.9202 13.6079 36.4581 14.1397C36.7271 14.4056 37.0796 14.5385 37.4321 14.5385C37.7846 14.5385 38.1371 14.4056 38.406 14.1397L39.7833 12.778C40.3212 12.2464 40.3212 11.3841 39.7833 10.8522Z" fill="#D23F57"/>
<path d="M33.3002 8.19739C32.5395 8.19739 31.9229 8.80701 31.9229 9.55907V11.4847C31.9229 12.2368 32.5395 12.8464 33.3002 12.8464C34.0609 12.8464 34.6775 12.2368 34.6775 11.4847V9.55907C34.6775 8.80701 34.0609 8.19739 33.3002 8.19739Z" fill="#D23F57"/>
<path d="M16.5005 32.4154C16.484 32.3283 16.4565 32.2425 16.4221 32.1594C16.3876 32.0777 16.345 31.9987 16.2953 31.9252C16.2458 31.8502 16.1879 31.7808 16.1245 31.7181C16.0611 31.6555 15.9909 31.5984 15.9151 31.5493C15.8407 31.5003 15.7608 31.458 15.6769 31.424C15.5942 31.3899 15.5075 31.3627 15.4193 31.3464C15.2417 31.311 15.0598 31.311 14.8822 31.3464C14.7941 31.3627 14.7073 31.3899 14.6246 31.424C14.5406 31.458 14.4607 31.5002 14.3864 31.5493C14.3106 31.5982 14.2404 31.6555 14.177 31.7181C14.1136 31.7808 14.0559 31.8502 14.0062 31.9252C13.9567 31.9987 13.9139 32.0777 13.8795 32.1594C13.8451 32.2425 13.8175 32.3283 13.801 32.4154C13.7831 32.5025 13.7734 32.5924 13.7734 32.681C13.7734 32.7695 13.7831 32.8594 13.801 32.9465C13.8175 33.0336 13.8451 33.1194 13.8795 33.2011C13.9139 33.2842 13.9565 33.3632 14.0062 33.4366C14.0557 33.5116 14.1136 33.581 14.177 33.6436C14.2404 33.7063 14.3106 33.7634 14.3864 33.8125C14.4608 33.8615 14.5407 33.9038 14.6246 33.9378C14.7073 33.9718 14.7941 33.9991 14.8822 34.0168C14.9703 34.0345 15.0612 34.0426 15.1508 34.0426C15.2403 34.0426 15.3312 34.0345 15.4193 34.0168C15.5075 33.9991 15.5942 33.9718 15.6769 33.9378C15.7609 33.9038 15.8408 33.8616 15.9151 33.8125C15.9909 33.7636 16.0611 33.7063 16.1245 33.6436C16.1879 33.581 16.2457 33.5116 16.2953 33.4366C16.3448 33.363 16.3876 33.2841 16.4221 33.2011C16.4565 33.1194 16.484 33.0336 16.5005 32.9465C16.5184 32.8594 16.5281 32.7695 16.5281 32.681C16.5281 32.5924 16.5184 32.5025 16.5005 32.4154Z" fill="#0F3460"/>
</svg>
