<?xml version="1.0" encoding="iso-8859-1"?>
<!-- Generator: Adobe Illustrator 19.0.0, SVG Export Plug-In . SVG Version: 6.00 Build 0)  -->
<svg version="1.1" id="Capa_1" xmlns="http://www.w3.org/2000/svg" xmlns:xlink="http://www.w3.org/1999/xlink" x="0px" y="0px"
	 viewBox="0 0 512 512" style="enable-background:new 0 0 512 512;" xml:space="preserve">
<g>
	<g>
		<path d="M489.273,256.001L512,215.454l-34.145-31.538l9.087-45.585l-42.22-19.444l-5.445-46.162l-46.162-5.445L373.67,25.06
			l-45.585,9.087L296.546,0.001L256,22.728L215.454,0.001l-31.538,34.145l-45.585-9.087l-19.444,42.22l-46.162,5.445l-5.445,46.162
			L25.06,138.33l9.087,45.585L0,215.454l22.727,40.546L0,296.547l34.145,31.538l-9.087,45.585l42.22,19.444l5.445,46.162
			l46.162,5.445l19.444,42.22l45.585-9.087l31.538,34.145l40.546-22.727l40.546,22.727l31.538-34.145l45.585,9.087l19.444-42.22
			l46.162-5.445l5.445-46.162l42.22-19.444l-9.087-45.585l34.145-31.538L489.273,256.001z M184.093,300.015h-21.559l-39.224-48.542
			v48.542H96.188v-98.754h21.142l39.641,50.212v-50.212h27.122V300.015z M271.442,300.015h-70.379v-98.754h69.128v23.645h-42.005
			v13.909h35.885v21.976h-35.885v15.578h43.257V300.015z M385.632,300.015h-22.533l-14.048-35.33l-13.908,35.33h-22.532
			l-38.667-98.754h29.348l21.42,67.736l6.814-20.584l-15.995-47.152h24.898l8.623,30.46l8.763-30.46h24.898l-16.274,47.152
			l7.094,20.584l21.282-67.736H424.3L385.632,300.015z"/>
	</g>
</g>
<g>
</g>
<g>
</g>
<g>
</g>
<g>
</g>
<g>
</g>
<g>
</g>
<g>
</g>
<g>
</g>
<g>
</g>
<g>
</g>
<g>
</g>
<g>
</g>
<g>
</g>
<g>
</g>
<g>
</g>
</svg>
