<svg width="64" height="64" viewBox="0 0 64 64" fill="none" xmlns="http://www.w3.org/2000/svg">
<g clip-path="url(#clip0)">
<path d="M24 4H26V6H24V4Z" fill="#0F3460"/>
<path d="M10 4H12V6H10V4Z" fill="#0F3460"/>
<path d="M14 4H22V6H14V4Z" fill="#0F3460"/>
<path d="M18 60C20.209 60 22 58.209 22 56C22 53.791 20.209 52 18 52C15.791 52 14 53.791 14 56C14 58.209 15.791 60 18 60ZM18 54C19.1045 54 20 54.8955 20 56C20 57.1045 19.1045 58 18 58C16.8955 58 16 57.1045 16 56C16 54.8955 16.8955 54 18 54Z" fill="#0F3460"/>
<path d="M43 21C38.0293 21 34 25.0293 34 30C34 34.9707 38.0293 39 43 39C47.9707 39 52 34.9707 52 30C51.9941 25.0317 47.9683 21.0059 43 21ZM43 37C39.1338 37 36 33.8662 36 30C36 26.1338 39.1338 23 43 23C46.8662 23 50 26.1338 50 30C49.9956 33.8643 46.8643 36.9956 43 37Z" fill="#D23F57"/>
<path d="M43 26C40.791 26 39 27.791 39 30C39 32.209 40.791 34 43 34C45.209 34 47 32.209 47 30C47 27.791 45.209 26 43 26ZM43 32C41.8955 32 41 31.1045 41 30C41 28.8955 41.8955 28 43 28C44.1045 28 45 28.8955 45 30C45 31.1045 44.1045 32 43 32Z" fill="#D23F57"/>
<path d="M63.9258 28.2412L63.8662 27.5239L59.6328 26.4839C59.5073 25.8911 59.3506 25.3052 59.1631 24.729L62.3062 21.708L62 21.0581C61.4971 19.9951 60.9058 18.9761 60.2329 18.0122L59.8218 17.4229L55.6392 18.6421C55.2354 18.1934 54.8081 17.7661 54.3589 17.3618L55.5781 13.1792L54.9888 12.7681C54.0244 12.0947 53.0054 11.5034 51.9419 11L51.292 10.6929L48.271 13.8359C47.6948 13.6484 47.1089 13.4917 46.5161 13.3662L45.4761 9.13281L44.7588 9.07324C43.5884 8.9751 42.4116 8.9751 41.2412 9.07324L40.5239 9.13281L39.4839 13.3662C38.8911 13.4917 38.3052 13.6484 37.729 13.8359L36 12.0381V3C36 1.34326 34.6567 0 33 0H3C1.34326 0 0 1.34326 0 3V61C0 62.6567 1.34326 64 3 64H33C34.6567 64 36 62.6567 36 61V47.9609L37.729 46.1611C38.3052 46.3496 38.8911 46.5063 39.4839 46.6309L40.5239 50.8618L41.2388 50.9229C41.8252 50.9731 42.417 50.998 43 50.998C43.583 50.998 44.1748 50.9731 44.7612 50.9229L45.4761 50.8618L46.5161 46.6309C47.1089 46.5063 47.6948 46.3496 48.271 46.1611L51.292 49.3032L51.9419 48.9961C53.0049 48.4932 54.0234 47.9023 54.9878 47.23L55.5771 46.8188L54.3579 42.6362C54.8066 42.2319 55.2339 41.8047 55.6382 41.356L59.8208 42.5752L60.2319 41.9858C60.9048 41.0225 61.4966 40.0039 62 38.9419L62.3071 38.292L59.1641 35.271C59.3525 34.6948 59.5093 34.1089 59.6338 33.5161L63.8672 32.4761L63.9268 31.7588C63.9751 31.166 64 30.5742 64 30C64 29.4258 63.9751 28.834 63.9258 28.2412ZM2 3C2 2.44775 2.44775 2 3 2H33C33.5522 2 34 2.44775 34 3V8H2V3ZM2 10H34V11.0322C32.958 11.5273 31.9585 12.1079 31.0122 12.7681L30.4229 13.1792L31.6421 17.3618C31.1934 17.7661 30.7661 18.1934 30.3618 18.6421L26.1792 17.4229L25.7681 18.0122C25.0947 18.9761 24.5034 19.9951 24 21.0581L23.6929 21.708L26.8359 24.729C26.6479 25.3052 26.4912 25.8911 26.3662 26.4839L22.1328 27.5239L22.0732 28.2412C22.0249 28.834 22 29.4258 22 30C22 30.5742 22.0249 31.166 22.0742 31.7588L22.1338 32.4761L26.3672 33.5171C26.4922 34.1099 26.6489 34.6953 26.8369 35.271L23.6938 38.292L24.001 38.9419C24.5044 40.0049 25.0952 41.0234 25.7681 41.9878L26.1792 42.5771L30.3618 41.3579C30.7661 41.8066 31.1934 42.2339 31.6421 42.6382L30.4229 46.8208L31.0122 47.2319C31.4028 47.5049 31.812 47.7549 32.2178 48H2V10ZM34 61C34 61.5522 33.5522 62 33 62H3C2.44775 62 2 61.5522 2 61V50H34V61ZM61.979 30.8799L57.896 31.8799L57.7861 32.5259C57.6309 33.4365 57.3911 34.3301 57.0698 35.1958L56.8408 35.811L59.873 38.7251C59.6016 39.2461 59.3071 39.7539 58.9888 40.248L54.9521 39.0718L54.5332 39.5718C53.9424 40.2812 53.2891 40.9351 52.5801 41.5259L52.0801 41.9448L53.2559 45.9819C52.7622 46.2998 52.2544 46.5942 51.7329 46.8652L48.8198 43.8359L48.2061 44.063C47.3398 44.3838 46.4458 44.6235 45.5352 44.7788L44.8892 44.8892L43.8892 48.9722C43.2998 49 42.7178 49 42.1289 48.9722L41.1289 44.8892L40.4829 44.7788C39.5684 44.6265 38.6704 44.3892 37.7998 44.0698L37.186 43.8428L34.2729 46.8721C33.7529 46.6021 33.2451 46.3076 32.75 45.9888L33.9258 41.9521L33.4258 41.5332C32.7173 40.9424 32.0635 40.2881 31.4731 39.5791L31.0542 39.0791L27.0171 40.2549C26.6992 39.7622 26.4043 39.2549 26.1328 38.7319L29.165 35.8179L28.9302 35.2002C28.6089 34.3345 28.3691 33.4409 28.2139 32.5308L28.104 31.8848L24.021 30.8848C24.0068 30.585 24 30.2939 24 30.0049C24 29.7158 24.0068 29.4219 24.021 29.125L28.104 28.125L28.2139 27.479C28.3687 26.5659 28.6084 25.6689 28.9302 24.7998L29.1582 24.1851L26.127 21.272C26.3984 20.752 26.6929 20.2441 27.0112 19.749L31.0479 20.9248L31.4668 20.4248C32.0571 19.7153 32.7109 19.0615 33.4199 18.4712L33.9199 18.0518L32.7441 14.0151C33.2378 13.6968 33.7456 13.4023 34.2671 13.1309L37.1802 16.1621L37.7949 15.9341C38.6611 15.6133 39.5547 15.3735 40.4648 15.2178L41.1108 15.1079L42.1108 11.0249C42.7051 10.9971 43.2769 10.9971 43.8711 11.0249L44.8711 15.1079L45.5171 15.2178C46.4272 15.3735 47.3213 15.6133 48.187 15.9341L48.8018 16.1621L51.7148 13.1309C52.2349 13.4019 52.7427 13.6963 53.2378 14.0151L52.062 18.0518L52.562 18.4712C53.2715 19.061 53.9253 19.7148 54.5161 20.4238L54.9351 20.9238L58.9722 19.748C59.29 20.2422 59.5845 20.7495 59.856 21.271L56.8252 24.1841L57.0532 24.7988C57.374 25.665 57.6133 26.5586 57.769 27.4692L57.8789 28.1152L61.9619 29.1152C61.9761 29.415 61.9829 29.7061 61.9829 29.9951C61.9829 30.2842 61.9932 30.583 61.979 30.8799Z" fill="#0F3460"/>
</g>
<defs>
<clipPath id="clip0">
<rect width="64" height="64" fill="white"/>
</clipPath>
</defs>
</svg>
