<svg width="42" height="43" viewBox="0 0 42 43" fill="none" xmlns="http://www.w3.org/2000/svg">
<g clip-path="url(#clip0)">
<path d="M36.4318 15.6619C35.8206 15.0823 34.9956 14.814 34.1678 14.9268C34.0236 14.9464 33.8733 14.969 33.7186 14.9942C31.0268 11.6768 27.1061 9.63479 22.9037 9.37599C22.7345 9.36559 22.571 9.42679 22.4484 9.5447C22.3258 9.66269 22.2564 9.82723 22.2564 9.99935V12.8397C22.2564 13.1473 22.012 13.3976 21.7117 13.3976H19.9742C19.6738 13.3976 19.4295 13.1473 19.4295 12.8397V11.0284C20.1847 9.9254 20.6296 8.58477 20.6296 7.13905C20.6296 3.39103 17.6478 0.341797 13.9826 0.341797C10.3179 0.341797 7.33639 3.39103 7.33639 7.13905C7.33639 7.47912 7.3609 7.81753 7.40918 8.14486C7.45942 8.48593 7.77011 8.72042 8.10409 8.6692C8.43758 8.61774 8.6671 8.29957 8.61678 7.9585C8.57762 7.69271 8.55767 7.417 8.55767 7.13905C8.55767 4.07975 10.9913 1.59083 13.9826 1.59083C16.9743 1.59083 19.4083 4.07975 19.4083 7.13905C19.4083 10.1989 16.9743 12.6881 13.9826 12.6881C12.0798 12.6881 10.3492 11.696 9.35354 10.0344C9.17727 9.74038 8.80144 9.64795 8.51387 9.82823C8.22638 10.0084 8.13609 10.393 8.31228 10.687C8.81088 11.519 9.46004 12.2138 10.2126 12.7446C9.39213 13.4132 8.64104 14.1665 7.96926 14.9945C7.81383 14.9691 7.66296 14.9464 7.51812 14.9267C6.69058 14.8141 5.86524 15.0822 5.25403 15.6618C4.642 16.2421 4.3182 17.0646 4.36551 17.9185C4.43789 19.2236 4.61603 20.4012 4.84417 21.4381C4.58021 22.61 4.44782 23.8162 4.45336 25.0263C4.45897 26.3349 4.48763 27.6707 4.53852 28.9969C4.64575 31.7694 5.76436 34.3775 7.68828 36.3406C8.03472 36.6942 8.40192 37.0206 8.78654 37.3195V40.5388C8.78654 41.8822 9.85484 42.9752 11.168 42.9752H15.4735C16.4493 42.9752 17.3159 42.3777 17.6807 41.4537L18.3952 39.65C19.2105 39.6634 20.0266 39.6718 20.8429 39.6718C21.6592 39.6718 22.4752 39.6634 23.2906 39.65L24.0049 41.4531C24.37 42.3778 25.2365 42.9753 26.2124 42.9753H30.5178C31.831 42.9753 32.8993 41.8823 32.8993 40.5389V37.3226C33.4229 36.9143 33.9145 36.4543 34.3669 35.9442C34.5935 35.6889 34.5748 35.2938 34.3249 35.0621C34.0751 34.8303 33.6888 34.8495 33.4623 35.1051C31.7245 37.0642 29.3448 38.2003 26.7615 38.3038C22.8344 38.4624 18.8517 38.4624 14.924 38.3038C12.5189 38.2072 10.2555 37.196 8.55067 35.4565C6.84536 33.7163 5.85376 31.4047 5.75874 28.9477C5.70843 27.6362 5.68009 26.3151 5.67456 25.0206C5.67342 24.775 5.67969 24.5297 5.69076 24.2848C6.22926 25.694 6.73194 26.4901 6.77395 26.5554C6.89119 26.7376 7.08562 26.8364 7.28412 26.8364C7.399 26.8364 7.51535 26.8033 7.61859 26.734C7.9003 26.5451 7.97903 26.1581 7.79478 25.8698C7.77548 25.8395 5.85872 22.7863 5.58475 17.848C5.55813 17.3672 5.7401 16.9043 6.08425 16.5779C6.42776 16.2523 6.8916 16.1017 7.35707 16.1651C9.24224 16.4213 12.1193 17.1635 15.1199 19.2442C15.3989 19.4378 15.7786 19.3632 15.968 19.0778C16.1572 18.7923 16.0844 18.4039 15.8052 18.2103C13.4631 16.5861 11.188 15.7273 9.34589 15.2759C9.96328 14.5841 10.6455 13.9573 11.3822 13.4008C12.189 13.75 13.0694 13.9371 13.9826 13.9371C15.5861 13.9371 17.0588 13.3534 18.2081 12.3829V12.8397C18.2081 13.836 19.0003 14.6466 19.9741 14.6466H21.7116C22.6854 14.6466 23.4776 13.836 23.4776 12.8397V10.6782C26.8752 11.051 30.0314 12.6921 32.3394 15.276C30.4974 15.7273 28.2225 16.5863 25.8805 18.2103C25.6013 18.4039 25.5285 18.7922 25.7177 19.0778C25.9071 19.3632 26.2868 19.4378 26.5659 19.2442C29.5664 17.1635 32.4434 16.4213 34.3286 16.1651C34.7941 16.1018 35.2581 16.2524 35.6015 16.5779C35.9456 16.9042 36.1276 17.3672 36.101 17.8479C35.8271 22.7863 33.9103 25.8395 33.8909 25.8698C33.7063 26.1578 33.7845 26.5445 34.0659 26.7339C34.1694 26.8035 34.2858 26.8368 34.401 26.8368C34.5995 26.8368 34.7944 26.7378 34.9117 26.5555C34.9537 26.4903 35.4563 25.6942 35.9949 24.285C36.0059 24.53 36.0122 24.7753 36.0111 25.021C36.0055 26.3152 35.9772 27.6364 35.9269 28.9479C35.8692 30.4492 35.4861 31.8784 34.7879 33.1954C34.6272 33.4986 34.7373 33.8777 35.0338 34.042C35.1263 34.0933 35.226 34.1177 35.3242 34.1177C35.541 34.1177 35.751 33.9993 35.8617 33.7907C36.6497 32.304 37.0822 30.691 37.1473 28.9969C37.1982 27.671 37.2268 26.3352 37.2324 25.0268C37.238 23.8164 37.1056 22.6103 36.8416 21.4384C37.0698 20.4016 37.2479 19.2238 37.3203 17.9187C37.3677 17.0647 37.0438 16.2423 36.4318 15.6619ZM26.8096 39.5519C28.5495 39.4821 30.2072 38.9968 31.6781 38.1468V40.5388C31.6781 41.1935 31.1575 41.7262 30.5178 41.7262H26.2124C25.737 41.7262 25.3151 41.4353 25.137 40.9846L24.5975 39.6226C25.3363 39.6039 26.0742 39.5816 26.8096 39.5519ZM17.0884 39.6226L16.5486 40.9853C16.3708 41.4353 15.9489 41.7262 15.4735 41.7262H11.168C10.5283 41.7262 10.0078 41.1935 10.0078 40.5388V38.1411C11.4848 38.9936 13.1478 39.4824 14.8761 39.5519C15.6118 39.5816 16.3497 39.6039 17.0884 39.6226Z" fill="#2B3445"/>
<path d="M33.0979 22.4753C33.2014 22.5449 33.3178 22.5782 33.433 22.5782C33.6315 22.5782 33.8264 22.4793 33.9437 22.2969C33.9737 22.2502 34.6806 21.1326 34.7807 19.3287C34.8027 18.9291 34.651 18.5441 34.3645 18.2723C34.0781 18.0008 33.6915 17.875 33.3041 17.9278C32.6159 18.0214 31.5672 18.2914 30.4788 19.0461C30.1996 19.2397 30.1268 19.628 30.316 19.9135C30.5054 20.199 30.8851 20.2736 31.1642 20.08C32.0553 19.462 32.9072 19.2419 33.4649 19.166C33.4916 19.1627 33.5148 19.1699 33.5342 19.1883C33.5538 19.2068 33.563 19.2303 33.5614 19.2581C33.4815 20.699 32.9338 21.5937 32.922 21.6129C32.7385 21.9008 32.817 22.2862 33.0979 22.4753Z" fill="#2B3445"/>
<path d="M8.22059 19.166C8.77838 19.2419 9.63025 19.462 10.5215 20.08C10.8005 20.2736 11.1802 20.199 11.3696 19.9135C11.5588 19.6281 11.486 19.2397 11.2068 19.0461C10.1184 18.2914 9.06969 18.0214 8.38147 17.9278C7.9936 17.875 7.60735 18.0007 7.32108 18.2723C7.03449 18.5441 6.88281 18.9291 6.90496 19.3288C7.00502 21.1326 7.71189 22.2502 7.74193 22.2969C7.85926 22.4793 8.05401 22.5782 8.25259 22.5782C8.36779 22.5782 8.4843 22.5449 8.5877 22.4753C8.86941 22.2857 8.94749 21.8985 8.76218 21.6103C8.75664 21.6016 8.20455 20.7067 8.12427 19.258C8.12264 19.2302 8.13184 19.2067 8.15146 19.1881C8.17068 19.17 8.19421 19.1625 8.22059 19.166Z" fill="#2B3445"/>
<path d="M22.9578 24.924C21.5543 24.8769 20.1312 24.8769 18.7277 24.924C16.3702 25.0031 14.4771 26.9625 14.4179 29.3849C14.4048 29.9202 14.4048 30.463 14.4179 30.9983C14.4771 33.4207 16.3702 35.3802 18.7277 35.4593C19.4295 35.4828 20.1361 35.4946 20.8428 35.4946C21.5495 35.4946 22.2561 35.4828 22.9579 35.4593C25.3155 35.3802 27.2085 33.4207 27.2678 30.9983C27.2808 30.463 27.2808 29.9203 27.2678 29.3849C27.2085 26.9626 25.3154 25.0031 22.9578 24.924ZM26.0467 30.9671C26.0037 32.7286 24.6293 34.1535 22.9177 34.2109C21.5409 34.2571 20.1445 34.2571 18.7677 34.2109C17.0562 34.1535 15.6818 32.7287 15.6387 30.9671C15.6262 30.4525 15.6262 29.9308 15.6387 29.4162C15.6817 27.6546 17.0561 26.2297 18.7677 26.1723C19.4561 26.1493 20.1495 26.1377 20.8427 26.1377C21.5359 26.1377 22.2292 26.1493 22.9176 26.1723C24.6291 26.2297 26.0035 27.6545 26.0466 29.4162C26.0592 29.9307 26.0592 30.4525 26.0467 30.9671Z" fill="#2B3445"/>
<path d="M19.3089 28.9668C18.9716 28.9668 18.6982 29.2464 18.6982 29.5913V30.9189C18.6982 31.2638 18.9716 31.5434 19.3089 31.5434C19.6462 31.5434 19.9195 31.2638 19.9195 30.9189V29.5913C19.9195 29.2464 19.6462 28.9668 19.3089 28.9668Z" fill="#2B3445"/>
<path d="M22.3773 28.9668C22.04 28.9668 21.7667 29.2464 21.7667 29.5913V30.9189C21.7667 31.2638 22.04 31.5434 22.3773 31.5434C22.7146 31.5434 22.9879 31.2638 22.9879 30.9189V29.5913C22.9879 29.2464 22.7145 28.9668 22.3773 28.9668Z" fill="#2B3445"/>
<path d="M12.3842 29.27C12.9558 29.27 13.4208 28.4805 13.4208 27.51C13.4208 26.5395 12.9557 25.75 12.3842 25.75C11.8126 25.75 11.3477 26.5395 11.3477 27.51C11.3477 28.4805 11.8126 29.27 12.3842 29.27Z" fill="#2B3445"/>
<path d="M29.3018 25.75C28.7302 25.75 28.2652 26.5395 28.2652 27.51C28.2652 28.4805 28.7303 29.27 29.3018 29.27C29.8734 29.27 30.3383 28.4805 30.3383 27.51C30.3383 26.5395 29.8734 25.75 29.3018 25.75Z" fill="#2B3445"/>
<path d="M13.9278 9.90817C13.1022 9.91267 12.7763 9.88194 12.0777 9.49699C11.7808 9.33329 11.4105 9.44686 11.2505 9.75054C11.0905 10.0542 11.2015 10.4329 11.4984 10.5965C12.2106 10.989 12.7011 11.112 13.3206 11.1458V11.5308C13.3206 11.8757 13.5939 12.1553 13.9312 12.1553C14.2685 12.1553 14.5418 11.8757 14.5418 11.5308V11.1011C15.844 10.8618 16.637 9.89218 16.7676 8.93626C16.9197 7.82338 16.2228 6.86755 14.9921 6.50116C14.2145 6.2696 13.3524 5.98857 12.8546 5.65974C12.6226 5.50653 12.6244 5.26047 12.6461 5.12749C12.6917 4.84812 12.916 4.50497 13.4093 4.37982C13.6085 4.32928 13.7943 4.30513 13.9658 4.29889C13.9704 4.29864 13.9752 4.29855 13.9798 4.29814C14.7332 4.27507 15.1988 4.60523 15.231 4.62879C15.4992 4.83305 15.879 4.77851 16.0819 4.50556C16.2858 4.23094 16.2335 3.83916 15.9649 3.63049C15.9329 3.60568 15.4039 3.20466 14.5418 3.08333V2.74951C14.5418 2.40461 14.2684 2.125 13.9311 2.125C13.5938 2.125 13.3205 2.40461 13.3205 2.74951V3.12172C13.2529 3.13513 13.1848 3.14978 13.1152 3.16744C12.2357 3.39059 11.5788 4.07931 11.4414 4.92198C11.3242 5.64084 11.6118 6.32555 12.1919 6.70875C12.6995 7.04416 13.4119 7.33152 14.6505 7.70031C15.2934 7.89166 15.6241 8.27911 15.558 8.76323C15.4573 9.50165 14.6429 9.90426 13.9278 9.90817Z" fill="#2B3445"/>
</g>
<defs>
<clipPath id="clip0">
<rect width="41.686" height="42.6334" fill="white" transform="translate(0 0.341797)"/>
</clipPath>
</defs>
</svg>
