<svg width="24" height="24" viewBox="0 0 24 24" fill="none" xmlns="http://www.w3.org/2000/svg">
<g clip-path="url(#clip0)">
<path d="M17.9236 8.23227C15.1356 6.67287 10.6607 4.16885 3.71978 0.282486C3.25183 -0.0265614 2.71342 -0.0670615 2.24823 0.090392L14.1569 11.999L17.9236 8.23227Z" fill="#32BBFF"/>
<path d="M2.24824 0.090332C2.16105 0.119863 2.07621 0.155488 1.99507 0.19852C1.48137 0.476395 1.10388 1.0111 1.10388 1.68737V22.3105C1.10388 22.9868 1.48132 23.5215 1.99507 23.7993C2.07607 23.8423 2.16087 23.8781 2.24796 23.9078L14.1568 11.999L2.24824 0.090332Z" fill="#32BBFF"/>
<path d="M14.1569 11.999L2.24799 23.9079C2.71331 24.0665 3.25172 24.0291 3.71982 23.7155C10.451 19.9463 14.8754 17.472 17.6957 15.8993C17.7742 15.8552 17.8512 15.8121 17.9272 15.7694L14.1569 11.999Z" fill="#32BBFF"/>
<path d="M1.10388 11.999V22.3106C1.10388 22.9869 1.48132 23.5216 1.99507 23.7994C2.07607 23.8424 2.16087 23.8782 2.24796 23.9079L14.1568 11.999H1.10388Z" fill="#2C9FD9"/>
<path d="M3.71978 0.282559C3.16407 -0.0843794 2.50876 -0.0739263 1.99506 0.198699L13.9761 12.1798L17.9235 8.23234C15.1356 6.67295 10.6607 4.16893 3.71978 0.282559Z" fill="#29CC5E"/>
<path d="M13.9762 11.8184L1.99506 23.7994C2.50881 24.072 3.16407 24.0877 3.71978 23.7155C10.4509 19.9463 14.8754 17.472 17.6957 15.8993C17.7742 15.8552 17.8511 15.8121 17.9271 15.7694L13.9762 11.8184Z" fill="#D93F21"/>
<path d="M22.8961 11.9989C22.8961 11.4275 22.6078 10.8509 22.0363 10.5311C22.0363 10.5311 20.9676 9.93479 17.6919 8.10254L13.7955 11.9989L17.6957 15.8992C20.9355 14.0801 22.0363 13.4667 22.0363 13.4667C22.6078 13.147 22.8961 12.5703 22.8961 11.9989Z" fill="#FFD500"/>
<path d="M22.0363 13.4669C22.6078 13.1471 22.8961 12.5704 22.8961 11.999H13.7955L17.6957 15.8993C20.9355 14.0802 22.0363 13.4669 22.0363 13.4669Z" fill="#FFAA00"/>
</g>
<defs>
<clipPath id="clip0">
<rect width="24" height="24" fill="white"/>
</clipPath>
</defs>
</svg>
