<svg width="60" height="60" viewBox="0 0 60 60" fill="none" xmlns="http://www.w3.org/2000/svg">
<g opacity="0.08" clip-path="url(#clip0)">
<path d="M60 29.9995L60 4.28521L34.2856 4.28521L34.2856 29.9995L51.4285 29.9995C51.4285 39.4519 43.738 47.1424 34.2857 47.1424L34.2857 55.7139C48.4654 55.7139 60 44.1793 60 29.9995Z" fill="#2B3445"/>
<path d="M-1.60081e-05 47.1424L-1.52588e-05 55.7139C14.1797 55.7139 25.7143 44.1793 25.7143 29.9995L25.7143 4.28521L-1.97548e-05 4.28521L-1.75068e-05 29.9995L17.1428 29.9995C17.1428 39.4519 9.45236 47.1424 -1.60081e-05 47.1424Z" fill="#2B3445"/>
</g>
<defs>
<clipPath id="clip0">
<rect width="60" height="60" fill="white" transform="translate(60 60) rotate(180)"/>
</clipPath>
</defs>
</svg>
