<?xml version="1.0"?>
<svg xmlns="http://www.w3.org/2000/svg" id="Layer_3" data-name="Layer 3" viewBox="0 0 64 64" width="512" height="512"><path d="M5.315,44.1,3.983,45.43l11.241,2.594a1,1,0,0,1,.75.749l2.594,11.243L19.9,58.683,17.166,46.832Z"/><path d="M32,9A16,16,0,1,0,48,25,16.017,16.017,0,0,0,32,9Zm6.122,18.367,1.847,7.391a1,1,0,0,1-.407,1.069A1.011,1.011,0,0,1,39,36a.993.993,0,0,1-.582-.187L32,31.229l-6.419,4.584a1,1,0,0,1-1.552-1.056l1.848-7.391-5.518-4.6A1,1,0,0,1,21,21h7.278l2.773-8.317a1,1,0,0,1,1.9,0L35.72,21H43a1,1,0,0,1,.641,1.768Z"/><path d="M34.051,22.315,32,16.161l-2.052,6.154A1,1,0,0,1,29,23H23.761l3.879,3.231a1,1,0,0,1,.329,1.011l-1.341,5.365,4.79-3.421a1,1,0,0,1,1.163,0l4.79,3.421-1.342-5.365a1,1,0,0,1,.33-1.011L40.237,23H35A1,1,0,0,1,34.051,22.315Z"/><path d="M26.2,47.085a4.972,4.972,0,0,1-6.312-2.574,1.865,1.865,0,0,0-1.607-1.1,4.972,4.972,0,0,1-4.707-4.9,2.18,2.18,0,0,0-.913-1.761L6.983,42.43l11.241,2.594a1,1,0,0,1,.75.749l2.594,11.242,8.44-8.44a4.95,4.95,0,0,1-1.5-1.009A2.127,2.127,0,0,0,26.2,47.085Z"/><path d="M37.931,45.49a2.97,2.97,0,0,0,3.746-1.563,4.209,4.209,0,0,1,3.813-2.5,2.969,2.969,0,0,0,2.928-2.812,3.861,3.861,0,0,1,2.265-3.323,2.973,2.973,0,0,0,1.537-3.773,4.127,4.127,0,0,1,.922-4.429,2.971,2.971,0,0,0,.1-4.074,3.861,3.861,0,0,1-.749-3.951,2.97,2.97,0,0,0-1.563-3.746,4.21,4.21,0,0,1-2.5-3.812A2.971,2.971,0,0,0,45.618,8.58a3.863,3.863,0,0,1-3.324-2.265,2.974,2.974,0,0,0-3.773-1.537,4.123,4.123,0,0,1-4.429-.922,3.044,3.044,0,0,0-4.073-.1,3.854,3.854,0,0,1-3.951.749,2.97,2.97,0,0,0-3.746,1.563,4.209,4.209,0,0,1-3.813,2.5,2.969,2.969,0,0,0-2.928,2.812A3.86,3.86,0,0,1,13.316,14.7a2.973,2.973,0,0,0-1.537,3.774,4.126,4.126,0,0,1-.922,4.428,2.973,2.973,0,0,0-.1,4.074,3.86,3.86,0,0,1,.749,3.951,2.97,2.97,0,0,0,1.563,3.746,4.21,4.21,0,0,1,2.5,3.812,2.971,2.971,0,0,0,2.811,2.929,3.859,3.859,0,0,1,3.324,2.265,2.972,2.972,0,0,0,3.772,1.536A4.212,4.212,0,0,1,27,44.934a4.133,4.133,0,0,1,2.912,1.208,3.045,3.045,0,0,0,4.073.1A3.862,3.862,0,0,1,37.931,45.49ZM32,43A18,18,0,1,1,50,25,18.02,18.02,0,0,1,32,43Z"/><path d="M45.774,45.024,57.017,42.43l-5.386-5.384c-.042.02-.078.049-.12.068a1.869,1.869,0,0,0-1.1,1.608,4.97,4.97,0,0,1-4.9,4.706A2.2,2.2,0,0,0,43.5,44.75a4.973,4.973,0,0,1-6.271,2.613,1.868,1.868,0,0,0-1.91.362,4.965,4.965,0,0,1-1.336.843l8.447,8.448,2.595-11.243A1,1,0,0,1,45.774,45.024Z"/><path d="M58.684,44.1,46.833,46.832,44.1,58.684l1.333,1.333,2.594-11.243a1,1,0,0,1,.75-.749L60.017,45.43Z"/></svg>
