<svg width="25" height="26" viewBox="0 0 25 26" fill="none" xmlns="http://www.w3.org/2000/svg">
<path d="M20.5201 15.9304C20.5202 15.5908 20.386 15.2649 20.1468 15.0238C19.9076 14.7826 19.5828 14.6458 19.2432 14.643H15.4312C15.3029 14.6455 15.1783 14.6 15.0818 14.5155C14.9853 14.4309 14.9238 14.3133 14.9095 14.1858C14.845 13.6054 14.9177 13.0181 15.1216 12.4709C15.3392 11.8902 15.4498 11.2749 15.4479 10.6548V10.2932C15.4483 9.74542 15.2312 9.21984 14.8442 8.83204C14.4573 8.44424 13.9322 8.22595 13.3844 8.22516C13.3154 8.22522 13.2487 8.25009 13.1965 8.29523C13.1444 8.34038 13.1102 8.40278 13.1002 8.47104L12.9012 9.77693C12.6933 11.1218 12.1702 12.3984 11.3747 13.5025C11.1581 13.7976 10.8748 14.0373 10.5478 14.2019C10.2209 14.3666 9.85961 14.4515 9.49355 14.4498H8.82976V13.378C8.83056 13.3408 8.82382 13.3039 8.80997 13.2695C8.79611 13.235 8.77542 13.2037 8.74914 13.1775C8.72286 13.1513 8.69155 13.1306 8.65707 13.1168C8.6226 13.103 8.58569 13.0963 8.54857 13.0972H4.77195C4.73438 13.0962 4.69698 13.1027 4.66195 13.1163C4.62693 13.13 4.59498 13.1505 4.56798 13.1766C4.54098 13.2028 4.51948 13.234 4.50473 13.2686C4.48999 13.3032 4.48229 13.3404 4.48211 13.378V23.0415C4.48185 23.1191 4.51209 23.1937 4.5663 23.2492C4.62051 23.3047 4.69437 23.3367 4.77195 23.3383H8.54857C8.58654 23.3374 8.62395 23.3289 8.65865 23.3135C8.69335 23.298 8.72466 23.2759 8.75078 23.2483C8.7769 23.2207 8.79733 23.1882 8.81088 23.1528C8.82443 23.1173 8.83085 23.0795 8.82976 23.0415V22.0823H9.42008C10.4634 22.0894 11.484 22.3875 12.3671 22.943C13.3562 23.5566 14.4699 23.6282 15.6196 23.6282H18.6938C18.951 23.6264 19.2023 23.5513 19.4181 23.4115C19.634 23.2717 19.8055 23.0732 19.9123 22.8393C20.0191 22.6054 20.0568 22.3458 20.0211 22.0911C19.9853 21.8365 19.8776 21.5973 19.7104 21.4018C19.925 21.3085 20.1116 21.1609 20.2518 20.9735C20.392 20.7862 20.4809 20.5655 20.5098 20.3333C20.5387 20.1011 20.5067 19.8653 20.4167 19.6493C20.3268 19.4333 20.1822 19.2444 19.997 19.1013C20.1585 18.9732 20.2892 18.8106 20.3797 18.6254C20.4702 18.4402 20.5181 18.2372 20.52 18.0311C20.5218 17.825 20.4776 17.6211 20.3904 17.4343C20.3033 17.2475 20.1755 17.0826 20.0163 16.9516C20.1731 16.8315 20.3 16.6769 20.3874 16.4998C20.4748 16.3227 20.5202 16.1279 20.5201 15.9304V15.9304ZM8.25008 22.7586H5.0618V13.6769H8.25008V22.7586ZM19.1752 19.3771C19.3802 19.3771 19.5768 19.4586 19.7217 19.6035C19.8667 19.7485 19.9481 19.9451 19.9481 20.1501C19.9481 20.355 19.8667 20.5516 19.7217 20.6966C19.5768 20.8415 19.3802 20.923 19.1752 20.923H17.0328C16.9559 20.923 16.8822 20.9535 16.8278 21.0079C16.7735 21.0622 16.7429 21.1359 16.7429 21.2128C16.7429 21.2897 16.7735 21.3634 16.8278 21.4178C16.8822 21.4721 16.9559 21.5027 17.0328 21.5027H18.6938C18.8988 21.5027 19.0954 21.5841 19.2404 21.729C19.3853 21.874 19.4667 22.0706 19.4667 22.2756C19.4667 22.4806 19.3853 22.6772 19.2404 22.8221C19.0954 22.9671 18.8988 23.0485 18.6938 23.0485H15.6196C14.5568 23.0485 13.532 22.9836 12.6728 22.4504C11.6979 21.8379 10.5714 21.5097 9.42008 21.5027H8.82976V15.0295H9.49355C9.95134 15.031 10.403 14.9242 10.8116 14.7178C11.2203 14.5115 11.5743 14.2115 11.8449 13.8422C12.6945 12.6613 13.2532 11.2965 13.4754 9.85886L13.63 8.82219C13.9769 8.88162 14.2915 9.06195 14.5182 9.33122C14.7448 9.60048 14.8688 9.94129 14.8682 10.2932V10.6548C14.8701 11.207 14.7721 11.7549 14.579 12.2722C14.3426 12.9025 14.2576 13.5796 14.331 14.2487C14.3613 14.5185 14.4905 14.7675 14.6937 14.9474C14.897 15.1273 15.1598 15.2254 15.4312 15.2227H19.2432C19.429 15.2227 19.6072 15.2965 19.7385 15.4279C19.8699 15.5592 19.9437 15.7374 19.9437 15.9232C19.9437 16.1089 19.8699 16.2871 19.7385 16.4185C19.6072 16.5498 19.429 16.6236 19.2432 16.6236H17.6893C17.6124 16.6236 17.5387 16.6542 17.4844 16.7085C17.43 16.7629 17.3995 16.8366 17.3995 16.9135C17.3995 16.9903 17.43 17.0641 17.4844 17.1184C17.5387 17.1728 17.6124 17.2033 17.6893 17.2033H19.1425C19.3539 17.2033 19.5566 17.2873 19.7061 17.4368C19.8556 17.5862 19.9396 17.789 19.9396 18.0004C19.9396 18.2118 19.8556 18.4145 19.7061 18.564C19.5566 18.7135 19.3539 18.7974 19.1425 18.7974H17.6893C17.6513 18.7974 17.6136 18.8049 17.5784 18.8195C17.5432 18.8341 17.5113 18.8554 17.4844 18.8823C17.4575 18.9093 17.4361 18.9412 17.4215 18.9764C17.407 19.0115 17.3995 19.0492 17.3995 19.0873C17.3995 19.1254 17.407 19.163 17.4215 19.1982C17.4361 19.2334 17.4575 19.2653 17.4844 19.2922C17.5113 19.3192 17.5432 19.3405 17.5784 19.3551C17.6136 19.3696 17.6513 19.3771 17.6893 19.3771H19.1753H19.1752ZM9.67616 5.47787C9.69287 5.5293 9.72364 5.57503 9.76498 5.60988C9.80633 5.64474 9.85659 5.66733 9.91011 5.67511L11.5209 5.90921L12.2412 7.36877C12.2651 7.41728 12.3021 7.45813 12.3481 7.48669C12.394 7.51525 12.447 7.53039 12.5011 7.53039C12.5552 7.53039 12.6082 7.51525 12.6542 7.48669C12.7001 7.45813 12.7371 7.41728 12.7611 7.36877L13.4814 5.90906L15.0921 5.67497C15.1456 5.66719 15.1959 5.6446 15.2373 5.60974C15.2786 5.57489 15.3094 5.52915 15.3261 5.47772C15.3428 5.42628 15.3448 5.3712 15.3319 5.31869C15.3189 5.26618 15.2915 5.21834 15.2528 5.18059L14.0872 4.0444L14.3623 2.4406C14.3715 2.3873 14.3655 2.33249 14.3452 2.28239C14.3248 2.2323 14.2908 2.1889 14.247 2.15711C14.2033 2.12532 14.1515 2.10641 14.0976 2.10251C14.0436 2.09861 13.9897 2.10989 13.9418 2.13506L12.5011 2.89227L11.0604 2.13486C11.0126 2.10969 10.9586 2.09842 10.9047 2.10232C10.8507 2.10621 10.799 2.12512 10.7552 2.15691C10.7114 2.1887 10.6775 2.2321 10.6571 2.2822C10.6367 2.3323 10.6307 2.3871 10.6399 2.44041L10.915 4.0444L9.74944 5.18074C9.71072 5.21849 9.68333 5.26633 9.67038 5.31884C9.65743 5.37135 9.65943 5.42644 9.67616 5.47787V5.47787ZM11.4287 4.35357C11.4623 4.32076 11.4875 4.28027 11.502 4.23558C11.5165 4.19088 11.52 4.14333 11.512 4.09701L11.3105 2.92126L12.3662 3.47626C12.4078 3.49815 12.4541 3.50959 12.5011 3.50959C12.5481 3.50959 12.5944 3.49815 12.636 3.47626L13.6917 2.92126L13.4901 4.09682C13.4821 4.14317 13.4856 4.19077 13.5001 4.2355C13.5146 4.28023 13.5398 4.32075 13.5735 4.35357L14.4276 5.1859L13.2472 5.35744C13.2007 5.3642 13.1566 5.38216 13.1185 5.40978C13.0805 5.4374 13.0498 5.47385 13.029 5.51599L12.5011 6.58537L11.9733 5.5158C11.9525 5.47365 11.9217 5.4372 11.8837 5.40958C11.8457 5.38196 11.8015 5.364 11.755 5.35725L10.5746 5.1859L11.4287 4.35357ZM2.96342 8.05715C2.98014 8.10857 3.01091 8.1543 3.05225 8.18915C3.09359 8.22401 3.14386 8.2466 3.19738 8.25438L4.80813 8.48867L5.52844 9.94804C5.55237 9.99655 5.5894 10.0374 5.63534 10.066C5.68128 10.0945 5.73429 10.1097 5.78839 10.1097C5.84248 10.1097 5.89549 10.0945 5.94143 10.066C5.98737 10.0374 6.0244 9.99655 6.04833 9.94804L6.76864 8.48867L8.3794 8.25458C8.43295 8.24681 8.48325 8.22421 8.52462 8.18933C8.56599 8.15445 8.59677 8.10868 8.61347 8.05722C8.63018 8.00575 8.63214 7.95063 8.61914 7.89811C8.60614 7.84558 8.5787 7.79774 8.53992 7.76001L7.37451 6.62401L7.64962 5.01982C7.65876 4.96652 7.65281 4.91172 7.63243 4.86162C7.61205 4.81152 7.57806 4.76812 7.53431 4.73633C7.49055 4.70454 7.43877 4.68563 7.38483 4.68173C7.33088 4.67784 7.27692 4.68911 7.22905 4.71428L5.78839 5.47169L4.34767 4.71414C4.2998 4.68896 4.24584 4.67769 4.1919 4.68159C4.13795 4.68548 4.08617 4.7044 4.04242 4.73619C3.99866 4.76797 3.96467 4.81137 3.94429 4.86147C3.92392 4.91157 3.91796 4.96637 3.92711 5.01968L4.20226 6.62401L3.03671 7.76001C2.99799 7.79777 2.9706 7.84561 2.95765 7.89812C2.9447 7.95063 2.9467 8.00571 2.96342 8.05715V8.05715ZM4.71606 6.93265C4.7497 6.89983 4.77486 6.85932 4.78937 6.81462C4.80389 6.76992 4.80733 6.72236 4.79939 6.67604L4.59776 5.50048L5.65351 6.05548C5.6951 6.07738 5.74139 6.08881 5.78839 6.08881C5.83538 6.08881 5.88167 6.07738 5.92326 6.05548L6.97902 5.50048L6.77738 6.67604C6.76944 6.72236 6.77288 6.76992 6.7874 6.81462C6.80191 6.85932 6.82707 6.89983 6.86071 6.93265L7.71483 7.76518L6.53444 7.93671C6.48795 7.94348 6.44379 7.96144 6.40578 7.98906C6.36776 8.01668 6.33704 8.05313 6.31624 8.09526L5.78839 9.16498L5.26053 8.0954C5.23973 8.05326 5.209 8.01681 5.17097 7.98919C5.13295 7.96157 5.08879 7.94361 5.04228 7.93686L3.86189 7.76532L4.71606 6.93265ZM22.0388 8.05715C22.0555 8.00571 22.0575 7.95063 22.0446 7.89812C22.0316 7.84561 22.0042 7.79777 21.9655 7.76001L20.8 6.62401L21.0753 5.01982C21.0845 4.96652 21.0785 4.91172 21.0581 4.86162C21.0378 4.81152 21.0038 4.76812 20.96 4.73633C20.9163 4.70454 20.8645 4.68563 20.8105 4.68173C20.7566 4.67784 20.7026 4.68911 20.6548 4.71428L19.214 5.47169L17.7732 4.71414C17.7253 4.68896 17.6714 4.67769 17.6174 4.68159C17.5635 4.68548 17.5117 4.7044 17.4679 4.73619C17.4242 4.76797 17.3902 4.81137 17.3698 4.86147C17.3494 4.91157 17.3435 4.96637 17.3526 5.01968L17.6277 6.62401L16.4623 7.76001C16.4236 7.79776 16.3962 7.84559 16.3832 7.89809C16.3703 7.9506 16.3723 8.00568 16.389 8.05712C16.4057 8.10855 16.4365 8.15428 16.4778 8.18914C16.5191 8.22401 16.5694 8.2466 16.6229 8.25438L18.2337 8.48848L18.954 9.94804C18.9779 9.99655 19.015 10.0374 19.0609 10.066C19.1068 10.0945 19.1599 10.1097 19.2139 10.1097C19.268 10.1097 19.3211 10.0945 19.367 10.066C19.4129 10.0374 19.45 9.99655 19.4739 9.94804L20.1941 8.48867L21.8051 8.25438C21.8586 8.24656 21.9088 8.22395 21.9501 8.1891C21.9914 8.15424 22.0221 8.10854 22.0388 8.05715V8.05715ZM19.9598 7.93671C19.9133 7.94347 19.8691 7.96143 19.8311 7.98905C19.793 8.01667 19.7623 8.05312 19.7415 8.09526L19.2139 9.16498L18.686 8.0954C18.6652 8.05327 18.6345 8.01682 18.5965 7.9892C18.5584 7.96159 18.5143 7.94362 18.4678 7.93686L17.2874 7.76532L18.1415 6.93279C18.1752 6.89997 18.2003 6.85947 18.2148 6.81477C18.2294 6.77007 18.2328 6.72251 18.2249 6.67618L18.0232 5.50063L19.079 6.05563C19.1206 6.07752 19.1669 6.08896 19.2139 6.08896C19.2608 6.08896 19.3071 6.07752 19.3487 6.05563L20.4045 5.50063L20.2028 6.67618C20.1949 6.72251 20.1983 6.77007 20.2129 6.81477C20.2274 6.85947 20.2525 6.89997 20.2862 6.93279L21.1403 7.76532L19.9598 7.93671Z" fill="#BE7374"/>
</svg>
