<svg width="20" height="20" viewBox="0 0 20 20" fill="none" xmlns="http://www.w3.org/2000/svg">
<path fill-rule="evenodd" clip-rule="evenodd" d="M9.16667 3.5C6.03705 3.5 3.5 6.03705 3.5 9.16667C3.5 12.2963 6.03705 14.8333 9.16667 14.8333C12.2963 14.8333 14.8333 12.2963 14.8333 9.16667C14.8333 6.03705 12.2963 3.5 9.16667 3.5ZM1.5 9.16667C1.5 4.93248 4.93248 1.5 9.16667 1.5C13.4009 1.5 16.8333 4.93248 16.8333 9.16667C16.8333 13.4009 13.4009 16.8333 9.16667 16.8333C4.93248 16.8333 1.5 13.4009 1.5 9.16667Z" fill="#7D879C"/>
<path fill-rule="evenodd" clip-rule="evenodd" d="M13.1679 13.1679C13.5584 12.7774 14.1916 12.7774 14.5821 13.1679L18.2071 16.7929C18.5976 17.1834 18.5976 17.8166 18.2071 18.2071C17.8166 18.5976 17.1834 18.5976 16.7929 18.2071L13.1679 14.5821C12.7774 14.1916 12.7774 13.5584 13.1679 13.1679Z" fill="#7D879C"/>
</svg>
