<svg width="18" height="18" viewBox="0 0 18 18" fill="none" xmlns="http://www.w3.org/2000/svg">
<path d="M8.99375 5.29346C6.92512 5.29346 5.24219 6.97642 5.24219 9.04502C5.24219 11.1136 6.92515 12.7966 8.99375 12.7966C11.0623 12.7966 12.7453 11.1136 12.7453 9.04502C12.7453 6.97642 11.0624 5.29346 8.99375 5.29346ZM8.99375 11.296C7.75273 11.296 6.7428 10.286 6.7428 9.04502C6.7428 7.804 7.75273 6.79407 8.99375 6.79407C10.2355 6.79407 11.2447 7.804 11.2447 9.04502C11.2447 10.286 10.2348 11.296 8.99375 11.296Z" fill="#D23F57"/>
<path d="M17.3562 6.80303L15.2231 6.45938L16.4986 4.76369C16.7222 4.46581 16.6944 4.05016 16.4333 3.78529L14.3017 1.62364C14.0376 1.35501 13.6174 1.32425 13.318 1.54935L11.5751 2.77388L11.2374 0.673012C11.1789 0.309109 10.8652 0.0419922 10.4968 0.0419922H7.49559C7.12195 0.0419922 6.8053 0.316598 6.75278 0.685773L6.40164 2.81216L4.6677 1.54408C4.3683 1.32498 3.95641 1.35648 3.69454 1.61836L1.57117 3.73424C1.30556 3.99834 1.27628 4.41778 1.50138 4.71714L2.74465 6.45713L0.643781 6.75726C0.274605 6.80978 0 7.12643 0 7.50007V10.5013C0 10.875 0.274605 11.1916 0.643781 11.2426L2.77692 11.5863L1.50138 13.282C1.27628 13.5814 1.30556 13.9993 1.57043 14.2641L3.6938 16.3875C3.95866 16.6538 4.37734 16.6809 4.67596 16.4565L6.41517 15.2132L6.7153 17.3141C6.76782 17.6833 7.08444 17.9579 7.45812 17.9579H10.4594C10.833 17.9579 11.1497 17.684 11.2022 17.3164L11.5458 15.1832L13.2415 16.4588C13.5417 16.6839 13.9596 16.6554 14.2237 16.3898L16.3471 14.2664C16.6119 14.0015 16.6412 13.5828 16.4161 13.2842L15.1533 11.5473L17.3367 11.2922C17.7149 11.2486 18 10.9283 18 10.5471V7.54585C18 7.17217 17.7254 6.85555 17.3562 6.80303ZM16.5001 9.87857L14.9688 10.0571C14.4113 10.1299 13.9453 10.5036 13.772 10.9853C13.5544 11.4774 13.6182 12.0529 13.9423 12.4904L14.8262 13.6646L13.6242 14.8666L12.4447 13.979C12.0103 13.6579 11.4348 13.5941 10.9914 13.7944C10.4631 13.9858 10.0895 14.4517 10.0167 15.0009L9.80961 16.4573H8.10939L7.90154 15.0099C7.82877 14.4525 7.45509 13.9865 6.97416 13.814C6.48271 13.5964 5.90871 13.6586 5.46827 13.9835L4.29402 14.8674L3.09203 13.6654L3.97965 12.4859C4.30003 12.053 4.3638 11.4782 4.16422 11.0325C3.97213 10.5043 3.50694 10.1299 2.95696 10.0579L1.50061 9.85079V8.15057L2.9487 7.94273C3.50617 7.86995 3.97213 7.49628 4.14471 7.01534C4.36307 6.52315 4.29926 5.94916 3.97589 5.50946L3.09277 4.33598L4.29852 3.13398L5.51176 4.02087C5.94545 4.34199 6.51945 4.40355 6.96512 4.20544C7.49408 4.01335 7.86698 3.54591 7.93828 2.99895L8.14612 1.54183H9.8576L10.0902 2.98844C10.1622 3.54668 10.5351 4.01335 11.0183 4.18744C11.5098 4.40355 12.0845 4.34199 12.5212 4.01862L13.6932 3.14225L14.9124 4.37725L14.0218 5.5605C13.7014 5.99345 13.6377 6.56819 13.8373 7.0146C14.0293 7.54356 14.4968 7.91646 15.0437 7.98776L16.5001 8.1956V9.87857H16.5001Z" fill="#D23F57"/>
</svg>
