<svg width="24" height="24" viewBox="0 0 24 24" fill="none" xmlns="http://www.w3.org/2000/svg">
<path d="M19.1382 12.9399C19.1782 12.6399 19.1982 12.3299 19.1982 11.9999C19.1982 11.6799 19.1782 11.3599 19.1282 11.0599L21.1582 9.4799C21.3382 9.3399 21.3882 9.0699 21.2782 8.8699L19.3582 5.5499C19.2382 5.3299 18.9882 5.2599 18.7682 5.3299L16.3782 6.2899C15.8782 5.9099 15.3482 5.5899 14.7582 5.3499L14.3982 2.8099C14.3582 2.5699 14.1582 2.3999 13.9182 2.3999H10.0782C9.83816 2.3999 9.64816 2.5699 9.60816 2.8099L9.24816 5.3499C8.65816 5.5899 8.11816 5.9199 7.62816 6.2899L5.23816 5.3299C5.01816 5.2499 4.76816 5.3299 4.64816 5.5499L2.73816 8.8699C2.61816 9.0799 2.65816 9.3399 2.85816 9.4799L4.88816 11.0599C4.83816 11.3599 4.79816 11.6899 4.79816 11.9999C4.79816 12.3099 4.81816 12.6399 4.86816 12.9399L2.83816 14.5199C2.65816 14.6599 2.60816 14.9299 2.71816 15.1299L4.63816 18.4499C4.75816 18.6699 5.00816 18.7399 5.22816 18.6699L7.61816 17.7099C8.11816 18.0899 8.64816 18.4099 9.23816 18.6499L9.59816 21.1899C9.64816 21.4299 9.83816 21.5999 10.0782 21.5999H13.9182C14.1582 21.5999 14.3582 21.4299 14.3882 21.1899L14.7482 18.6499C15.3382 18.4099 15.8782 18.0899 16.3682 17.7099L18.7582 18.6699C18.9782 18.7499 19.2282 18.6699 19.3482 18.4499L21.2682 15.1299C21.3882 14.9099 21.3382 14.6599 21.1482 14.5199L19.1382 12.9399ZM11.9982 15.5999C10.0182 15.5999 8.39816 13.9799 8.39816 11.9999C8.39816 10.0199 10.0182 8.3999 11.9982 8.3999C13.9782 8.3999 15.5982 10.0199 15.5982 11.9999C15.5982 13.9799 13.9782 15.5999 11.9982 15.5999Z" fill="#D23F57"/>
</svg>
