<svg id="Capa_1" enable-background="new 0 0 512 512" height="512" viewBox="0 0 512 512" width="512" xmlns="http://www.w3.org/2000/svg"><g><g><g><path d="m308.61 83.059c-13.351 0-24.214 10.852-24.214 24.191s10.862 24.191 24.214 24.191 24.214-10.852 24.214-24.191-10.863-24.191-24.214-24.191z"/><path d="m418.005 83.059h-9.404v19.478s7.12-.028 9.404-.028c5.539 0 10.219-4.454 10.219-9.725s-4.679-9.725-10.219-9.725z"/></g><path d="m496.986 0h-481.972c-8.292 0-15.014 6.716-15.014 15v208.76c0 8.284 6.722 15 15.014 15h169.436v-2.856c0-24.76 20.163-44.904 44.946-44.904 24.784 0 44.947 20.151 44.947 44.919l.003 2.841h222.64c8.292 0 15.014-6.716 15.014-15v-208.76c0-8.284-6.722-15-15.014-15zm-362.745 132.09c-3.039 17.007-19.079 29.351-38.14 29.351-14.906 0-28.926-6.031-38.465-16.546-5.568-6.138-5.102-15.625 1.043-21.188 6.143-5.562 15.639-5.097 21.207 1.042 1.424 1.569 6.802 6.691 16.215 6.691 5.412 0 8.3-3.062 8.579-4.624.099-.556-1.422-2.835-6.963-4.876-12.328-4.543-23.285-9.416-23.745-9.621-.723-.322-1.419-.701-2.082-1.133-9.989-6.506-15.137-17.909-13.434-29.759 1.796-12.496 10.858-22.65 23.651-26.5 23.695-7.128 42.593 7.962 44.67 9.707 1.325 1.171 2.861 2.506 4.054 3.82 5.568 6.138 5.102 15.624-1.043 21.188-6.143 5.562-15.639 5.097-21.207-1.042-.335-.37-.755-.668-1.124-1.001 0 0-8.266-6.476-16.689-3.946-1.267.381-2.143.967-2.467 1.65-.091.191-.123.357-.13.479 3.561 1.54 11.496 4.902 19.939 8.014 9.305 3.429 16.37 8.55 20.999 15.221 4.747 6.839 6.569 15.034 5.132 23.073zm104.955 14.351c0 8.284-6.722 15-15.014 15s-15.014-6.716-15.014-15v-25.535h-24.264v25.535c0 8.284-6.722 15-15.014 15s-15.014-6.716-15.014-15v-78.382c0-8.284 6.722-15 15.014-15s15.014 6.716 15.014 15v22.847h24.264v-22.847c0-8.284 6.722-15 15.014-15s15.014 6.716 15.014 15zm69.414 15c-29.909 0-54.242-24.31-54.242-54.191s24.333-54.191 54.242-54.191 54.242 24.31 54.242 54.191-24.333 54.191-54.242 54.191zm109.395-28.933c-2.264 0-5.765.012-9.404.029v13.904c0 8.284-6.722 15-15.014 15s-15.014-6.716-15.014-15c0 0 0-78.333 0-78.335-.036-8.187 6.834-15.047 15.014-15.047h24.418c22.192 0 40.247 17.82 40.247 39.725s-18.055 39.724-40.247 39.724z"/></g><path d="m409.565 321c-8.279 0-15.014 6.686-15.014 14.904 0 8.284-6.722 15-15.014 15s-15.014-6.716-15.014-15c0-8.218-6.735-14.904-15.014-14.904s-15.014 6.686-15.014 14.904c0 8.284-6.722 15-15.014 15s-15.014-6.716-15.014-15c0-8.218-6.735-14.904-15.014-14.904-8.276 0-15.01 6.686-15.01 14.904 0 8.281-6.717 14.996-15.006 15-.003 0-.006 0-.008 0-8.286 0-15.006-6.706-15.014-14.985l-.1-100c0-8.233-6.693-14.919-14.919-14.919s-14.918 6.686-14.918 14.904v276.096h210.005v-176.096c.001-8.218-6.691-14.904-14.918-14.904z"/></g></svg>