<svg width="24" height="24" viewBox="0 0 24 24" fill="none" xmlns="http://www.w3.org/2000/svg">
<path fill-rule="evenodd" clip-rule="evenodd" d="M6.90129 2H3V4H5.62037L7.87468 16.6776H7.8851V17H18.4695V16.7519L20.2552 7.09095L20.53 6H7.60438L7.14001 3.38852L6.90129 2ZM18.4588 8H7.96001L9.20474 15H17.165L18.4588 8Z" fill="#7D879C"/>
<path d="M10.3277 22C11.227 22 11.956 21.1046 11.956 20C11.956 18.8954 11.227 18 10.3277 18C9.42833 18 8.69929 18.8954 8.69929 20C8.69929 21.1046 9.42833 22 10.3277 22Z" fill="#7D879C"/>
<path d="M17.6553 20C17.6553 21.1046 16.9263 22 16.0269 22C15.1276 22 14.3986 21.1046 14.3986 20C14.3986 18.8954 15.1276 18 16.0269 18C16.9263 18 17.6553 18.8954 17.6553 20Z" fill="#7D879C"/>
</svg>
