<svg id="Flat" height="512" viewBox="0 0 512 512" width="512" xmlns="http://www.w3.org/2000/svg"><path d="m320 168v32l32 240h96l32-240v-32z" fill="#fbe36a"/><path d="m128 48h48v64h-48z" fill="#c3c6c7"/><path d="m240 56h-128l8-24 120-8z" fill="#9aa3a8"/><path d="m200 168h-96l8-64h80z" fill="#9aa3a8"/><path d="m320 168h160v32h-160z" fill="#f7cc38"/><path d="m352 440h96a0 0 0 0 1 0 0v32a16 16 0 0 1 -16 16h-64a16 16 0 0 1 -16-16v-32a0 0 0 0 1 0 0z" fill="#f7cc38"/><path d="m209.992 488h-115.984a16 16 0 0 1 -15.859-13.885l-30.149-226.115a96 96 0 0 1 96-96h16a96 96 0 0 1 96 96l-30.149 226.115a16 16 0 0 1 -15.859 13.885z" fill="#c3c6c7"/><path d="m184 344h176v48h-176z" fill="#3cb4d7"/><path d="m184 344h176s-2-24-24-24c-49.805 0-40-24-40-24-60.5 0-62.5 48-112 48z" fill="#6ed2f0"/><ellipse cx="400" cy="264" fill="#f7cc38" rx="32" ry="16"/><path d="m104 224h96v48h-96z" fill="#9aa3a8"/><rect fill="#6ed2f0" height="112" rx="14.967" width="224" x="160" y="376"/><circle cx="272" cy="432" fill="#3cb4d7" r="24"/></svg>