<svg width="42" height="43" viewBox="0 0 42 43" fill="none" xmlns="http://www.w3.org/2000/svg">
<path d="M38.4294 1.64453H20.1917C19.674 1.64608 19.1779 1.85244 18.8117 2.21856C18.4456 2.58468 18.2393 3.0808 18.2377 3.59856V13.0626C16.7061 11.8313 14.8576 11.0582 12.9054 10.8324C10.9532 10.6066 8.97701 10.9374 7.20478 11.7865C5.43254 12.6357 3.93652 13.9687 2.88935 15.6316C1.84218 17.2946 1.28653 19.2197 1.28653 21.1849C1.28653 23.15 1.84218 25.0752 2.88935 26.7381C3.93652 28.401 5.43254 29.734 7.20478 30.5832C8.97701 31.4324 10.9532 31.7631 12.9054 31.5374C14.8576 31.3116 16.7061 30.5384 18.2377 29.3071V38.7712C18.2393 39.2889 18.4456 39.785 18.8117 40.1512C19.1779 40.5173 19.674 40.7236 20.1917 40.7252H38.4294C38.9472 40.7236 39.4433 40.5173 39.8094 40.1512C40.1755 39.785 40.3819 39.2889 40.3834 38.7712V3.59856C40.3819 3.0808 40.1755 2.58468 39.8094 2.21856C39.4433 1.85244 38.9472 1.64608 38.4294 1.64453ZM35.6416 2.94722L35.316 4.24991H23.3052L22.9795 2.94722H35.6416ZM11.7243 30.3037C9.92074 30.3037 8.15771 29.7689 6.65813 28.7669C5.15855 27.7649 3.98977 26.3407 3.29958 24.6745C2.6094 23.0082 2.42882 21.1747 2.78067 19.4059C3.13252 17.637 4.00101 16.0122 5.2763 14.7369C6.55159 13.4616 8.1764 12.5931 9.94528 12.2413C11.7142 11.8894 13.5476 12.07 15.2139 12.7602C16.8801 13.4504 18.3043 14.6191 19.3063 16.1187C20.3083 17.6183 20.8431 19.3813 20.8431 21.1849C20.8405 23.6025 19.8789 25.9204 18.1694 27.63C16.4598 29.3395 14.1419 30.3011 11.7243 30.3037ZM39.0807 38.7712C39.0807 38.9439 39.0121 39.1096 38.89 39.2317C38.7678 39.3539 38.6021 39.4225 38.4294 39.4225H20.1917C20.019 39.4225 19.8533 39.3539 19.7312 39.2317C19.609 39.1096 19.5404 38.9439 19.5404 38.7712V28.0565C21.219 26.1611 22.1457 23.7167 22.1457 21.1849C22.1457 18.653 21.219 16.2086 19.5404 14.3132V3.59856C19.5404 3.42582 19.609 3.26015 19.7312 3.13799C19.8533 3.01584 20.019 2.94722 20.1917 2.94722H21.6377L22.1653 5.05758C22.2002 5.19879 22.2814 5.32425 22.3959 5.41397C22.5104 5.50368 22.6517 5.55248 22.7971 5.5526H35.824C35.9695 5.55248 36.1107 5.50368 36.2252 5.41397C36.3397 5.32425 36.4209 5.19879 36.4558 5.05758L36.9834 2.94722H38.4294C38.6021 2.94722 38.7678 3.01584 38.89 3.13799C39.0121 3.26015 39.0807 3.42582 39.0807 3.59856V38.7712Z" fill="#2B3445"/>
<path d="M16.2836 3.59767H7.81615V2.29498C7.81635 2.17111 7.78122 2.04974 7.71489 1.94513C7.64855 1.84051 7.55376 1.75698 7.44163 1.70433C7.3295 1.65168 7.20468 1.6321 7.08181 1.64789C6.95895 1.66367 6.84313 1.71417 6.74794 1.79345L2.83988 5.05017C2.76612 5.11129 2.70675 5.18792 2.666 5.27461C2.62525 5.3613 2.60412 5.45591 2.60412 5.5517C2.60412 5.64749 2.62525 5.74211 2.666 5.82879C2.70675 5.91548 2.76612 5.99212 2.83988 6.05324L6.74794 9.30996C6.86513 9.40706 7.01262 9.46007 7.16481 9.45977C7.25911 9.45981 7.35236 9.43983 7.43837 9.40115C7.55143 9.34882 7.64711 9.26517 7.71407 9.16012C7.78103 9.05506 7.81646 8.933 7.81615 8.80842V7.50574H16.2836C16.4564 7.50574 16.622 7.43711 16.7442 7.31496C16.8663 7.19281 16.935 7.02714 16.935 6.85439V4.24901C16.935 4.07627 16.8663 3.9106 16.7442 3.78844C16.622 3.66629 16.4564 3.59767 16.2836 3.59767ZM15.6323 6.20305H7.16481C6.99206 6.20305 6.82639 6.27167 6.70424 6.39382C6.58208 6.51597 6.51346 6.68164 6.51346 6.85439V7.42106L4.27284 5.5517L6.51346 3.68235V4.24901C6.51346 4.42176 6.58208 4.58743 6.70424 4.70958C6.82639 4.83174 6.99206 4.90036 7.16481 4.90036H15.6323V6.20305Z" fill="#2B3445"/>
<path d="M16.7005 36.3138L12.7924 33.0571C12.6972 32.9778 12.5814 32.9273 12.4585 32.9116C12.3357 32.8958 12.2108 32.9154 12.0987 32.968C11.9866 33.0206 11.8918 33.1042 11.8255 33.2088C11.7591 33.3134 11.724 33.4348 11.7242 33.5587V34.8613H3.25672C3.08397 34.8613 2.9183 34.93 2.79615 35.0521C2.674 35.1743 2.60538 35.3399 2.60538 35.5127V38.1181C2.60538 38.2908 2.674 38.4565 2.79615 38.5786C2.9183 38.7008 3.08397 38.7694 3.25672 38.7694H11.7242V40.0721C11.7239 40.1967 11.7593 40.3187 11.8263 40.4238C11.8932 40.5289 11.9889 40.6125 12.102 40.6648C12.188 40.7035 12.2812 40.7235 12.3755 40.7234C12.5277 40.7237 12.6752 40.6707 12.7924 40.5736L16.7005 37.3169C16.7742 37.2558 16.8336 37.1792 16.8743 37.0925C16.9151 37.0058 16.9362 36.9112 16.9362 36.8154C16.9362 36.7196 16.9151 36.625 16.8743 36.5383C16.8336 36.4516 16.7742 36.375 16.7005 36.3138ZM13.0269 38.6847V38.1181C13.0269 37.9453 12.9583 37.7796 12.8361 37.6575C12.714 37.5353 12.5483 37.4667 12.3755 37.4667H3.90807V36.164H12.3755C12.5483 36.164 12.714 36.0954 12.8361 35.9733C12.9583 35.8511 13.0269 35.6854 13.0269 35.5127V34.946L15.2675 36.8154L13.0269 38.6847Z" fill="#2B3445"/>
<path d="M11.7242 17.9276C12.0697 17.9276 12.401 18.0649 12.6453 18.3092C12.8896 18.5535 13.0269 18.8848 13.0269 19.2303H14.3296C14.3274 18.6544 14.1345 18.0954 13.781 17.6408C13.4274 17.1861 12.9332 16.8614 12.3755 16.7174V15.3223H11.0729V16.7174C10.4595 16.8753 9.9249 17.2516 9.56932 17.7756C9.21374 18.2997 9.06165 18.9355 9.1416 19.5638C9.22155 20.192 9.52804 20.7695 10.0035 21.1878C10.4791 21.6061 11.0909 21.8365 11.7242 21.8357C11.9818 21.8357 12.2337 21.9121 12.4479 22.0552C12.6622 22.1984 12.8291 22.4018 12.9277 22.6399C13.0263 22.8779 13.0521 23.1398 13.0019 23.3925C12.9516 23.6452 12.8275 23.8774 12.6453 24.0595C12.4632 24.2417 12.231 24.3658 11.9783 24.4161C11.7256 24.4663 11.4637 24.4405 11.2257 24.3419C10.9876 24.2433 10.7842 24.0764 10.6411 23.8621C10.4979 23.6479 10.4215 23.396 10.4215 23.1384H9.11882C9.12098 23.7143 9.31391 24.2733 9.66745 24.728C10.021 25.1826 10.5152 25.5073 11.0729 25.6513V27.0465H12.3755V25.6513C12.9889 25.4934 13.5235 25.1171 13.8791 24.5931C14.2347 24.069 14.3868 23.4332 14.3068 22.8049C14.2269 22.1767 13.9204 21.5992 13.4448 21.1809C12.9693 20.7626 12.3575 20.5322 11.7242 20.533C11.3787 20.533 11.0474 20.3958 10.8031 20.1515C10.5588 19.9072 10.4215 19.5758 10.4215 19.2303C10.4215 18.8848 10.5588 18.5535 10.8031 18.3092C11.0474 18.0649 11.3787 17.9276 11.7242 17.9276Z" fill="#2B3445"/>
<path d="M6.19768 15.6582C4.73405 17.1251 3.91207 19.1127 3.91207 21.1849C3.91207 23.2571 4.73405 25.2446 6.19768 26.7115L7.11868 25.7905C5.89895 24.5681 5.21394 22.9117 5.21394 21.1849C5.21394 19.458 5.89895 17.8016 7.11868 16.5792L6.19768 15.6582Z" fill="#2B3445"/>
<path d="M17.2509 15.6582L16.3299 16.5792C17.5497 17.8016 18.2347 19.458 18.2347 21.1849C18.2347 22.9117 17.5497 24.5681 16.3299 25.7905L17.2509 26.7115C18.7146 25.2446 19.5365 23.2571 19.5365 21.1849C19.5365 19.1127 18.7146 17.1251 17.2509 15.6582Z" fill="#2B3445"/>
<path d="M34.1266 17.3286L29.5672 15.3746C29.486 15.34 29.3987 15.3223 29.3105 15.3223C29.2224 15.3223 29.1351 15.34 29.0539 15.3746L24.4945 17.3286C24.3774 17.3788 24.2775 17.4623 24.2074 17.5687C24.1372 17.6751 24.0998 17.7997 24.0998 17.9272V20.2166C24.0982 20.8156 24.2155 21.409 24.4446 21.9624C24.6738 22.5158 25.0105 23.0183 25.435 23.4408L28.85 26.8552C28.9722 26.9773 29.1378 27.0459 29.3105 27.0459C29.4833 27.0459 29.6489 26.9773 29.771 26.8552L33.186 23.4408C33.6106 23.0183 33.9472 22.5158 34.1764 21.9624C34.4056 21.409 34.5228 20.8156 34.5213 20.2166V17.9272C34.5213 17.7997 34.4839 17.6751 34.4137 17.5687C34.3436 17.4623 34.2437 17.3788 34.1266 17.3286ZM33.2186 20.2166C33.2197 20.6445 33.1359 21.0683 32.9722 21.4636C32.8086 21.8589 32.5682 22.2179 32.265 22.5198L29.3105 25.4736L26.3567 22.5198C26.0533 22.218 25.8128 21.8591 25.649 21.4638C25.4852 21.0684 25.4014 20.6446 25.4025 20.2166V18.3564L29.3105 16.6818L33.2186 18.3564V20.2166Z" fill="#2B3445"/>
<path d="M28.4683 20.0722L27.5473 20.9932L28.85 22.2959C28.9721 22.418 29.1378 22.4866 29.3105 22.4866C29.4832 22.4866 29.6489 22.418 29.771 22.2959L32.3764 19.6905L31.4554 18.7695L29.3105 20.9144L28.4683 20.0722Z" fill="#2B3445"/>
</svg>
