<svg width="28" height="29" viewBox="0 0 28 29" fill="none" xmlns="http://www.w3.org/2000/svg">
<path d="M7.82721 11.9255C8.05581 12.2644 8.23964 12.6314 8.37417 13.0175C8.74354 14.0449 8.85463 15.268 8.88252 16.1183H18.6675C18.6959 15.2685 18.8069 14.0444 19.1763 13.017C19.3104 12.6314 19.4939 12.2648 19.7223 11.9264C20.0211 11.4981 20.3927 11.1255 20.8201 10.8256C20.9745 10.7132 21.135 10.6097 21.3011 10.5154C20.1773 8.01585 17.2251 6.33331 13.775 6.33331C10.5058 6.33331 7.62218 8.06869 6.45386 10.6387C6.54876 10.6999 6.64026 10.7625 6.72929 10.8256C7.15617 11.1259 7.52765 11.4981 7.82721 11.9255Z" fill="#0F3460"/>
<path d="M23.6853 11.5712C23.4378 11.3232 23.132 11.2551 22.949 11.2145C22.6972 11.1585 22.4362 11.1585 22.1843 11.2145C21.8644 11.2865 21.6623 11.4288 21.382 11.6265C21.0492 11.8599 20.7598 12.1496 20.5268 12.4827C20.3479 12.7521 20.2034 13.0429 20.0968 13.3481C19.6951 14.4548 19.6364 15.8658 19.6359 16.6075C19.6359 16.8777 19.4168 17.0968 19.1466 17.0968H8.40272C8.13252 17.0968 7.91346 16.8777 7.91346 16.6075C7.91346 15.8653 7.85181 14.4548 7.45405 13.3481C7.347 13.0426 7.20238 12.7516 7.0235 12.4817C6.79004 12.1487 6.50029 11.8589 6.1673 11.6255C5.88696 11.4298 5.68441 11.283 5.36394 11.213C5.1125 11.1565 4.85165 11.1565 4.60021 11.213C4.41674 11.2536 4.11094 11.3222 3.86289 11.5702C3.859 11.5746 3.42257 12.0272 3.5121 12.6177C3.60994 13.2493 4.21318 13.6001 4.59626 13.6813C4.73551 13.7106 4.87967 13.7074 5.01751 13.672C5.18387 13.6402 5.41233 13.5961 5.67162 13.7136C6.48819 14.0825 6.57721 15.4817 5.97493 18.5331C6.28266 19.4373 6.67014 19.5072 6.96369 19.5415H7.91282V21.0092C7.91282 21.2794 8.13188 21.4985 8.40208 21.4985H8.89134C9.16155 21.4985 9.38061 21.2794 9.38061 21.0092V19.5429H18.1704V21.0107C18.1704 21.2809 18.3895 21.5 18.6597 21.5H19.149C19.4192 21.5 19.6382 21.2809 19.6382 21.0107V19.5429H20.5873C20.8809 19.5092 21.2684 19.4387 21.5761 18.5346C20.9738 15.4837 21.0629 14.0824 21.8794 13.715C22.1387 13.5976 22.3687 13.6411 22.534 13.6734C22.6721 13.7081 22.8163 13.7111 22.9558 13.6822C23.3389 13.601 23.9431 13.2502 24.0399 12.6191C24.1276 12.0286 23.6897 11.5761 23.6853 11.5712Z" fill="#0F3460"/>
</svg>
