<svg id="Layer_1" enable-background="new 0 0 512 512" height="512" viewBox="0 0 512 512" width="512" xmlns="http://www.w3.org/2000/svg"><path id="XMLID_172_" d="m496 256c0-38.8-27.8-71.3-64.6-78.5-7.4-90.3-83.2-161.5-175.4-161.5s-168 71.2-175.4 161.5c-36.8 7.2-64.6 39.7-64.6 78.5 0 44.1 35.9 80 80 80h16c26.5 0 48-21.5 48-48v-64c0-26.2-21.1-47.5-47.1-48 8-71.9 69.1-128 143.1-128s135.1 56.1 143.1 128c-26.1.5-47.1 21.8-47.1 48v64c0 25.9 20.7 47.1 46.4 48-7.4 36.5-39.7 64-78.4 64h-18.8c-6.6-18.6-24.4-32-45.2-32-26.5 0-48 21.5-48 48s21.5 48 48 48c20.9 0 38.6-13.4 45.2-32h18.8c56.8 0 103.9-42.5 111.1-97.4 36.9-7.1 64.9-39.6 64.9-78.6zm-448 0c0-20.9 13.4-38.6 32-45.2v90.5c-18.6-6.7-32-24.4-32-45.3zm80-32v64c0 8.8-7.2 16-16 16v-96c8.8 0 16 7.2 16 16zm128 208c-8.8 0-16-7.2-16-16s7.2-16 16-16 16 7.2 16 16-7.2 16-16 16zm128-144v-64c0-8.8 7.2-16 16-16v96c-8.8 0-16-7.2-16-16zm48 13.2v-90.5c18.6 6.6 32 24.4 32 45.2s-13.4 38.7-32 45.3z"/></svg>