<svg width="28" height="29" viewBox="0 0 28 29" fill="none" xmlns="http://www.w3.org/2000/svg">
<path d="M14.5504 10.144C15.3056 10.144 15.9579 9.66245 16.1922 8.9541C15.7451 9.07716 15.1753 9.15144 14.5504 9.15144C13.9255 9.15144 13.3557 9.07716 12.9087 8.9541C13.1429 9.66239 13.7951 10.144 14.5504 10.144Z" fill="#0F3460"/>
<path d="M23.2459 11.0151C23.21 10.9145 23.1354 10.8317 23.0382 10.7867L19.7143 9.25222C19.0072 9.01271 18.2869 8.82351 17.5596 8.68523C17.534 8.68021 17.5085 8.6778 17.4834 8.6778C17.3033 8.6778 17.1421 8.8021 17.102 8.98439C16.8364 10.1537 15.8013 11.0291 14.5504 11.0291C13.2995 11.0291 12.2644 10.1537 11.9989 8.98439C11.9583 8.8021 11.7974 8.6778 11.6174 8.6778C11.5923 8.6778 11.5668 8.68021 11.5412 8.68523C10.8139 8.82351 10.0936 9.01271 9.38544 9.25222L6.06271 10.7866C5.96489 10.8317 5.88974 10.9144 5.85558 11.0151C5.82024 11.1169 5.82661 11.2268 5.8764 11.3229L7.3194 14.1706C7.38695 14.3058 7.52435 14.3869 7.66971 14.3869C7.70723 14.3869 7.74528 14.3815 7.7828 14.3702L9.3855 13.8952V23.4505C9.3855 23.6675 9.56254 23.8445 9.78011 23.8445H19.3208C19.5378 23.8445 19.7143 23.6674 19.7143 23.4505V13.8953L21.3182 14.3703C21.3557 14.3816 21.3937 14.387 21.4311 14.387C21.5762 14.387 21.7131 14.3059 21.7816 14.1708L23.2251 11.323C23.2737 11.2269 23.2807 11.117 23.2459 11.0151Z" fill="#0F3460"/>
</svg>
