<svg width="43" height="41" viewBox="0 0 43 41" fill="none" xmlns="http://www.w3.org/2000/svg">
<path fill-rule="evenodd" clip-rule="evenodd" d="M39.0158 0.758032C39.4618 0.572464 39.9503 0.518422 40.4265 0.60409C40.9023 0.689697 41.3406 0.910155 41.6961 1.23425C42.051 1.55791 42.3099 1.9723 42.4516 2.4292C42.5932 2.88591 42.6142 3.37319 42.5131 3.8404L35.0212 38.4621C34.9249 38.907 34.72 39.3234 34.4211 39.6687C34.1219 40.0143 33.7377 40.2776 33.3028 40.4261C32.8675 40.5747 32.4011 40.6014 31.9515 40.5025C31.5023 40.4037 31.091 40.1841 30.7561 39.8721L13.0493 23.3704L2.70246 21.1789C2.1408 21.0599 1.64095 20.7537 1.27256 20.3185C0.90489 19.8843 0.685757 19.3433 0.638442 18.7784C0.591136 18.2136 0.717104 17.6441 1.00358 17.1537C1.29046 16.6626 1.72651 16.272 2.2554 16.0519L2.62875 16.9493L2.2554 16.0519L39.0158 0.758032ZM40.0724 2.57249C39.9768 2.5553 39.8778 2.56558 39.784 2.60459L3.02365 17.8985C2.91178 17.945 2.80582 18.0336 2.73053 18.1625C2.65484 18.2921 2.61795 18.4501 2.63146 18.6115C2.64497 18.7728 2.70708 18.9177 2.79897 19.0262C2.89015 19.1339 3.00349 19.1983 3.11688 19.2223L13.7352 21.4713C13.9129 21.5089 14.0769 21.5942 14.2098 21.718L32.1197 38.4089C32.1993 38.4831 32.2901 38.5292 32.3813 38.5492C32.4722 38.5692 32.5664 38.5642 32.6565 38.5334C32.747 38.5025 32.8352 38.4449 32.9091 38.3595C32.9833 38.2739 33.0394 38.1641 33.0664 38.0391L40.5584 3.4174C40.5868 3.28593 40.5807 3.14844 40.5413 3.02161C40.5021 2.89498 40.433 2.7892 40.3485 2.7121C40.2644 2.63544 40.1683 2.58975 40.0724 2.57249Z" fill="#7D879C"/>
<path fill-rule="evenodd" clip-rule="evenodd" d="M41.4334 1.10542C41.7689 1.5441 41.6853 2.17172 41.2466 2.50725L14.1355 23.2431C13.6968 23.5786 13.0692 23.495 12.7337 23.0563C12.3982 22.6176 12.4818 21.99 12.9205 21.6545L40.0316 0.918639C40.4703 0.583114 41.0979 0.66674 41.4334 1.10542Z" fill="#7D879C"/>
<path fill-rule="evenodd" clip-rule="evenodd" d="M13.528 21.4492C14.0803 21.4492 14.528 21.8969 14.528 22.4492V36.1837C14.528 36.332 14.5698 36.4727 14.6423 36.5876C14.7144 36.702 14.8112 36.7821 14.9134 36.827C15.0148 36.8715 15.1227 36.882 15.2262 36.8602C15.3302 36.8383 15.434 36.7826 15.5211 36.6904L21.7456 30.0985C22.1248 29.697 22.7577 29.6788 23.1592 30.058C23.5608 30.4372 23.5789 31.0701 23.1997 31.4716L16.9753 38.0635L16.2762 37.4034L16.9753 38.0635C16.6167 38.4433 16.1526 38.709 15.6384 38.8173C15.1237 38.9257 14.5909 38.8695 14.1099 38.6585C13.6298 38.4479 13.2288 38.0955 12.9508 37.6548C12.6731 37.2147 12.528 36.7029 12.528 36.1837V22.4492C12.528 21.8969 12.9757 21.4492 13.528 21.4492Z" fill="#7D879C"/>
</svg>
