<svg width="24" height="24" viewBox="0 0 24 24" fill="none" xmlns="http://www.w3.org/2000/svg">
<path d="M10.875 4.125V9.375C10.875 9.77283 10.717 10.1544 10.4357 10.4357C10.1544 10.717 9.77282 10.875 9.375 10.875H4.125C3.72718 10.875 3.34564 10.717 3.06434 10.4357C2.78304 10.1544 2.625 9.77283 2.625 9.375V4.125C2.625 3.72718 2.78304 3.34564 3.06434 3.06434C3.34564 2.78304 3.72718 2.625 4.125 2.625H9.375C9.77282 2.625 10.1544 2.78304 10.4357 3.06434C10.717 3.34564 10.875 3.72718 10.875 4.125ZM19.875 2.625H14.625C14.2272 2.625 13.8456 2.78304 13.5643 3.06434C13.283 3.34564 13.125 3.72718 13.125 4.125V9.375C13.125 9.77283 13.283 10.1544 13.5643 10.4357C13.8456 10.717 14.2272 10.875 14.625 10.875H19.875C20.2728 10.875 20.6544 10.717 20.9357 10.4357C21.217 10.1544 21.375 9.77283 21.375 9.375V4.125C21.375 3.72718 21.217 3.34564 20.9357 3.06434C20.6544 2.78304 20.2728 2.625 19.875 2.625ZM9.375 13.125H4.125C3.72718 13.125 3.34564 13.283 3.06434 13.5643C2.78304 13.8456 2.625 14.2272 2.625 14.625V19.875C2.625 20.2728 2.78304 20.6544 3.06434 20.9357C3.34564 21.217 3.72718 21.375 4.125 21.375H9.375C9.77282 21.375 10.1544 21.217 10.4357 20.9357C10.717 20.6544 10.875 20.2728 10.875 19.875V14.625C10.875 14.2272 10.717 13.8456 10.4357 13.5643C10.1544 13.283 9.77282 13.125 9.375 13.125ZM17.25 13.125C16.4342 13.125 15.6366 13.3669 14.9583 13.8202C14.2799 14.2735 13.7512 14.9177 13.439 15.6714C13.1268 16.4252 13.0451 17.2546 13.2043 18.0547C13.3634 18.8549 13.7563 19.5899 14.3332 20.1668C14.9101 20.7437 15.6451 21.1366 16.4453 21.2957C17.2454 21.4549 18.0748 21.3732 18.8286 21.061C19.5823 20.7488 20.2266 20.2201 20.6798 19.5417C21.1331 18.8634 21.375 18.0659 21.375 17.25C21.375 16.156 20.9404 15.1068 20.1668 14.3332C19.3932 13.5596 18.344 13.125 17.25 13.125Z" fill="#E94560"/>
</svg>
