<svg width="64" height="64" viewBox="0 0 64 64" fill="none" xmlns="http://www.w3.org/2000/svg">
<g clip-path="url(#clip0)">
<path d="M48.3361 38.0503C43.8877 38.0503 40.2689 41.6692 40.2689 46.1175C40.2689 50.5659 43.8877 54.1848 48.3361 54.1848C52.7852 54.1848 56.4034 50.5659 56.4034 46.1175C56.4034 41.6692 52.7845 38.0503 48.3361 38.0503ZM48.3361 50.1512C46.1116 50.1512 44.3025 48.342 44.3025 46.1175C44.3025 43.893 46.1116 42.0839 48.3361 42.0839C50.5606 42.0839 52.3697 43.893 52.3697 46.1175C52.3697 48.3422 50.5606 50.1512 48.3361 50.1512Z" fill="#A3B3DB"/>
<path d="M20.7731 38.0503C16.3247 38.0503 12.7059 41.6692 12.7059 46.1175C12.7059 50.5659 16.3247 54.1848 20.7731 54.1848C25.2215 54.1848 28.8404 50.5659 28.8404 46.1175C28.8404 41.6692 25.2215 38.0503 20.7731 38.0503ZM20.7731 50.1512C18.5486 50.1512 16.7395 48.342 16.7395 46.1175C16.7395 43.893 18.5486 42.0839 20.7731 42.0839C22.997 42.0839 24.8067 43.893 24.8067 46.1175C24.8067 48.3422 22.9976 50.1512 20.7731 50.1512Z" fill="#A3B3DB"/>
<path d="M53.7687 14.9597C53.4259 14.2787 52.7287 13.8491 51.9664 13.8491H41.3445V17.8827H50.7226L56.2144 28.8058L59.8191 26.9933L53.7687 14.9597Z" fill="#A3B3DB"/>
<path d="M42.2858 44.168H27.0253V48.2016H42.2858V44.168Z" fill="#A3B3DB"/>
<path d="M14.7227 44.168H7.73117C6.61717 44.168 5.71442 45.0708 5.71442 46.1847C5.71442 47.2987 6.61729 48.2015 7.73117 48.2015H14.7228C15.8368 48.2015 16.7395 47.2986 16.7395 46.1847C16.7395 45.0707 15.8367 44.168 14.7227 44.168Z" fill="#A3B3DB"/>
<path d="M63.5765 31.8384L59.6095 26.7292C59.2284 26.2371 58.6402 25.9493 58.0169 25.9493H43.3614V11.8317C43.3614 10.7177 42.4585 9.81494 41.3447 9.81494H7.73117C6.61717 9.81494 5.71442 10.7178 5.71442 11.8317C5.71442 12.9456 6.61729 13.8484 7.73117 13.8484H39.3278V27.9661C39.3278 29.0801 40.2307 29.9828 41.3445 29.9828H57.0293L59.9664 33.7663V44.1677H54.3865C53.2725 44.1677 52.3698 45.0706 52.3698 46.1844C52.3698 47.2984 53.2727 48.2012 54.3865 48.2012H61.9832C63.0972 48.2012 63.9999 47.2983 64 46.1844V33.0754C64 32.6277 63.8508 32.1921 63.5765 31.8384Z" fill="#A3B3DB"/>
<path d="M14.5883 33.9497H5.31088C4.19688 33.9497 3.29413 34.8526 3.29413 35.9665C3.29413 37.0805 4.197 37.9832 5.31088 37.9832H14.5881C15.7021 37.9832 16.6049 37.0803 16.6049 35.9665C16.605 34.8526 15.7021 33.9497 14.5883 33.9497Z" fill="#A3B3DB"/>
<path d="M19.2269 26.0166H2.01675C0.902875 26.0166 0 26.9195 0 28.0335C0 29.1475 0.902875 30.0502 2.01675 30.0502H19.2269C20.3409 30.0502 21.2436 29.1474 21.2436 28.0335C21.2436 26.9196 20.3409 26.0166 19.2269 26.0166Z" fill="#A3B3DB"/>
<path d="M22.521 18.084H5.31088C4.19688 18.084 3.29413 18.9869 3.29413 20.1007C3.29413 21.2147 4.197 22.1175 5.31088 22.1175H22.521C23.635 22.1175 24.5378 21.2146 24.5378 20.1007C24.5379 18.9869 23.635 18.084 22.521 18.084Z" fill="#A3B3DB"/>
</g>
<defs>
<clipPath id="clip0">
<rect width="64" height="64" fill="white"/>
</clipPath>
</defs>
</svg>
