<svg width="25" height="20" viewBox="0 0 25 20" fill="none" xmlns="http://www.w3.org/2000/svg">
<path d="M24.3478 2.30769C23.4348 2.76923 22.5217 2.92308 21.4565 3.07692C22.5217 2.46154 23.2826 1.53846 23.587 0.307692C22.6739 0.923077 21.6087 1.23077 20.3913 1.53846C19.4783 0.615385 18.1087 9.39816e-08 16.7391 8.68738e-08C13.5435 7.02888e-08 11.1087 3.07692 11.8696 6.15385C7.76087 6 4.1087 4 1.52174 0.923078C0.152174 3.23077 0.913043 6.15385 3.04348 7.69231C2.28261 7.69231 1.52174 7.38462 0.760869 7.07692C0.760869 9.38462 2.43478 11.5385 4.71739 12.1538C3.95652 12.3077 3.19565 12.4615 2.43478 12.3077C3.04348 14.3077 4.86956 15.8462 7.15217 15.8462C5.32609 17.2308 2.58696 18 -9.18206e-08 17.6923C2.28261 19.0769 4.86956 20 7.6087 20C16.8913 20 22.0652 12.1538 21.7609 4.92308C22.8261 4.30769 23.7391 3.38462 24.3478 2.30769Z" fill="#4B566B"/>
</svg>
