<svg width="24" height="24" viewBox="0 0 24 24" fill="none" xmlns="http://www.w3.org/2000/svg">
<path d="M8.925 11.7525C9.7875 12.3825 10.8525 12.75 12 12.75C14.8065 12.75 17.25 10.3208 17.25 7.5C17.25 4.605 14.895 2.25 12 2.25C9.105 2.25 6.75 4.605 6.75 7.5C6.75 9.2475 7.605 10.8 8.925 11.7525Z" fill="#E94560"/>
<path d="M16.62 12.4124C15.4125 13.5524 13.785 14.2499 12 14.2499C10.215 14.2499 8.5875 13.5524 7.38 12.4124C4.3275 14.0624 2.25 17.2949 2.25 20.9999C2.25 21.4124 2.5875 21.7499 3 21.7499H21C21.4125 21.7499 21.75 21.4124 21.75 20.9999C21.75 17.2949 19.6725 14.0624 16.62 12.4124Z" fill="#E94560"/>
</svg>
