<svg width="28" height="28" viewBox="0 0 28 28" fill="none" xmlns="http://www.w3.org/2000/svg">
<path fill-rule="evenodd" clip-rule="evenodd" d="M15.9441 9.62492C15.9441 10.2953 15.6778 10.9383 15.2037 11.4123C14.7297 11.8864 14.0868 12.1527 13.4163 12.1527C12.7459 12.1527 12.103 11.8864 11.6289 11.4123C11.1549 10.9383 10.8886 10.2953 10.8886 9.62492C10.8886 8.95451 11.1549 8.31156 11.6289 7.83751C12.103 7.36346 12.7459 7.09714 13.4163 7.09714C14.0868 7.09714 14.7297 7.36346 15.2037 7.83751C15.6778 8.31156 15.9441 8.95451 15.9441 9.62492ZM13.4163 13.4166C14.422 13.4166 15.3864 13.0171 16.0975 12.306C16.8085 11.595 17.208 10.6305 17.208 9.62492C17.208 8.61931 16.8085 7.65488 16.0975 6.94381C15.3864 6.23273 14.422 5.83325 13.4163 5.83325C12.4107 5.83325 11.4463 6.23273 10.7352 6.94381C10.0242 7.65488 9.62467 8.61931 9.62467 9.62492C9.62467 10.6305 10.0242 11.595 10.7352 12.306C11.4463 13.0171 12.4107 13.4166 13.4163 13.4166ZM20.9997 19.736C20.9997 20.9999 19.7358 20.9999 19.7358 20.9999H7.0969C7.0969 20.9999 5.83301 20.9999 5.83301 19.736C5.83301 18.4721 7.0969 14.6805 13.4163 14.6805C19.7358 14.6805 20.9997 18.4721 20.9997 19.736ZM19.7358 19.731C19.7345 19.4201 19.5411 18.4848 18.6842 17.6279C17.8602 16.8038 16.3094 15.9444 13.4163 15.9444C10.522 15.9444 8.97251 16.8038 8.14845 17.6279C7.29154 18.4848 7.09942 19.4201 7.0969 19.731H19.7358Z" fill="#4B566B"/>
</svg>
