<svg width="64" height="64" viewBox="0 0 64 64" fill="none" xmlns="http://www.w3.org/2000/svg">
<g clip-path="url(#clip0)">
<path d="M22.6053 34.6667C22.072 34.6667 21.56 34.4533 21.184 34.0747L13.912 26.7413C13.1333 25.9573 13.1386 24.6907 13.9226 23.912C14.7093 23.136 15.9733 23.1413 16.7546 23.9253L22.5093 29.728L33.824 16.688C34.5466 15.8533 35.8106 15.7627 36.6453 16.488C37.48 17.2107 37.568 18.4747 36.8453 19.3093L24.1173 33.976C23.752 34.3973 23.2266 34.648 22.672 34.6667C22.6506 34.6667 22.6266 34.6667 22.6053 34.6667Z" fill="#E63E58"/>
<path d="M25.3333 50.6667C11.3653 50.6667 0 39.3013 0 25.3333C0 11.3653 11.3653 0 25.3333 0C39.3013 0 50.6667 11.3653 50.6667 25.3333C50.6667 39.3013 39.3013 50.6667 25.3333 50.6667ZM25.3333 4C13.5707 4 4 13.5707 4 25.3333C4 37.096 13.5707 46.6667 25.3333 46.6667C37.096 46.6667 46.6667 37.096 46.6667 25.3333C46.6667 13.5707 37.096 4 25.3333 4Z" fill="#0F3460"/>
<path d="M62 64C61.488 64 60.976 63.8053 60.5867 63.4133L41.0933 43.92C40.312 43.1386 40.312 41.872 41.0933 41.0906C41.8747 40.3093 43.1413 40.3093 43.9227 41.0906L63.416 60.584C64.1973 61.3653 64.1973 62.632 63.416 63.4133C63.024 63.8053 62.512 64 62 64Z" fill="#0F3460"/>
</g>
<defs>
<clipPath id="clip0">
<rect width="64" height="64" fill="white"/>
</clipPath>
</defs>
</svg>
