<svg width="28" height="29" viewBox="0 0 28 29" fill="none" xmlns="http://www.w3.org/2000/svg">
<path d="M18.9727 13.375C18.8051 11.6877 17.862 10.2303 16.5064 9.35886L15.7501 6.33331H11.4167L10.6598 9.36133C9.16162 10.3249 8.16675 12.003 8.16675 13.9166C8.16675 15.8303 9.16159 17.5083 10.6598 18.4719L11.4167 21.5H15.7501L16.5065 18.4744C17.862 17.6029 18.8051 16.1455 18.9727 14.4583H20.0834V13.375H18.9727ZM13.5834 18.25C11.194 18.25 9.25008 16.306 9.25008 13.9166C9.25008 11.5273 11.194 9.58331 13.5834 9.58331C15.9728 9.58331 17.9167 11.5273 17.9167 13.9166C17.9167 16.306 15.9728 18.25 13.5834 18.25Z" fill="#0F3460"/>
</svg>
