<svg width="46" height="46" viewBox="0 0 46 46" fill="none" xmlns="http://www.w3.org/2000/svg">
<path d="M7.90625 2.15625H25.1562V6.46875H7.90625V2.15625Z" fill="#A9E9FF"/>
<path d="M3.59375 9.34375L7.90625 5.03125H25.1562L29.4688 9.34375V10.0625H3.59375V9.34375Z" fill="#55ABC9"/>
<path d="M29.4472 40.9688H11.5V9.34375H29.4472L29.821 10.4219C30.0638 11.1201 30.0638 11.8799 29.821 12.5781C29.5784 13.2764 29.5784 14.0361 29.821 14.7344C30.0638 15.4326 30.0638 16.1924 29.821 16.8906C29.5784 17.5889 29.5784 18.3486 29.821 19.0469C30.0638 19.7451 30.0638 20.5049 29.821 21.2031L29.4472 22.2812V40.9688Z" fill="#88D0EF"/>
<path d="M22.2812 25.1562H23.2986C23.8224 25.1562 24.3301 24.9748 24.7352 24.6426C25.1403 24.3105 25.4178 23.8483 25.5206 23.3347L25.875 21.5625L24.1028 21.9169C23.5892 22.0197 23.127 22.2972 22.7949 22.7023C22.4627 23.1074 22.2813 23.6151 22.2812 24.1389V25.1562Z" fill="#FFD884"/>
<path d="M20.8438 20.8438H19.8264C19.3026 20.8437 18.7949 20.6623 18.3898 20.3301C17.9847 19.998 17.7072 19.5358 17.6044 19.0222L17.25 17.25L19.0222 17.6044C19.5358 17.7072 19.998 17.9847 20.3301 18.3898C20.6623 18.7949 20.8437 19.3026 20.8438 19.8264V20.8438Z" fill="#FFD884"/>
<path d="M22.2812 20.8438H23.2986C23.8224 20.8437 24.3301 20.6623 24.7352 20.3301C25.1403 19.998 25.4178 19.5358 25.5206 19.0222L25.875 17.25L24.1028 17.6044C23.5892 17.7072 23.127 17.9847 22.7949 18.3898C22.4627 18.7949 22.2813 19.3026 22.2812 19.8264V20.8438Z" fill="#FFD884"/>
<path d="M20.8438 25.1562H19.8264C19.3026 25.1562 18.7949 24.9748 18.3898 24.6426C17.9847 24.3105 17.7072 23.8483 17.6044 23.3347L17.25 21.5625L19.0222 21.9169C19.5358 22.0197 19.998 22.2972 20.3301 22.7023C20.6623 23.1074 20.8437 23.6151 20.8438 24.1389V25.1562Z" fill="#FFD884"/>
<path d="M20.8438 29.4688H19.8264C19.3026 29.4687 18.7949 29.2873 18.3898 28.9551C17.9847 28.623 17.7072 28.1608 17.6044 27.6472L17.25 25.875L19.0222 26.2294C19.5358 26.3322 19.998 26.6097 20.3301 27.0148C20.6623 27.4199 20.8437 27.9276 20.8438 28.4514V29.4688Z" fill="#FFD884"/>
<path d="M20.8438 33.7812H19.8264C19.3026 33.7812 18.7949 33.5998 18.3898 33.2676C17.9847 32.9355 17.7072 32.4733 17.6044 31.9597L17.25 30.1875L19.0222 30.5419C19.5358 30.6447 19.998 30.9222 20.3301 31.3273C20.6623 31.7324 20.8437 32.2401 20.8438 32.7639V33.7812Z" fill="#FFD884"/>
<path d="M21.5625 17.25L20.7318 16.4193C20.3639 16.0514 20.141 15.5631 20.1041 15.0441C20.0673 14.5251 20.2188 14.0102 20.531 13.594L21.5625 12.2188L22.594 13.594C22.9062 14.0102 23.0577 14.5251 23.0208 15.0441C22.9839 15.5631 22.7611 16.0514 22.3932 16.4193L21.5625 17.25Z" fill="#FFD884"/>
<path d="M21.5625 29.4688V28.0312C21.5625 27.0781 21.9411 26.164 22.6151 25.4901C23.289 24.8161 24.2031 24.4375 25.1562 24.4375C25.1562 23.4844 25.5349 22.5703 26.2088 21.8963C26.8828 21.2224 27.7969 20.8438 28.75 20.8438C28.75 20.2719 28.9772 19.7234 29.3816 19.3191C29.7859 18.9147 30.3344 18.6875 30.9062 18.6875H31.759C32.6766 18.6875 33.5566 19.052 34.2054 19.7008C34.8542 20.3497 35.2188 21.2297 35.2188 22.1473V22.2812H35.9375C36.5094 22.2812 37.0578 22.5084 37.4622 22.9128C37.8666 23.3172 38.0938 23.8656 38.0938 24.4375V25.1562C38.6656 25.1562 39.2141 25.3834 39.6184 25.7878C40.0228 26.1922 40.25 26.7406 40.25 27.3125V29.4688H21.5625Z" fill="#F6F6E7"/>
<path d="M38.0936 25.1563V24.4375C38.0936 23.8656 37.8665 23.3172 37.4621 22.9128C37.0577 22.5084 36.5093 22.2813 35.9374 22.2813H35.2186V22.1473C35.2186 21.2297 34.8541 20.3497 34.2053 19.7009C33.5565 19.052 32.6764 18.6875 31.7588 18.6875H30.9061C30.6 18.6873 30.2974 18.7525 30.0185 18.8788C30.6975 19.1146 31.2863 19.5561 31.7029 20.1418C32.1196 20.7275 32.3435 21.4285 32.3436 22.1473V22.2813H33.0624C33.6343 22.2813 34.1827 22.5084 34.5871 22.9128C34.9915 23.3172 35.2186 23.8656 35.2186 24.4375V25.1563C35.7905 25.1563 36.339 25.3834 36.7433 25.7878C37.1477 26.1922 37.3749 26.7406 37.3749 27.3125V29.4688H40.2499V27.3125C40.2499 26.7406 40.0227 26.1922 39.6183 25.7878C39.214 25.3834 38.6655 25.1563 38.0936 25.1563Z" fill="#CCCBB2"/>
<path d="M20.8438 32.3438H40.9688V38.0597C40.9688 38.7249 40.8377 39.3836 40.5832 39.9981C40.3286 40.6127 39.9555 41.1711 39.4852 41.6414C39.0148 42.1118 38.4564 42.4849 37.8419 42.7394C37.2273 42.994 36.5686 43.125 35.9034 43.125H25.9091C25.2439 43.125 24.5852 42.994 23.9706 42.7394C23.3561 42.4849 22.7977 42.1118 22.3273 41.6414C21.857 41.1711 21.4839 40.6127 21.2293 39.9981C20.9748 39.3836 20.8438 38.7249 20.8438 38.0597V32.3438Z" fill="#D98218"/>
<path d="M38.0936 32.3438V36.6222C38.0936 37.2874 37.9626 37.9461 37.7081 38.5606C37.4535 39.1751 37.0804 39.7335 36.6101 40.2039C36.1397 40.6743 35.5813 41.0474 34.9668 41.3019C34.3522 41.5565 33.6935 41.6875 33.0284 41.6875H23.034C22.796 41.6872 22.5584 41.6702 22.3228 41.6368C22.7928 42.1092 23.3517 42.484 23.9671 42.7394C24.5826 42.9948 25.2426 43.1258 25.909 43.125H35.9033C36.5685 43.125 37.2272 42.994 37.8418 42.7394C38.4563 42.4849 39.0147 42.1118 39.4851 41.6414C39.9554 41.171 40.3285 40.6126 40.5831 39.9981C40.8376 39.3835 40.9686 38.7249 40.9686 38.0597V32.3438H38.0936Z" fill="#BF6B04"/>
<path d="M20.8438 31.625H40.9688V33.7812H20.8438V31.625Z" fill="#BF6B04"/>
<path d="M19.4062 28.75H42.4062V33.0625H19.4062V28.75Z" fill="#FFBF41"/>
<path d="M42.4062 33.0625H35.2188L35.8503 32.431C36.3337 31.9476 36.7171 31.3737 36.9787 30.7421C37.2404 30.1106 37.375 29.4336 37.375 28.75H42.4062V33.0625Z" fill="#D98218"/>
<path d="M22.6354 39.5312C23.1134 39.5312 23.5717 39.7211 23.9097 40.0591C24.2476 40.397 24.4375 40.8554 24.4375 41.3333C24.4375 41.9991 24.173 42.6377 23.7022 43.1085C23.2314 43.5793 22.5929 43.8438 21.9271 43.8438H20.125V42.0417C20.125 41.3759 20.3895 40.7373 20.8603 40.2665C21.3311 39.7957 21.9696 39.5312 22.6354 39.5312Z" fill="#D98218"/>
<path d="M22.9681 39.563C22.9889 39.6726 22.9996 39.7839 23 39.8954C23 40.2251 22.9351 40.5516 22.809 40.8562C22.6828 41.1608 22.4979 41.4376 22.2648 41.6707C22.0317 41.9039 21.7549 42.0888 21.4503 42.215C21.1457 42.3411 20.8193 42.4061 20.4896 42.4061H20.125V43.8436H21.9271C22.5929 43.8436 23.2314 43.5791 23.7022 43.1083C24.173 42.6375 24.4375 41.999 24.4375 41.3332C24.4373 40.9131 24.2904 40.5063 24.0221 40.183C23.7538 39.8598 23.381 39.6405 22.9681 39.563Z" fill="#BF6B04"/>
<path d="M42.4062 43.8437H40.6042C40.2745 43.8438 39.948 43.7788 39.6435 43.6527C39.3389 43.5265 39.0621 43.3416 38.829 43.1085C38.5959 42.8754 38.411 42.5986 38.2848 42.294C38.1587 41.9895 38.0938 41.663 38.0938 41.3333C38.0938 40.8554 38.2836 40.397 38.6216 40.0591C38.9595 39.7211 39.4179 39.5312 39.8958 39.5312C40.5616 39.5312 41.2002 39.7957 41.671 40.2665C42.1418 40.7373 42.4062 41.3759 42.4062 42.0417V43.8437Z" fill="#BF6B04"/>
<path d="M23.7188 34.5H25.1562V35.9375H23.7188V34.5Z" fill="#873C1E"/>
<path d="M29.4688 25.1562H30.9062V26.5938H29.4688V25.1562Z" fill="#CCCBB2"/>
<path d="M31.625 23H33.0625V24.4375H31.625V23Z" fill="#CCCBB2"/>
<path d="M25.1562 36.6562H26.5938V38.0938H25.1562V36.6562Z" fill="#873C1E"/>
<path d="M37.375 35.9375H38.8125V37.375H37.375V35.9375Z" fill="#873C1E"/>
<path d="M26.255 25.9478L27.6919 25.2293L28.3344 26.5145L26.8976 27.2329L26.255 25.9478Z" fill="#CCCBB2"/>
<path d="M34.1579 25.9497L35.5948 25.2313L36.2373 26.5164L34.8005 27.2348L34.1579 25.9497Z" fill="#CCCBB2"/>
<path d="M12.2188 40.9688H4.6814C4.55718 40.9687 4.43474 40.9392 4.32417 40.8826C4.2136 40.826 4.11806 40.7439 4.04543 40.6432C3.9728 40.5424 3.92516 40.4258 3.90642 40.303C3.88768 40.1802 3.89839 40.0547 3.93767 39.9369L4.20253 39.1424C4.27294 38.9312 4.25655 38.7006 4.15698 38.5015C3.9784 38.1443 3.87191 37.7555 3.84361 37.3572C3.81531 36.9589 3.86574 36.5589 3.99202 36.1801C4.19993 35.5561 4.19993 34.8814 3.99202 34.2574L3.91422 34.0238C3.70631 33.3998 3.70631 32.7252 3.91422 32.1012L3.99202 31.8676C4.19993 31.2436 4.19993 30.5689 3.99202 29.9449L3.91422 29.7113C3.70631 29.0873 3.70631 28.4127 3.91422 27.7887L3.99202 27.5551C4.19993 26.9311 4.19993 26.2564 3.99202 25.6324L3.91422 25.3988C3.70631 24.7748 3.70631 24.1002 3.91422 23.4762L3.99202 23.2426C4.19993 22.6186 4.19993 21.9439 3.99202 21.3199L3.91422 21.0863C3.70631 20.4623 3.70631 19.7877 3.91422 19.1637L3.99202 18.9301C4.19993 18.3061 4.19993 17.6314 3.99202 17.0074L3.91422 16.7738C3.70631 16.1498 3.70631 15.4752 3.91422 14.8512L3.99202 14.6176C4.19993 13.9936 4.19993 13.3189 3.99202 12.6949L3.74945 11.9683C3.64616 11.6582 3.59359 11.3334 3.59375 11.0066V9.34375H12.2188V40.9688Z" fill="#A9E9FF"/>
<path d="M7.90625 5.03125L12.2188 9.34375H3.59375L7.90625 5.03125Z" fill="#88D0EF"/>
</svg>
