<svg width="28" height="29" viewBox="0 0 28 29" fill="none" xmlns="http://www.w3.org/2000/svg">
<path d="M13.4166 8.86108C10.6291 8.86108 8.36108 11.1291 8.36108 13.9166C8.36108 16.7042 10.6291 18.9722 13.4166 18.9722C16.2042 18.9722 18.4722 16.7042 18.4722 13.9166C18.4722 11.1291 16.2042 8.86108 13.4166 8.86108ZM16.0031 10.7495C16.0599 10.6863 16.1401 10.6489 16.2252 10.6455C16.2987 10.6372 16.3931 10.673 16.4548 10.7316C17.1102 11.3522 17.5558 12.1421 17.7421 13.016C17.7718 13.1554 17.7045 13.2974 17.578 13.3628C17.2688 13.5226 16.9016 13.6 16.5498 13.6C16.0913 13.6 15.6568 13.4686 15.4051 13.2168C14.8694 12.6815 15.0928 11.7592 16.0031 10.7495ZM10.8303 17.1331C10.7735 17.1964 10.6933 17.234 10.6081 17.2374C10.6044 17.2377 10.6001 17.2377 10.5957 17.2377C10.5149 17.2377 10.4371 17.2069 10.3785 17.1513C9.72312 16.5308 9.27754 15.7409 9.09119 14.8667C9.06156 14.7272 9.12884 14.5853 9.25535 14.5199C9.96754 14.1524 10.9833 14.2209 11.4283 14.6658C11.9633 15.2012 11.7399 16.1235 10.8303 17.1331ZM11.4282 13.2168C11.1765 13.4686 10.742 13.6001 10.2835 13.6001C9.93169 13.6001 9.56512 13.5226 9.25533 13.3628C9.12881 13.2974 9.06154 13.1554 9.09116 13.016C9.27754 12.1421 9.72309 11.3522 10.3785 10.7316C10.4402 10.673 10.5309 10.6366 10.6081 10.6456C10.6932 10.649 10.7734 10.6863 10.8302 10.7495C11.7405 11.7592 11.9639 12.6815 11.4282 13.2168ZM14.7632 18.1301C14.3257 18.2696 13.8727 18.3403 13.4166 18.3403C12.9606 18.3403 12.5076 18.2696 12.0701 18.1301C11.9312 18.0857 11.8405 17.9524 11.8504 17.8071C11.9294 16.67 12.6027 15.8125 13.4166 15.8125C14.2306 15.8125 14.9039 16.67 14.9829 17.807C14.9928 17.9524 14.9021 18.0857 14.7632 18.1301ZM12.1528 13.9166C12.1528 13.2196 12.7199 12.6528 13.4166 12.6528C14.1134 12.6528 14.6805 13.2196 14.6805 13.9166C14.6805 14.6137 14.1134 15.1805 13.4166 15.1805C12.7199 15.1805 12.1528 14.6137 12.1528 13.9166ZM14.9829 10.0512C14.9039 11.188 14.2306 12.0455 13.4166 12.0455C12.6027 12.0455 11.9294 11.188 11.8504 10.0512C11.8405 9.9059 11.9306 9.77259 12.0695 9.72846C12.9446 9.44888 13.8888 9.44888 14.7638 9.72846C14.9027 9.77259 14.9928 9.9059 14.9829 10.0512ZM17.7421 14.8164C17.5558 15.6906 17.1102 16.4805 16.4548 17.1011C16.3962 17.1566 16.3184 17.1875 16.2376 17.1875C16.2333 17.1875 16.2289 17.1875 16.2252 17.1872C16.1401 17.1838 16.0599 17.1464 16.0031 17.0832C15.0928 16.0736 14.8694 15.151 15.4051 14.6156C15.85 14.1703 16.8652 14.1027 17.578 14.4696C17.7045 14.535 17.7718 14.677 17.7421 14.8164Z" fill="#0F3460"/>
<path d="M13.4166 6.33331C9.23488 6.33331 5.83325 9.73527 5.83325 13.9166C5.83325 18.098 9.23488 21.5 13.4166 21.5C17.5983 21.5 20.9999 18.098 20.9999 13.9166C20.9999 9.73527 17.5983 6.33331 13.4166 6.33331ZM13.4166 19.6041C10.2803 19.6041 7.72909 17.0526 7.72909 13.9166C7.72909 10.7807 10.2803 8.22915 13.4166 8.22915C16.5529 8.22915 19.1041 10.7807 19.1041 13.9166C19.1041 17.0526 16.5529 19.6041 13.4166 19.6041Z" fill="#0F3460"/>
</svg>
