<svg height="512pt" viewBox="-8 0 512 512.001" width="512pt" xmlns="http://www.w3.org/2000/svg"><path d="m255.878906 223.148438c.78125 0 1.578125-.015626 2.390625-.050782 4.160157-.171875 7.390625-3.6875 7.21875-7.84375-.175781-4.160156-3.675781-7.375-7.847656-7.21875-3.78125.164063-10.445313-.070312-12.523437-3.375-2.664063-4.234375.375-14.25 3.273437-19.683594 1.960937-3.664062.589844-8.222656-3.070313-10.195312-3.664062-1.972656-8.238281-.601562-10.210937 3.0625-1.164063 2.160156-11.121094 21.476562-2.777344 34.804688 4.363281 6.972656 12.277344 10.5 23.546875 10.5zm0 0"/><path d="m212.886719 170.792969c0-8.671875-5.476563-15.460938-12.464844-15.460938-6.992187 0-12.46875 6.789063-12.46875 15.460938 0 8.667969 5.476563 15.460937 12.46875 15.460937 6.988281 0 12.464844-6.792968 12.464844-15.460937zm0 0"/><path d="m295.117188 186.253906c6.992187 0 12.46875-6.792968 12.46875-15.460937 0-8.671875-5.476563-15.460938-12.46875-15.460938-6.992188 0-12.46875 6.789063-12.46875 15.460938 0 8.667969 5.476562 15.460937 12.46875 15.460937zm0 0"/><path d="m208.347656 231.535156c-3.484375 2.28125-4.453125 6.957032-2.171875 10.4375.613281.933594 15.34375 22.929688 41.59375 22.929688 26.246094 0 40.976563-21.996094 41.589844-22.929688 2.285156-3.480468 1.3125-8.15625-2.167969-10.4375-3.480468-2.28125-8.152344-1.3125-10.433594 2.167969-.105468.160156-10.789062 16.125-28.988281 16.125-17.988281 0-28.898437-15.992187-28.988281-16.125-2.285156-3.480469-6.957031-4.449219-10.433594-2.167969zm0 0"/><path d="m495.523438 503.976562c-.152344-2.363281-4.074219-58.140624-33.878907-82.238281-3.875-3.132812-9.546875-7.070312-17.347656-12.039062-3.515625-2.234375-8.171875-1.203125-10.40625 2.308593-2.238281 3.511719-1.203125 8.167969 2.304687 10.40625 7.21875 4.597657 12.589844 8.3125 15.96875 11.046876 18.714844 15.128906 25.316407 48.195312 27.425782 63.464843h-344.15625c-4.164063 0-7.539063 3.375-7.539063 7.539063 0 4.164062 3.375 7.535156 7.539063 7.535156h352.570312c4.285156 0 7.796875-3.738281 7.519532-8.023438zm0 0"/><path d="m105.285156 496.925781h-89.335937c2.109375-15.277343 8.710937-48.339843 27.421875-63.46875 23.15625-18.722656 123.921875-72.460937 151.027344-86.792969l32.386718 63.046876c4.058594 7.902343 12.097656 12.8125 20.984375 12.8125 8.882813 0 16.925781-4.910157 20.984375-12.8125l32.386719-63.046876c18.363281 9.710938 70.585937 37.53125 109.488281 60.265626 3.59375 2.101562 8.210938.890624 10.308594-2.703126 2.101562-3.59375.890625-8.210937-2.703125-10.3125-7.527344-4.398437-15.546875-8.984374-23.71875-13.59375 6.429687-40.800781 13.179687-100.167968 10.90625-160.449218-2.945313-78.199219-20.335937-136.550782-51.683594-173.429688-26.199219-30.816406-62.023437-46.441406-106.484375-46.441406-38.769531 0-71.089844 11.929688-96.054687 35.449219-21.429688 20.191406-37.585938 49.136719-48.019531 86.027343-1.132813 4.007813 1.195312 8.171876 5.199218 9.304688s8.171875-1.195312 9.304688-5.203125c9.679687-34.230469 24.433594-60.859375 43.851562-79.152344 22.078125-20.804687 50.917969-31.351562 85.71875-31.351562 39.835938 0 71.796875 13.839843 95 41.132812 64.894532 76.335938 49.882813 239.199219 38.222656 316.261719-32.289062-17.941406-64.035156-34.777344-75.023437-40.574219v-36.367187c1.546875-1.414063 3.066406-2.875 4.535156-4.425782 42.238281-44.675781 37.632813-130.832031 37.414063-134.480468-.179688-3.078125-2.222656-5.734375-5.148438-6.707032-.421875-.136718-42.117187-14.425781-66.910156-62.96875-1.148438-2.25-3.351562-3.773437-5.859375-4.058593-2.511719-.285157-5 .707031-6.625 2.640625-.371094.441406-37.78125 44.246094-109.535156 63.65625-3.109375.839844-5.34375 3.5625-5.554688 6.777344-.242187 3.644531-5.417969 89.769531 36.523438 134.722656 1.863281 2 3.800781 3.871094 5.792969 5.644531v35.5625c-11.226563 5.917969-43.320313 22.921875-75.972657 41.089844-8-52.597657-17.167969-142.117188-3.042969-218.738281.753907-4.09375-1.953124-8.023438-6.046874-8.777344s-8.023438 1.953125-8.78125 6.046875c-15.027344 81.542969-4.484376 176.664062 3.835937 229.332031-28.476563 16.082031-55.132813 31.960938-66.179687 40.890625-29.804688 24.101563-33.730469 79.878906-33.882813 82.242187-.277344 4.285157 3.230469 8.023438 7.519531 8.023438h97.75c4.160156 0 7.535156-3.375 7.535156-7.535156 0-4.164063-3.375-7.539063-7.535156-7.539063zm185.09375-162.304687-35.035156 68.203125c-3.113281 6.0625-12.035156 6.0625-15.152344 0l-35.03125-68.203125v-27.65625c12.257813 6.667968 26.265625 10.070312 41.894532 10.125h.359374c16.066407 0 30.433594-3.566406 42.964844-10.601563zm-127.757812-172.394532c55.203125-16.148437 90.078125-45.28125 104.382812-59.222656 22.457032 37.65625 53.453125 54.03125 65.496094 59.253906.304688 18.191407-.976562 84.152344-33.488281 118.511719-13.40625 14.167969-30.847657 21.285157-51.910157 21.246094-21.035156-.070313-38.453124-7.335937-51.761718-21.589844-31.980469-34.246093-33.113282-99.292969-32.71875-118.199219zm0 0"/></svg>