<svg width="24" height="24" viewBox="0 0 24 24" fill="none" xmlns="http://www.w3.org/2000/svg">
<path d="M16.6135 7.21193L16.3885 6.89904C16.3816 6.54368 16.2676 6.16868 16.0267 5.83471C15.7478 5.4471 15.1669 5.04212 14.6096 5.00227C14.597 5.00157 14.392 5.00083 14.0755 5.00013C13.9678 4.99991 13.8753 5.07577 13.8542 5.18148C13.7115 5.89738 13.0859 6.43823 12.328 6.43823C11.57 6.43823 10.944 5.89738 10.8016 5.18143C10.7806 5.07594 10.6879 4.99983 10.5804 5C10.2663 5.00057 10.0621 5.00162 10.0463 5.00227C9.49027 5.04199 8.9087 5.44636 8.62924 5.83471C8.3888 6.16864 8.27432 6.54368 8.26747 6.89904L8.04287 7.21193C8.00769 7.25994 7.99316 7.32038 8.00302 7.37952C8.01284 7.43914 8.04545 7.49139 8.09389 7.52656L9.44798 8.50046C9.54871 8.57374 9.68968 8.55104 9.76261 8.44987L9.96792 8.16395C10.2149 8.78096 10.3224 9.44083 10.2853 10.0963C9.75288 11.2201 9.39796 12.7513 9.39796 14.4393C9.39796 15.1059 9.80416 16.7061 10.0994 17.7441C10.1425 17.8954 10.2807 18 10.4379 18H14.2181C14.3756 18 14.5135 17.8956 14.5566 17.7442C14.852 16.7062 15.2585 15.106 15.2585 14.4393C15.2585 12.7526 14.9041 11.2223 14.3724 10.0988C14.3349 9.44275 14.4422 8.78245 14.689 8.16531L14.8938 8.44992C14.9667 8.55108 15.1073 8.57378 15.208 8.5005L16.5625 7.52661C16.6109 7.49147 16.6435 7.43919 16.6534 7.37957C16.6628 7.32038 16.6487 7.25998 16.6135 7.21193Z" fill="#7D879C"/>
</svg>
