<svg width="20" height="20" viewBox="0 0 20 20" fill="none" xmlns="http://www.w3.org/2000/svg">
<g clip-path="url(#clip0)">
<path d="M16.9166 11.4462C16.8533 11.3745 16.7623 11.3335 16.6666 11.3335H3.33334C3.23767 11.3335 3.14666 11.3745 3.08369 11.4462C3.02037 11.5178 2.99068 11.6131 3.00267 11.7081L4.00267 19.7081C4.02333 19.8751 4.16532 20.0001 4.33333 20.0001H15.6666C15.8346 20.0001 15.9766 19.8751 15.9976 19.7081L16.9976 11.7081C17.0093 11.6131 16.98 11.5178 16.9166 11.4462ZM15.3723 19.3335H4.62767L3.71099 12.0001H16.2889L15.3723 19.3335Z" fill="#7D879C"/>
<path d="M17.3333 10H2.66663C2.48265 10 2.33331 10.1493 2.33331 10.3333V11.6666C2.33331 11.8506 2.48265 12 2.66663 12H17.3333C17.5172 12 17.6666 11.8506 17.6666 11.6666V10.3333C17.6666 10.1493 17.5172 10 17.3333 10ZM16.9999 11.3334H2.99999V10.6667H16.9999V11.3334Z" fill="#7D879C"/>
<path d="M18 8H2.00007C1.81608 8 1.66675 8.14934 1.66675 8.33332V10.3333C1.66675 10.5173 1.81608 10.6666 2.00007 10.6666H18C18.184 10.6666 18.3333 10.5173 18.3333 10.3333V8.33332C18.3333 8.14934 18.184 8 18 8ZM17.6666 9.99999H2.33339V8.66668H17.6666V9.99999Z" fill="#7D879C"/>
<path d="M5.66668 15.3335H5.00001C4.81602 15.3335 4.66669 15.4828 4.66669 15.6668C4.66669 15.8508 4.81602 16.0001 5.00001 16.0001H5.66668C5.85067 16.0001 6 15.8508 6 15.6668C6 15.4828 5.8507 15.3335 5.66668 15.3335Z" fill="#7D879C"/>
<path d="M7.66668 15.3335H7.00001C6.81602 15.3335 6.66669 15.4828 6.66669 15.6668C6.66669 15.8508 6.81602 16.0001 7.00001 16.0001H7.66668C7.85067 16.0001 8 15.8508 8 15.6668C8 15.4828 7.8507 15.3335 7.66668 15.3335Z" fill="#7D879C"/>
<path d="M16.8893 5.09141C16.9637 4.88809 16.955 4.70876 16.9227 4.57177C16.8093 4.09278 16.3097 3.75243 15.9183 3.55411C16.168 3.24177 16.305 2.88677 16.3267 2.49412C16.3947 1.27147 15.283 0.145142 15.2356 0.0977983C15.1403 0.00213466 14.9967 -0.0261855 14.8723 0.0254549C14.748 0.0771344 14.6667 0.198775 14.6667 0.333461C14.6667 0.549789 14.5923 0.717796 14.4327 0.862444C13.826 1.41209 12.2547 1.38943 11.6667 1.33346C8.50168 1.33346 7.64633 2.1781 7.41699 2.67044C5.11965 2.74177 4.53368 3.79478 4.38434 4.34309C3.67669 4.39208 3.13669 4.63177 2.77669 5.05676C2.23634 5.69442 2.31134 6.52242 2.33337 6.69176C2.35373 7.86941 3.78939 8.60073 3.85103 8.63175C3.89704 8.65476 3.94837 8.66675 4.00001 8.66675H16C17.582 8.66675 18 7.35843 18 6.66676C18 5.70938 17.425 5.26372 16.8893 5.09141ZM16 8.00003H4.08505C3.84337 7.86203 3.00005 7.33172 3.00005 6.66672C3.00005 6.6484 2.99872 6.63004 2.9954 6.61207C2.99439 6.60539 2.8974 5.94574 3.2854 5.48774C3.55939 5.16407 4.02438 5.00008 4.66673 5.00008C4.85071 5.00008 5.00005 4.85075 5.00005 4.66677C5.00005 4.65345 5.0304 3.33345 7.66672 3.33345C7.8507 3.33345 7.99937 3.20314 7.99937 3.01912C8.03504 2.7358 8.76406 2.00013 11.6337 1.9981C11.8674 2.02142 13.9454 2.20209 14.8797 1.35678C14.9864 1.2601 15.0751 1.15279 15.1447 1.03576C15.4024 1.40244 15.6907 1.93611 15.661 2.45908C15.64 2.82439 15.465 3.13443 15.125 3.40642C15.0297 3.48275 14.984 3.60509 15.0054 3.72509C15.0267 3.84474 15.112 3.94376 15.2277 3.98274C15.6094 4.11106 16.206 4.43575 16.274 4.72509C16.2834 4.76442 16.3114 4.88407 16.0977 5.09774C16.0031 5.19239 15.9751 5.33473 16.0257 5.45907C16.0764 5.5834 16.1977 5.66539 16.3317 5.66672C16.4991 5.66871 17.3334 5.72571 17.3334 6.66672C17.3333 6.72105 17.3183 8.00003 16 8.00003Z" fill="#7D879C"/>
<path d="M6.41397 5.3433C5.29065 5.06229 4.97398 4.53296 4.96198 4.51229C4.87831 4.35163 4.68097 4.28663 4.51734 4.36831C4.35269 4.45065 4.28601 4.65096 4.36835 4.81565C4.40968 4.89799 4.81202 5.62962 6.25233 5.98997C6.27967 5.99696 6.30666 5.99997 6.33365 5.99997C6.48299 5.99997 6.61865 5.89896 6.65666 5.74763C6.70096 5.56896 6.59264 5.38795 6.41397 5.3433Z" fill="#7D879C"/>
<path d="M9.33328 3.66673C8.52829 3.66673 7.9493 2.82275 7.94329 2.81439C7.8413 2.66173 7.6343 2.62041 7.48161 2.72271C7.3286 2.8247 7.28727 3.03204 7.38927 3.18505C7.42059 3.23173 8.16825 4.33337 9.33325 4.33337C9.51723 4.33337 9.66656 4.18403 9.66656 4.00005C9.6666 3.81606 9.51727 3.66673 9.33328 3.66673Z" fill="#7D879C"/>
<path d="M16.5687 5.09773C16.4383 4.96742 16.2276 4.96742 16.0973 5.09773C15.899 5.29605 15.496 5.49273 14.8986 5.68238C14.7233 5.7384 14.6263 5.9257 14.682 6.10105C14.7273 6.24304 14.8583 6.33371 14.9996 6.33371C15.0333 6.33371 15.0673 6.32839 15.1003 6.31769C15.8199 6.08902 16.2866 5.85136 16.5686 5.56902C16.699 5.43871 16.699 5.22805 16.5687 5.09773Z" fill="#7D879C"/>
<path d="M15.569 3.43126C15.4386 3.30091 15.228 3.30091 15.0976 3.43126C15.092 3.43692 14.5187 4.00024 13.6666 4.00024C13.4826 4.00024 13.3333 4.14957 13.3333 4.33356C13.3333 4.51754 13.4826 4.66688 13.6666 4.66688C14.7916 4.66688 15.5376 3.93387 15.569 3.90255C15.6993 3.77227 15.6993 3.56161 15.569 3.43126Z" fill="#7D879C"/>
<path d="M16.6666 13.4462C16.6033 13.3745 16.5123 13.3335 16.4166 13.3335H13.6666C13.4826 13.3335 13.3333 13.4828 13.3333 13.6668V17.6668C13.3333 17.8508 13.4826 18.0001 13.6666 18.0001H15.9166C16.0846 18.0001 16.2266 17.8751 16.2477 17.7081L16.7477 13.7081C16.7593 13.6131 16.73 13.5178 16.6666 13.4462ZM15.6223 17.3335H14V14.0002H16.039L15.6223 17.3335Z" fill="#7D879C"/>
<path d="M8.66664 13.3335H3.58334C3.48768 13.3335 3.39666 13.3745 3.33334 13.4462C3.27033 13.5178 3.24068 13.6131 3.25268 13.7081L3.75267 17.7081C3.77334 17.8751 3.91533 18.0001 4.08334 18.0001H8.66664C8.85062 18.0001 8.99996 17.8508 8.99996 17.6668V13.6668C9 13.4828 8.85066 13.3335 8.66664 13.3335ZM8.33332 17.3335H4.37767L3.96099 14.0002H8.33332V17.3335Z" fill="#7D879C"/>
</g>
<defs>
<clipPath id="clip0">
<rect width="20" height="20" fill="white"/>
</clipPath>
</defs>
</svg>
