<svg width="29" height="20" viewBox="0 0 29 20" fill="none" xmlns="http://www.w3.org/2000/svg">
<path d="M27.9764 3.12952C27.6472 1.90578 26.6824 0.941123 25.4588 0.611608C23.2235 0 14.2821 0 14.2821 0C14.2821 0 5.34111 0 3.10581 0.58842C1.90578 0.917586 0.917412 1.90596 0.588246 3.12952C0 5.36465 0 10 0 10C0 10 0 14.6587 0.588246 16.8705C0.917761 18.094 1.88225 19.0587 3.10598 19.3882C5.36465 20 14.2825 20 14.2825 20C14.2825 20 23.2235 20 25.4588 19.4116C26.6825 19.0822 27.6472 18.1176 27.9767 16.894C28.5648 14.6587 28.5648 10.0235 28.5648 10.0235C28.5648 10.0235 28.5883 5.36465 27.9764 3.12952ZM11.4354 14.2823V5.7177L18.8706 10L11.4354 14.2823Z" fill="#4B566B"/>
</svg>
