<svg width="25" height="33" viewBox="0 0 25 33" fill="none" xmlns="http://www.w3.org/2000/svg">
<mask id="mask0_8772_73288" style="mask-type:alpha" maskUnits="userSpaceOnUse" x="0" y="0" width="25" height="33">
<path d="M0 2.85613C0 2.45172 0.0674015 2.08102 0.202204 1.74401C0.353857 1.39015 0.547636 1.08685 0.78354 0.834091C1.0363 0.564486 1.33118 0.362281 1.66818 0.227478C2.00519 0.0758262 2.36747 0 2.75503 0C3.15944 0 3.52172 0.0758262 3.84188 0.227478C4.17888 0.362281 4.46534 0.564486 4.70124 0.834091C4.954 1.08685 5.14778 1.39015 5.28258 1.74401C5.41738 2.08102 5.48478 2.45172 5.48478 2.85613V10.7421C6.44525 10.1186 7.47312 9.63839 8.5684 9.30138C9.68052 8.94753 10.8432 8.7706 12.0564 8.7706C13.7246 8.7706 15.2833 9.09075 16.7324 9.73107C18.1984 10.3545 19.4706 11.2139 20.549 12.3092C21.6443 13.3876 22.5036 14.6598 23.1271 16.1258C23.7674 17.5917 24.0876 19.1588 24.0876 20.827C24.0876 22.4783 23.7674 24.037 23.1271 25.503C22.5036 26.969 21.6443 28.2496 20.549 29.3449C19.4706 30.4401 18.1984 31.3079 16.7324 31.9482C15.2833 32.5717 13.7246 32.8834 12.0564 32.8834C10.4051 32.8834 8.84643 32.5717 7.38045 31.9482C5.91447 31.3079 4.63384 30.4401 3.53857 29.3449C2.4433 28.2496 1.57551 26.969 0.935194 25.503C0.311732 24.037 0 22.4783 0 20.827V2.85613ZM5.48478 20.827C5.48478 21.7201 5.65329 22.571 5.99029 23.3798C6.34415 24.1718 6.81596 24.8711 7.40572 25.4777C8.01233 26.0675 8.71162 26.5393 9.50359 26.8931C10.2956 27.2301 11.1465 27.3986 12.0564 27.3986C12.9663 27.3986 13.8173 27.2301 14.6092 26.8931C15.4012 26.5393 16.0921 26.0675 16.6818 25.4777C17.2884 24.8711 17.7603 24.1718 18.0973 23.3798C18.4343 22.571 18.6028 21.7201 18.6028 20.827C18.6028 19.9171 18.4343 19.0662 18.0973 18.2742C17.7603 17.4654 17.2884 16.7661 16.6818 16.1763C16.0921 15.5866 15.4012 15.1232 14.6092 14.7862C13.8173 14.4323 12.9663 14.2554 12.0564 14.2554C11.1465 14.2554 10.2956 14.4323 9.50359 14.7862C8.71162 15.1232 8.01233 15.5866 7.40572 16.1763C6.81596 16.7661 6.34415 17.4654 5.99029 18.2742C5.65329 19.0662 5.48478 19.9171 5.48478 20.827Z" fill="black"/>
</mask>
<g mask="url(#mask0_8772_73288)">
<rect x="-1.34033" y="7.37207" width="26.584" height="26.8074" fill="white"/>
<path d="M2 20.3878C2 14.6508 6.6508 10 12.3878 10H25.6798V30.7757H12.3879C6.6508 30.7757 2 26.1249 2 20.3878V20.3878Z" fill="white"/>
<circle cx="11.9517" cy="20.664" r="6.36675" fill="#D23F57"/>
<path d="M-1.22705 7.37203L25.1335 -18.9885V7.37203H-1.22705Z" fill="white"/>
<path d="M25.2437 -18.9885L-1.11691 7.37207L-1.1169 -18.9885L25.2437 -18.9885Z" fill="white"/>
<path d="M15.3606 20L-11 46.3606L-11 20L15.3606 20Z" fill="white"/>
<circle cx="11.9517" cy="20.664" r="2.56904" fill="#01356F"/>
<path d="M11.84 14.2973C12.6761 14.2973 13.504 14.462 14.2764 14.7819C15.0489 15.1019 15.7507 15.5708 16.3419 16.162C16.9331 16.7533 17.4021 17.4551 17.7221 18.2276C18.042 19 18.2067 19.8279 18.2067 20.664C18.2067 21.5001 18.042 22.328 17.7221 23.1005C17.4021 23.8729 16.9331 24.5748 16.3419 25.166C15.7507 25.7572 15.0489 26.2262 14.2764 26.5461C13.504 26.8661 12.6761 27.0308 11.84 27.0308L11.84 20.664L11.84 14.2973Z" fill="#FFCD1D"/>
</g>
</svg>
