<svg width="1779" height="415" viewBox="0 0 1779 415" fill="none" xmlns="http://www.w3.org/2000/svg">
<path d="M325.197 45.9289C350.058 45.9289 371.628 49.7563 389.908 57.4111C408.553 64.7014 422.628 74.9078 432.134 88.0303C442.005 100.788 446.94 115.551 446.94 132.319C446.94 141.796 445.661 150.545 443.102 158.564C432.499 195.38 401.972 218.709 351.52 228.551C369.069 233.654 382.961 242.22 393.198 254.249C403.435 265.913 408.553 280.494 408.553 297.991C408.553 306.01 407.09 315.487 404.166 326.423C396.123 354.855 379.854 375.997 355.359 389.848C331.229 403.335 296.863 410.079 252.261 410.079H24.1293C16.4518 410.079 10.6023 408.803 6.58072 406.252C2.19357 403.7 0 400.237 0 395.863C0 393.676 0.548393 391.307 1.64518 388.755C3.10756 384.745 5.48393 381.647 8.77429 379.46C12.0646 377.273 14.0754 375.997 14.8066 375.632C20.6561 371.987 25.4089 368.342 29.0648 364.697C32.7208 360.687 35.8284 354.308 38.3875 345.56L105.291 109.901C106.754 105.162 107.485 100.606 107.485 96.2319C107.485 92.2222 106.754 88.9416 105.291 86.39C104.195 83.4739 102.55 80.1933 100.356 76.5481C97.0656 71.8094 95.4204 67.982 95.4204 65.0659C95.4204 63.9724 95.786 61.9675 96.5172 59.0514C97.9796 54.3127 101.087 51.0321 105.84 49.2095C110.958 47.0224 118.636 45.9289 128.872 45.9289H325.197ZM300.519 145.988C303.079 137.969 304.358 130.496 304.358 123.57C304.358 104.616 293.573 95.1383 272.003 95.1383H247.325L218.26 197.385H242.39C257.745 197.385 269.809 193.74 278.584 186.449C287.724 178.794 295.036 165.307 300.519 145.988ZM260.487 306.739C263.046 297.991 264.326 289.971 264.326 282.681C264.326 262.997 252.992 253.155 230.325 253.155H202.905L171.647 360.87H199.615C215.336 360.87 227.949 357.042 237.454 349.387C246.96 341.368 254.637 327.152 260.487 306.739Z" fill="#0F3460" fill-opacity="0.05"/>
<path d="M643.672 120.837C693.393 120.837 729.953 130.861 753.351 150.909C777.114 170.957 788.996 197.202 788.996 229.644C788.996 240.58 787.534 252.791 784.609 266.278C777.663 296.168 764.684 322.413 745.673 345.013C726.662 367.249 703.264 384.563 675.479 396.957C648.059 408.986 618.263 415 586.091 415C535.273 415 497.617 404.976 473.122 384.927C448.993 364.515 436.928 337.541 436.928 304.005C436.928 292.705 438.39 280.13 441.315 266.278C448.261 237.846 461.423 212.694 480.799 190.823C500.542 168.588 524.488 151.456 552.639 139.427C581.155 127.033 611.5 120.837 643.672 120.837ZM642.027 169.499C634.349 169.499 626.124 176.425 617.349 190.277C608.941 203.764 598.887 229.462 587.188 267.372C575.489 305.281 569.639 331.891 569.639 347.2C569.639 355.22 570.919 360.687 573.478 363.603C576.037 366.155 579.51 367.431 583.897 367.431C591.575 368.16 599.435 361.599 607.478 347.747C615.887 333.895 626.306 306.921 638.737 266.825C650.07 231.467 655.737 205.769 655.737 189.73C655.737 182.075 654.457 176.79 651.898 173.874C649.704 170.957 646.414 169.499 642.027 169.499Z" fill="#0F3460" fill-opacity="0.05"/>
<path d="M1130.78 334.625C1130.05 336.083 1129.69 338.27 1129.69 341.186C1129.69 343.737 1130.23 345.742 1131.33 347.2C1132.79 348.658 1134.62 349.387 1136.81 349.387C1141.2 349.387 1144.86 347.565 1147.78 343.92C1151.07 339.91 1153.27 337.905 1154.36 337.905C1156.19 337.905 1157.65 339.181 1158.75 341.733C1159.85 343.92 1160.4 346.653 1160.4 349.934C1160.76 360.505 1157.29 370.894 1149.98 381.1C1142.66 390.942 1131.88 399.144 1117.62 405.705C1103.73 411.902 1086.91 415 1067.17 415C1043.04 415 1023.85 409.532 1009.59 398.597C995.329 387.297 988.017 372.352 987.652 353.762C987.652 340.274 990.942 325.147 997.523 308.379L1027.68 229.644C1029.51 224.906 1030.43 221.078 1030.43 218.162C1030.43 213.423 1028.78 209.778 1025.49 207.227C1022.57 204.31 1018.91 202.852 1014.52 202.852C1006.48 202.852 998.802 206.68 991.49 214.335C984.179 221.625 978.877 230.738 975.587 241.673L941.587 353.215C940.124 357.224 939.393 361.052 939.393 364.697C939.393 369.071 940.307 372.716 942.135 375.632C943.963 378.184 946.522 380.918 949.813 383.834C952.372 386.021 954.2 388.026 955.297 389.848C956.393 391.671 956.576 393.858 955.845 396.41C954.382 401.148 950.909 404.611 945.425 406.798C939.941 408.985 931.35 410.079 919.651 410.079H794.617C785.112 410.079 778.348 408.621 774.327 405.705C769.94 402.424 768.294 398.232 769.391 393.129C770.854 388.755 774.692 384.928 780.907 381.647C786.391 378.731 790.961 375.268 794.617 371.258C798.273 367.249 801.381 360.87 803.94 352.121L852.747 194.104C853.478 192.282 853.844 189.73 853.844 186.449C853.844 182.44 852.93 179.341 851.102 177.154C849.639 174.967 847.08 172.233 843.424 168.953C839.768 166.036 837.209 163.485 835.747 161.298C834.284 159.111 834.102 156.195 835.198 152.549C837.392 144.166 848.908 136.875 869.747 130.679C890.586 124.117 912.339 120.837 935.006 120.837C953.286 120.837 967.727 125.94 978.329 136.146C988.931 145.988 993.684 159.84 992.587 177.701C1007.58 156.195 1023.48 141.432 1040.3 133.412C1057.11 125.029 1075.39 120.837 1095.14 120.837C1117.44 120.837 1135.35 127.58 1148.88 141.067C1162.77 154.554 1169.72 172.051 1169.72 193.557C1169.72 204.857 1167.89 215.975 1164.23 226.91L1130.78 334.625Z" fill="#0F3460" fill-opacity="0.05"/>
<path d="M1328.11 120.837C1349.31 120.837 1364.85 124.846 1374.72 132.866C1384.59 140.885 1389.53 151.82 1389.53 165.672C1389.53 174.056 1388.25 182.075 1385.69 189.73L1335.23 353.215C1334.14 357.589 1333.59 361.416 1333.59 364.697C1333.59 369.436 1334.5 373.263 1336.33 376.179C1338.16 378.731 1340.72 381.282 1344.01 383.834C1346.57 386.386 1348.4 388.573 1349.49 390.395C1350.59 391.853 1350.77 393.858 1350.04 396.41C1348.21 401.148 1344.56 404.611 1339.07 406.798C1333.59 408.985 1325.18 410.079 1313.85 410.079H1188.81C1179.31 410.079 1172.36 408.621 1167.97 405.705C1163.59 402.424 1162.12 398.232 1163.59 393.129C1165.05 388.755 1168.89 384.928 1175.1 381.647C1180.59 378.731 1185.16 375.268 1188.81 371.258C1192.47 367.249 1195.58 360.87 1198.14 352.121L1245.85 194.104C1246.94 190.823 1247.49 188.09 1247.49 185.902C1247.49 181.893 1246.58 178.794 1244.75 176.607C1242.92 174.056 1240.18 171.504 1236.52 168.953C1232.87 166.036 1230.31 163.485 1228.85 161.298C1227.38 159.111 1227.2 156.195 1228.3 152.549C1230.49 144.166 1242.01 136.875 1262.85 130.679C1283.69 124.117 1305.44 120.837 1328.11 120.837ZM1364.85 0C1379.11 0 1390.99 4.7387 1400.49 14.2161C1410 23.3289 1414.75 34.6289 1414.75 48.1159C1414.75 57.5933 1412.19 66.8885 1407.07 76.0013C1402.32 85.1142 1395.37 92.5867 1386.23 98.419C1377.46 103.887 1367.59 106.621 1356.62 106.621C1342.73 106.621 1331.03 102.064 1321.52 92.9512C1312.38 83.4739 1307.63 71.8094 1307.27 57.9578C1307.27 48.845 1309.64 39.9144 1314.4 31.166C1319.15 22.0531 1325.91 14.5806 1334.69 8.74838C1343.46 2.91613 1353.51 0 1364.85 0Z" fill="#0F3460" fill-opacity="0.05"/>
<path d="M1709.9 120.837C1730.74 120.837 1747.38 126.669 1759.81 138.333C1772.6 149.633 1779 163.485 1779 179.888C1779 197.385 1773.7 211.054 1763.1 220.896C1752.49 230.738 1738.6 235.659 1721.42 235.659C1706.06 235.659 1694.18 231.831 1685.77 224.177C1677.36 216.157 1673.34 207.227 1673.71 197.385C1670.05 196.656 1666.95 198.114 1664.39 201.759C1661.83 205.404 1659.08 212.512 1656.16 223.083C1654.33 230.009 1650.86 236.388 1645.74 242.22C1670.6 244.043 1689.06 249.693 1701.13 259.17C1713.19 268.647 1719.23 280.859 1719.23 295.804C1719.23 303.094 1717.95 310.384 1715.39 317.675L1711 334.625C1710.27 336.447 1709.9 338.816 1709.9 341.733C1709.9 346.836 1712.28 349.387 1717.03 349.387C1721.42 349.387 1725.07 347.565 1728 343.92C1731.29 339.91 1733.48 337.905 1734.58 337.905C1736.41 337.905 1737.87 339.181 1738.97 341.733C1740.06 343.92 1740.61 346.653 1740.61 349.934C1740.98 360.505 1737.69 370.894 1730.74 381.1C1724.16 390.942 1713.92 399.144 1700.03 405.705C1686.5 411.902 1670.05 415 1650.68 415C1627.28 415 1607.72 409.168 1592 397.503C1576.64 385.839 1568.97 370.529 1568.97 351.574C1568.97 344.649 1570.43 336.812 1573.35 328.063L1583.77 300.725C1585.6 294.163 1586.51 289.425 1586.51 286.509C1586.51 281.77 1584.87 278.307 1581.58 276.12C1578.65 273.933 1573.9 272.839 1567.32 272.839H1556.35L1531.67 353.215C1530.58 357.589 1530.03 361.416 1530.03 364.697C1530.03 369.436 1530.94 373.263 1532.77 376.179C1534.6 378.731 1537.16 381.282 1540.45 383.834C1543.01 386.386 1544.84 388.573 1545.93 390.395C1547.03 391.853 1547.21 393.858 1546.48 396.41C1544.65 401.148 1541 404.611 1535.51 406.798C1530.03 408.985 1521.62 410.079 1510.29 410.079H1385.25C1375.75 410.079 1368.8 408.621 1364.41 405.705C1360.03 402.424 1358.57 398.232 1360.03 393.129C1361.49 388.755 1365.33 384.928 1371.54 381.647C1377.03 378.731 1381.6 375.268 1385.25 371.258C1388.91 367.249 1392.02 360.87 1394.58 352.121L1477.93 79.282C1479.03 76.0013 1479.58 73.2675 1479.58 71.0804C1479.58 67.0707 1478.48 63.7901 1476.29 61.2385C1474.46 58.6869 1471.9 56.1353 1468.61 53.5837C1464.95 50.6676 1462.21 48.116 1460.38 45.9289C1458.92 43.7418 1458.74 40.8257 1459.84 37.1805C1462.03 28.7967 1473.55 21.5064 1494.38 15.3096C1515.22 9.11288 1536.98 6.01451 1559.64 6.01451C1580.85 6.01451 1596.39 10.0242 1606.26 18.0435C1616.13 25.6983 1621.06 36.4515 1621.06 50.303C1621.06 58.6869 1619.78 66.7062 1617.22 74.361L1569.51 229.644H1587.61C1594.92 229.644 1600.77 227.457 1605.16 223.083C1609.91 218.709 1613.57 212.33 1616.13 203.946C1625.27 176.972 1637.15 156.377 1651.77 142.161C1666.4 127.945 1685.77 120.837 1709.9 120.837Z" fill="#0F3460" fill-opacity="0.05"/>
</svg>
