<svg width="1919" height="911" viewBox="0 0 1919 911" fill="none" xmlns="http://www.w3.org/2000/svg">
<mask id="mask0" mask-type="alpha" maskUnits="userSpaceOnUse" x="0" y="0" width="1920" height="911">
<rect width="1920" height="911" fill="#F6F9FC"/>
</mask>
<g mask="url(#mask0)">
<path d="M240.242 435.228C287.452 452.348 307.303 508.316 281.447 551.401C267.77 574.191 266.338 602.33 277.596 626.396C298.861 671.853 273.385 725.531 224.694 737.681C198.921 744.111 178.037 762.961 169.001 787.949C151.919 835.184 95.9693 855.066 52.9544 829.187C30.1993 815.496 2.11567 814.048 -21.9381 825.323C-67.3831 846.626 -120.972 821.044 -133.104 772.342C-139.527 746.557 -158.366 725.622 -183.338 716.566C-230.548 699.446 -250.399 643.478 -224.543 600.393C-210.866 577.603 -209.434 549.465 -220.692 525.398C-241.957 479.942 -216.481 426.263 -167.79 414.114C-142.017 407.683 -121.133 388.834 -112.097 363.846C-95.0152 316.61 -39.0654 296.728 3.94946 322.608C26.7046 336.298 54.7882 337.747 78.842 326.471C124.287 305.168 177.876 330.75 190.008 379.452C196.431 405.237 215.27 426.172 240.242 435.228Z" fill="#D33F57" fill-opacity="0.09"/>
<path d="M2064.68 247.835C2134.53 273.166 2163.91 355.977 2125.65 419.726C2105.41 453.447 2103.29 495.081 2119.95 530.691C2151.42 597.949 2113.72 677.373 2041.68 695.35C2003.54 704.864 1972.64 732.754 1959.27 769.727C1934 839.618 1851.21 869.036 1787.57 830.743C1753.9 810.487 1712.34 808.344 1676.75 825.027C1609.51 856.547 1530.22 818.695 1512.27 746.635C1502.77 708.483 1474.89 677.507 1437.94 664.108C1368.09 638.777 1338.72 555.966 1376.98 492.216C1397.21 458.496 1399.33 416.861 1382.67 381.252C1351.21 313.994 1388.9 234.57 1460.95 216.593C1499.08 207.079 1529.98 179.189 1543.35 142.216C1568.63 72.3251 1651.41 42.907 1715.06 81.1993C1748.73 101.456 1790.28 103.599 1825.87 86.9157C1893.11 55.3953 1972.4 93.2475 1990.35 165.308C1999.86 203.46 2027.73 234.435 2064.68 247.835Z" fill="#DFE5ED" fill-opacity="0.5"/>
</g>
</svg>
